<svg width="28" height="28" viewBox="0 0 28 28" fill="none" xmlns="http://www.w3.org/2000/svg">
<path d="M22.8512 17.7958C21.2163 17.7958 19.7742 18.5681 18.8321 19.7507L10.0934 15.3196C10.2078 14.8965 10.29 14.4594 10.29 13.9993C10.29 13.4985 10.1923 13.027 10.0561 12.5682L18.7562 8.1575C19.6932 9.39369 21.1725 10.2017 22.8524 10.2017C25.6981 10.2017 28 7.91923 28 5.10022C28.0001 2.28375 25.6981 0 22.8525 0C20.0133 0 17.7088 2.28375 17.7088 5.10016C17.7088 5.56151 17.791 5.99989 17.9067 6.42426L9.16926 10.8554C8.22585 9.67149 6.78116 8.89665 5.14371 8.89665C2.30063 8.89665 0 11.1816 0 13.9993C0 16.8171 2.30069 19.1008 5.14371 19.1008C6.82615 19.1008 8.30427 18.2903 9.24505 17.0529L17.9413 21.4635C17.8051 21.9211 17.7061 22.3964 17.7061 22.8985C17.7061 25.7163 20.0106 28 22.8499 28C25.6955 28 27.9974 25.7163 27.9974 22.8985C27.9987 20.0783 25.6968 17.7958 22.8512 17.7958Z" fill="#5A5A5A"/>
</svg>
