<svg width="42" height="42" viewBox="0 0 42 42" fill="none" xmlns="http://www.w3.org/2000/svg">
<mask id="path-1-inside-1" fill="white">
<path d="M41.1463 31.0709C41.374 31.128 41.5732 31.0993 41.7439 30.985C41.9146 30.8705 42 30.6989 42 30.47V27.3801C42 26.8078 41.7439 26.3501 41.2317 26.0068L25.2683 16.4796C24.7561 16.1934 24.5 15.7356 24.5 15.1063V4.37739C24.5 3.80515 24.3862 3.26158 24.1585 2.74659C23.5325 1.14439 22.6504 0.257493 21.5122 0.0858311C21.3415 0.0285818 21.1707 0 21 0C20.8293 0 20.6301 0.0285818 20.4024 0.0858311C20.3455 0.0858311 20.2744 0.100165 20.189 0.128747C20.1037 0.157328 20.004 0.200244 19.8902 0.257493C19.4918 0.371906 19.122 0.629399 18.7805 1.02997C18.439 1.43055 18.1829 1.80245 18.0122 2.14578L17.7561 2.74659C17.5854 3.26158 17.5 3.80515 17.5 4.37739V15.1063C17.5 15.7357 17.2439 16.1935 16.7317 16.4796L0.768293 26.0068C0.256098 26.3501 0 26.8078 0 27.3801V30.47C0 30.6989 0.0853659 30.8705 0.256098 30.985C0.426829 31.0993 0.625988 31.128 0.853659 31.0709L16.6463 25.921C16.874 25.8065 17.0732 25.8207 17.2439 25.9639C17.4146 26.1069 17.5 26.2928 17.5 26.5218V34.8474C17.5 35.4769 17.2723 35.9632 16.8171 36.3065L14.6829 37.8515C14.2277 38.1948 14 38.6812 14 39.3106V41.3706C14 41.5994 14.0854 41.7711 14.2561 41.8856C14.4268 42.0001 14.626 42.0286 14.8537 41.9714L20.1463 40.4264C20.7155 40.2548 21.2845 40.2548 21.8537 40.4264L27.1463 41.9714C27.374 42.0286 27.5732 42.0001 27.7439 41.8856C27.9146 41.7711 28 41.5994 28 41.3706V39.3106C28 38.6812 27.7723 38.1948 27.3171 37.8515L25.1829 36.3065C24.7277 35.9632 24.5 35.4769 24.5 34.8474V26.5218C24.5 26.2356 24.5854 26.0353 24.7561 25.921C24.9268 25.8065 25.126 25.8065 25.3537 25.921L41.1463 31.0709Z"/>
</mask>
<path d="M41.1463 31.0709C41.374 31.128 41.5732 31.0993 41.7439 30.985C41.9146 30.8705 42 30.6989 42 30.47V27.3801C42 26.8078 41.7439 26.3501 41.2317 26.0068L25.2683 16.4796C24.7561 16.1934 24.5 15.7356 24.5 15.1063V4.37739C24.5 3.80515 24.3862 3.26158 24.1585 2.74659C23.5325 1.14439 22.6504 0.257493 21.5122 0.0858311C21.3415 0.0285818 21.1707 0 21 0C20.8293 0 20.6301 0.0285818 20.4024 0.0858311C20.3455 0.0858311 20.2744 0.100165 20.189 0.128747C20.1037 0.157328 20.004 0.200244 19.8902 0.257493C19.4918 0.371906 19.122 0.629399 18.7805 1.02997C18.439 1.43055 18.1829 1.80245 18.0122 2.14578L17.7561 2.74659C17.5854 3.26158 17.5 3.80515 17.5 4.37739V15.1063C17.5 15.7357 17.2439 16.1935 16.7317 16.4796L0.768293 26.0068C0.256098 26.3501 0 26.8078 0 27.3801V30.47C0 30.6989 0.0853659 30.8705 0.256098 30.985C0.426829 31.0993 0.625988 31.128 0.853659 31.0709L16.6463 25.921C16.874 25.8065 17.0732 25.8207 17.2439 25.9639C17.4146 26.1069 17.5 26.2928 17.5 26.5218V34.8474C17.5 35.4769 17.2723 35.9632 16.8171 36.3065L14.6829 37.8515C14.2277 38.1948 14 38.6812 14 39.3106V41.3706C14 41.5994 14.0854 41.7711 14.2561 41.8856C14.4268 42.0001 14.626 42.0286 14.8537 41.9714L20.1463 40.4264C20.7155 40.2548 21.2845 40.2548 21.8537 40.4264L27.1463 41.9714C27.374 42.0286 27.5732 42.0001 27.7439 41.8856C27.9146 41.7711 28 41.5994 28 41.3706V39.3106C28 38.6812 27.7723 38.1948 27.3171 37.8515L25.1829 36.3065C24.7277 35.9632 24.5 35.4769 24.5 34.8474V26.5218C24.5 26.2356 24.5854 26.0353 24.7561 25.921C24.9268 25.8065 25.126 25.8065 25.3537 25.921L41.1463 31.0709Z" fill="#53D7B7" stroke="#53D7B7" stroke-width="2" mask="url(#path-1-inside-1)"/>
</svg>
