<svg width="36" height="53" viewBox="0 0 36 53" fill="none" xmlns="http://www.w3.org/2000/svg">
<mask id="path-1-inside-1" fill="white">
<path d="M34.1751 12.9596C33.8539 8.72889 33.3423 5.43486 32.5329 4.14011C29.1956 -1.18352 5.81835 -1.57312 3.16412 4.14011C2.51485 5.53984 2.05949 8.82221 1.7539 12.9666C0.767873 13.1229 0 14.2415 0 15.6109V20.7934C0 21.9458 0.541926 22.9175 1.29855 23.2966C1.11935 31.4593 1.26478 39.9755 1.53315 44.2109C1.53315 47.4804 3.16326 46.938 3.16326 46.938H4.69121V50.4677C4.69121 51.8674 5.76208 53 7.0814 53C8.40245 53 9.47332 51.8674 9.47332 50.4677V46.938H27.2495V50.4677C27.2495 51.8674 28.3195 53 29.6406 53C30.9599 53 32.0308 51.8674 32.0308 50.4677V46.938H32.5329C32.5329 46.938 34.4513 47.2926 34.5742 45.7529C34.5742 41.5292 34.7716 32.1685 34.6088 23.3327C35.4131 22.9933 36 21.9948 36 20.7934V15.6109C36.0009 14.2088 35.1958 13.0716 34.1751 12.9596ZM8.87339 4.89947H26.8236V8.55859H8.87339V4.89947ZM9.12964 42.7703C7.72028 42.7703 6.57843 41.2306 6.57843 39.3316C6.57843 37.4338 7.72028 35.8953 9.12964 35.8953C10.539 35.8953 11.6817 37.4338 11.6817 39.3316C11.6817 41.2306 10.5399 42.7703 9.12964 42.7703ZM26.7275 42.7703C25.319 42.7703 24.1746 41.2306 24.1746 39.3316C24.1746 37.4338 25.3182 35.8953 26.7275 35.8953C28.1369 35.8953 29.2787 37.4338 29.2787 39.3316C29.2796 41.2306 28.1369 42.7703 26.7275 42.7703ZM29.9713 27.7232H5.72572V10.5882H29.9713V27.7232Z"/>
</mask>
<path d="M34.1751 12.9596C33.8539 8.72889 33.3423 5.43486 32.5329 4.14011C29.1956 -1.18352 5.81835 -1.57312 3.16412 4.14011C2.51485 5.53984 2.05949 8.82221 1.7539 12.9666C0.767873 13.1229 0 14.2415 0 15.6109V20.7934C0 21.9458 0.541926 22.9175 1.29855 23.2966C1.11935 31.4593 1.26478 39.9755 1.53315 44.2109C1.53315 47.4804 3.16326 46.938 3.16326 46.938H4.69121V50.4677C4.69121 51.8674 5.76208 53 7.0814 53C8.40245 53 9.47332 51.8674 9.47332 50.4677V46.938H27.2495V50.4677C27.2495 51.8674 28.3195 53 29.6406 53C30.9599 53 32.0308 51.8674 32.0308 50.4677V46.938H32.5329C32.5329 46.938 34.4513 47.2926 34.5742 45.7529C34.5742 41.5292 34.7716 32.1685 34.6088 23.3327C35.4131 22.9933 36 21.9948 36 20.7934V15.6109C36.0009 14.2088 35.1958 13.0716 34.1751 12.9596ZM8.87339 4.89947H26.8236V8.55859H8.87339V4.89947ZM9.12964 42.7703C7.72028 42.7703 6.57843 41.2306 6.57843 39.3316C6.57843 37.4338 7.72028 35.8953 9.12964 35.8953C10.539 35.8953 11.6817 37.4338 11.6817 39.3316C11.6817 41.2306 10.5399 42.7703 9.12964 42.7703ZM26.7275 42.7703C25.319 42.7703 24.1746 41.2306 24.1746 39.3316C24.1746 37.4338 25.3182 35.8953 26.7275 35.8953C28.1369 35.8953 29.2787 37.4338 29.2787 39.3316C29.2796 41.2306 28.1369 42.7703 26.7275 42.7703ZM29.9713 27.7232H5.72572V10.5882H29.9713V27.7232Z" fill="#53D7B7" stroke="#53D7B7" stroke-width="2" mask="url(#path-1-inside-1)"/>
</svg>
