<svg width="46" height="54" viewBox="0 0 46 54" fill="none" xmlns="http://www.w3.org/2000/svg">
<rect width="46" height="54" fill="black" fill-opacity="0"/>
<rect width="46" height="54" fill="black" fill-opacity="0"/>
<mask id="path-1-inside-1" fill="white">
<path d="M6.55469 23.0123H39.3634V5.27809C39.3634 2.36787 37.575 0 35.3769 0H10.5412C8.34303 0 6.55469 2.36787 6.55469 5.27809V23.0123ZM17.899 3.56267H28.0191C28.6964 3.56267 29.2457 4.28976 29.2457 5.18664C29.2457 6.08351 28.6964 6.8108 28.0191 6.8108H17.899C17.2217 6.8108 16.6723 6.08351 16.6723 5.18664C16.6723 4.28976 17.2217 3.56267 17.899 3.56267Z"/>
</mask>
<path d="M6.55469 23.0123H39.3634V5.27809C39.3634 2.36787 37.575 0 35.3769 0H10.5412C8.34303 0 6.55469 2.36787 6.55469 5.27809V23.0123ZM17.899 3.56267H28.0191C28.6964 3.56267 29.2457 4.28976 29.2457 5.18664C29.2457 6.08351 28.6964 6.8108 28.0191 6.8108H17.899C17.2217 6.8108 16.6723 6.08351 16.6723 5.18664C16.6723 4.28976 17.2217 3.56267 17.899 3.56267Z" fill="#53D7B7" stroke="#53D7B7" stroke-width="2" mask="url(#path-1-inside-1)"/>
<mask id="path-2-inside-2" fill="white">
<path d="M39.3632 35.2412V26.2604H6.55469V35.2412C6.55469 38.1516 8.34303 40.5193 10.5412 40.5193H35.3767C37.575 40.5193 39.3632 38.1516 39.3632 35.2412ZM11.9392 36.3079C10.7224 36.3079 9.7355 35.0013 9.7355 33.3901C9.7355 31.7786 10.7222 30.4725 11.9392 30.4725C13.1564 30.4725 14.1434 31.7786 14.1434 33.3901C14.1435 35.0013 13.1564 36.3079 11.9392 36.3079ZM33.9784 36.3079C32.7612 36.3079 31.7745 35.0013 31.7745 33.3901C31.7745 31.7786 32.7612 30.4725 33.9784 30.4725C35.1952 30.4725 36.1824 31.7786 36.1824 33.3901C36.1822 35.0013 35.1952 36.3079 33.9784 36.3079Z"/>
</mask>
<path d="M39.3632 35.2412V26.2604H6.55469V35.2412C6.55469 38.1516 8.34303 40.5193 10.5412 40.5193H35.3767C37.575 40.5193 39.3632 38.1516 39.3632 35.2412ZM11.9392 36.3079C10.7224 36.3079 9.7355 35.0013 9.7355 33.3901C9.7355 31.7786 10.7222 30.4725 11.9392 30.4725C13.1564 30.4725 14.1434 31.7786 14.1434 33.3901C14.1435 35.0013 13.1564 36.3079 11.9392 36.3079ZM33.9784 36.3079C32.7612 36.3079 31.7745 35.0013 31.7745 33.3901C31.7745 31.7786 32.7612 30.4725 33.9784 30.4725C35.1952 30.4725 36.1824 31.7786 36.1824 33.3901C36.1822 35.0013 35.1952 36.3079 33.9784 36.3079Z" fill="#53D7B7" stroke="#53D7B7" stroke-width="2" mask="url(#path-2-inside-2)"/>
<mask id="path-3-inside-3" fill="white">
<path d="M35.3204 43.7676H31.8693L32.9697 46.5901H12.8641L13.9645 43.7676H10.5387C10.5305 43.7676 10.5224 43.7668 10.5139 43.7668L7.67894 51.0384C7.29051 52.0347 7.5857 53.2594 8.33808 53.7735C8.56311 53.9272 8.80333 54 9.04044 54C9.59582 54 10.1318 53.5992 10.4041 52.9008L11.2816 50.65H34.5526L35.4302 52.9008C35.7021 53.5992 36.2385 54 36.7938 54C37.0303 54 37.2709 53.9272 37.4959 53.7735C38.2481 53.2594 38.5435 52.0349 38.155 51.0384L35.3204 43.7676Z"/>
</mask>
<path d="M35.3204 43.7676H31.8693L32.9697 46.5901H12.8641L13.9645 43.7676H10.5387C10.5305 43.7676 10.5224 43.7668 10.5139 43.7668L7.67894 51.0384C7.29051 52.0347 7.5857 53.2594 8.33808 53.7735C8.56311 53.9272 8.80333 54 9.04044 54C9.59582 54 10.1318 53.5992 10.4041 52.9008L11.2816 50.65H34.5526L35.4302 52.9008C35.7021 53.5992 36.2385 54 36.7938 54C37.0303 54 37.2709 53.9272 37.4959 53.7735C38.2481 53.2594 38.5435 52.0349 38.155 51.0384L35.3204 43.7676Z" fill="#53D7B7" stroke="#53D7B7" stroke-width="2" mask="url(#path-3-inside-3)"/>
<mask id="path-4-inside-4" fill="white">
<path d="M6.18403 41.5121L0.361052 50.6611C-0.184881 51.5186 -0.102333 52.7993 0.545198 53.5217C0.832801 53.8426 1.18375 53.9994 1.53252 53.9994C1.96896 53.9994 2.40246 53.754 2.70586 53.2775L8.93074 43.4972C7.89044 43.1414 6.95175 42.448 6.18403 41.5121Z"/>
</mask>
<path d="M6.18403 41.5121L0.361052 50.6611C-0.184881 51.5186 -0.102333 52.7993 0.545198 53.5217C0.832801 53.8426 1.18375 53.9994 1.53252 53.9994C1.96896 53.9994 2.40246 53.754 2.70586 53.2775L8.93074 43.4972C7.89044 43.1414 6.95175 42.448 6.18403 41.5121Z" fill="#53D7B7" stroke="#53D7B7" stroke-width="2" mask="url(#path-4-inside-4)"/>
<mask id="path-5-inside-5" fill="white">
<path d="M45.6396 50.6611L39.7816 41.457C39.0214 42.401 38.0894 43.1039 37.0547 43.4732L43.2947 53.2775C43.5981 53.7538 44.0316 53.9994 44.4681 53.9994C44.8169 53.9994 45.1678 53.8424 45.4554 53.5217C46.1029 52.7993 46.1856 51.5186 45.6396 50.6611Z"/>
</mask>
<path d="M45.6396 50.6611L39.7816 41.457C39.0214 42.401 38.0894 43.1039 37.0547 43.4732L43.2947 53.2775C43.5981 53.7538 44.0316 53.9994 44.4681 53.9994C44.8169 53.9994 45.1678 53.8424 45.4554 53.5217C46.1029 52.7993 46.1856 51.5186 45.6396 50.6611Z" fill="#53D7B7" stroke="#53D7B7" stroke-width="2" mask="url(#path-5-inside-5)"/>
</svg>
