<svg width="17" height="17" viewBox="0 0 17 17" fill="none" xmlns="http://www.w3.org/2000/svg">
<path d="M16.5984 4.23114C16.5105 4.00435 16.3322 3.76269 16.2002 3.55112C14.6212 0.936889 11.171 0 8.38517 0C4.65582 0 0.548378 1.72271 0 5.27363V5.99911C0 6.02938 0.0151467 6.30135 0.0366618 6.43739C0.34407 8.12967 2.28244 9.9282 3.73009 11.6205C5.28756 13.4336 6.90366 15.2172 8.50479 17C9.49208 15.8366 10.4758 14.6578 11.4406 13.5245C11.7035 13.1919 12.0088 12.8595 12.272 12.542C12.4475 12.3307 12.7826 12.1193 12.9358 11.9226C14.4932 9.95828 17 7.97877 17 6.02934V5.2285C17.0001 5.01716 16.6198 4.27671 16.5984 4.23114ZM8.45344 7.873C7.3572 7.873 6.15729 7.49539 5.56502 6.45253C5.47678 6.28653 5.48389 5.95385 5.48389 5.92338V5.45493C5.48389 4.12549 7.12249 3.52092 8.54799 3.52092C10.3029 3.52092 11.6602 4.48816 11.6602 5.69714C11.6602 6.90608 10.2084 7.873 8.45344 7.873Z" fill="black"/>
</svg>
