<svg width="32" height="25" viewBox="0 0 32 25" fill="none" xmlns="http://www.w3.org/2000/svg">
<rect width="31.07" height="24.66" fill="black" fill-opacity="0"/>
<rect width="31.07" height="24.66" fill="black" fill-opacity="0"/>
<rect width="31.07" height="24.66" fill="black" fill-opacity="0"/>
<path d="M30.9176 16.3865C30.4918 14.6905 29.1914 13.2638 27.1571 12.2607C25.4485 11.4179 23.4983 11.0751 21.4109 11.2373C22.6189 9.7741 23.2466 8.16033 23.2466 6.47542C23.2466 2.47025 20.0324 0 15.5357 0C11.0468 0 7.82478 2.46216 7.82478 6.47537C7.82478 8.16027 8.45243 9.774 9.66046 11.2372C7.573 11.0751 5.62293 11.4178 3.91433 12.2606C-0.163434 14.2713 -1.03467 17.8899 1.20462 21.2021C3.41447 24.4719 7.50025 25.7031 11.6261 23.6685C13.3343 22.8261 14.6564 21.5555 15.5357 19.9313C16.4149 21.5555 17.737 22.8261 19.4453 23.6685C23.5195 25.6778 27.625 24.5189 29.8666 21.2022C30.9447 19.6075 31.3081 17.9423 30.9176 16.3865ZM15.5357 2.07232C18.6453 2.07232 20.8196 3.58388 20.8196 6.47537C20.8196 8.07573 20.0729 9.56631 18.5972 10.9172C16.8229 9.685 14.2634 9.67531 12.4742 10.9172C10.9985 9.56631 10.2517 8.07578 10.2517 6.47537C10.2516 3.59295 12.4146 2.07232 15.5357 2.07232ZM10.4123 21.874C7.47785 23.321 4.85953 22.464 3.30652 20.1661C1.75884 17.8769 2.18448 15.5067 5.12812 14.0551C6.87083 13.1955 8.79669 13.0939 10.742 13.4783C10.3759 15.4484 11.7024 17.3194 13.8049 18.0079C13.1737 19.7753 12.0357 21.0733 10.4123 21.874ZM15.7039 16.2032C14.3013 16.2894 13.1087 15.3287 13.1087 14.1348C13.1087 13.0342 14.1127 12.1326 15.3851 12.0654C16.7702 11.9922 17.9626 12.9301 17.9626 14.1348C17.9626 15.2178 16.9747 16.1283 15.7039 16.2032ZM27.7648 20.1661C27.7648 20.1662 27.7647 20.1662 27.7647 20.1663C26.2173 22.456 23.602 23.3253 20.6591 21.874C19.0356 21.0733 17.8976 19.7752 17.2665 18.0079C19.387 17.3132 20.6924 15.4321 20.3294 13.4782C22.4361 13.0619 24.3205 13.2547 25.9433 14.0552C28.8778 15.5022 29.3181 17.8686 27.7648 20.1661Z" fill="#53D7B7"/>
</svg>
