<svg width="43" height="36" viewBox="0 0 43 36" fill="none" xmlns="http://www.w3.org/2000/svg">
<rect width="43" height="36" fill="black" fill-opacity="0"/>
<rect width="43" height="36" fill="black" fill-opacity="0"/>
<rect width="43" height="36" fill="black" fill-opacity="0"/>
<path d="M18.1748 22.4145C18.1748 22.4145 18.1748 22.4145 18.1749 22.4146C19.0557 23.3565 20.2373 23.8827 21.4984 23.8827C22.7597 23.8827 23.9412 23.3565 24.8224 22.4145C24.8224 22.4145 24.8225 22.4144 24.8225 22.4144L42.4417 3.58444V33.3399C42.4417 34.5645 41.5201 35.5 40.4526 35.5H2.54375C1.47625 35.5 0.554688 34.5644 0.554688 33.3399V3.5839L18.1748 22.4145Z" fill="#53D7B7" stroke="#53D7B7"/>
<path d="M19.9624 20.6024L1.15276 0.500087H41.8474L23.0376 20.6025C22.6071 21.0626 22.0505 21.2863 21.5001 21.2863C20.9499 21.2863 20.3935 21.0627 19.9624 20.6024Z" fill="#53D7B7" stroke="#53D7B7"/>
</svg>
