<svg width="12" height="11" viewBox="0 0 12 11" fill="none" xmlns="http://www.w3.org/2000/svg">
<path d="M9.38871 7.11716C8.76954 7.11716 8.22339 7.41103 7.86657 7.86107L4.557 6.17492C4.60032 6.01393 4.63146 5.84759 4.63146 5.67253C4.63146 5.48195 4.59448 5.30253 4.54287 5.12794L7.83784 3.44957C8.1927 3.91997 8.75298 4.22743 9.38919 4.22743C10.4669 4.22743 11.3387 3.35891 11.3387 2.28621C11.3387 1.21448 10.4669 0.345459 9.38921 0.345459C8.31393 0.345459 7.44115 1.21448 7.44115 2.28618C7.44115 2.46174 7.47231 2.62855 7.51612 2.79004L4.20701 4.47618C3.84972 4.02568 3.30258 3.73084 2.68243 3.73084C1.60568 3.73084 0.734375 4.60033 0.734375 5.67253C0.734375 6.74473 1.60571 7.61375 2.68243 7.61375C3.31962 7.61375 3.87942 7.30533 4.23572 6.83446L7.52923 8.51282C7.47762 8.68692 7.44016 8.8678 7.44016 9.05887C7.44016 10.1311 8.31293 11.0001 9.38822 11.0001C10.4659 11.0001 11.3377 10.1311 11.3377 9.05887C11.3382 7.9857 10.4664 7.11716 9.38871 7.11716Z" fill="#53D7B7"/>
</svg>
