<svg width="100" height="100" viewBox="0 0 100 100" fill="none" xmlns="http://www.w3.org/2000/svg">
<rect width="100" height="100" fill="black" fill-opacity="0"/>
<circle cx="50" cy="50" r="50" fill="#53D7B7" fill-opacity="0.26"/>
<circle cx="50" cy="50" r="49.5" stroke="#53D7B7" stroke-opacity="0.49"/>
<rect width="32" height="41" fill="black" fill-opacity="0" transform="translate(34 30)"/>
<rect width="32" height="41" fill="black" fill-opacity="0" transform="translate(34 30)"/>
<rect width="32" height="41" fill="black" fill-opacity="0" transform="translate(34 30)"/>
<mask id="path-3-inside-1" fill="white">
<path d="M65.9847 62.3569C66.0526 63.023 65.8942 63.6021 65.5105 64.0942L61.0049 69.827C60.8017 70.1166 60.5364 70.3629 60.2089 70.5654C59.8814 70.7682 59.5597 70.8984 59.2436 70.9563C59.221 70.9563 59.1531 70.9637 59.0401 70.9782C58.9274 70.9926 58.7806 71 58.5999 71C58.1707 71 57.4762 70.9059 56.5164 70.7176C55.5565 70.5293 54.3822 70.066 52.9934 69.3278C51.6043 68.5894 50.0291 67.4818 48.2676 66.0052C46.5061 64.5288 44.6315 62.5018 42.6441 59.9247C41.0632 57.9269 39.7534 56.0158 38.7145 54.1918C37.6756 52.3675 36.84 50.6809 36.2077 49.1319C35.5752 47.5828 35.101 46.1785 34.7848 44.9189C34.4686 43.6594 34.2541 42.5736 34.1412 41.6615C34.0282 40.7495 33.9831 40.0328 34.0056 39.5116C34.0282 38.9905 34.0395 38.7009 34.0395 38.643C34.0847 38.2376 34.1863 37.825 34.3444 37.4052C34.5025 36.9853 34.6945 36.6451 34.9203 36.3845L39.4258 30.608C39.742 30.2027 40.1034 30 40.5099 30C40.8035 30 41.0632 30.1086 41.289 30.3257C41.5149 30.5429 41.7068 30.8107 41.8649 31.1292L45.4897 39.946C45.6929 40.4092 45.7494 40.9159 45.659 41.4661C45.5687 42.0162 45.3767 42.4795 45.0832 42.8559L43.4232 44.9841C43.3781 45.042 43.3385 45.1361 43.3047 45.2664C43.2708 45.3967 43.2538 45.5053 43.2538 45.5921C43.3442 46.2002 43.5474 46.8951 43.8636 47.6769C44.1346 48.3718 44.5524 49.2187 45.117 50.2177C45.6816 51.2166 46.4834 52.3675 47.5222 53.6704C48.5385 55.0025 49.4419 56.0375 50.2323 56.776C51.0226 57.514 51.6834 58.0572 52.2141 58.4046C52.7449 58.7521 53.1514 58.962 53.4336 59.0342L53.857 59.1428C53.9021 59.1428 53.9757 59.121 54.0772 59.0777C54.1788 59.0342 54.2522 58.9836 54.2975 58.9256L56.2284 56.4065C56.6351 55.9433 57.1091 55.7117 57.6512 55.7117C58.0352 55.7117 58.34 55.7985 58.5658 55.9723H58.5996L65.1377 60.9235C65.6121 61.3002 65.8944 61.7778 65.9847 62.3569Z"/>
</mask>
<path d="M65.9847 62.3569C66.0526 63.023 65.8942 63.6021 65.5105 64.0942L61.0049 69.827C60.8017 70.1166 60.5364 70.3629 60.2089 70.5654C59.8814 70.7682 59.5597 70.8984 59.2436 70.9563C59.221 70.9563 59.1531 70.9637 59.0401 70.9782C58.9274 70.9926 58.7806 71 58.5999 71C58.1707 71 57.4762 70.9059 56.5164 70.7176C55.5565 70.5293 54.3822 70.066 52.9934 69.3278C51.6043 68.5894 50.0291 67.4818 48.2676 66.0052C46.5061 64.5288 44.6315 62.5018 42.6441 59.9247C41.0632 57.9269 39.7534 56.0158 38.7145 54.1918C37.6756 52.3675 36.84 50.6809 36.2077 49.1319C35.5752 47.5828 35.101 46.1785 34.7848 44.9189C34.4686 43.6594 34.2541 42.5736 34.1412 41.6615C34.0282 40.7495 33.9831 40.0328 34.0056 39.5116C34.0282 38.9905 34.0395 38.7009 34.0395 38.643C34.0847 38.2376 34.1863 37.825 34.3444 37.4052C34.5025 36.9853 34.6945 36.6451 34.9203 36.3845L39.4258 30.608C39.742 30.2027 40.1034 30 40.5099 30C40.8035 30 41.0632 30.1086 41.289 30.3257C41.5149 30.5429 41.7068 30.8107 41.8649 31.1292L45.4897 39.946C45.6929 40.4092 45.7494 40.9159 45.659 41.4661C45.5687 42.0162 45.3767 42.4795 45.0832 42.8559L43.4232 44.9841C43.3781 45.042 43.3385 45.1361 43.3047 45.2664C43.2708 45.3967 43.2538 45.5053 43.2538 45.5921C43.3442 46.2002 43.5474 46.8951 43.8636 47.6769C44.1346 48.3718 44.5524 49.2187 45.117 50.2177C45.6816 51.2166 46.4834 52.3675 47.5222 53.6704C48.5385 55.0025 49.4419 56.0375 50.2323 56.776C51.0226 57.514 51.6834 58.0572 52.2141 58.4046C52.7449 58.7521 53.1514 58.962 53.4336 59.0342L53.857 59.1428C53.9021 59.1428 53.9757 59.121 54.0772 59.0777C54.1788 59.0342 54.2522 58.9836 54.2975 58.9256L56.2284 56.4065C56.6351 55.9433 57.1091 55.7117 57.6512 55.7117C58.0352 55.7117 58.34 55.7985 58.5658 55.9723H58.5996L65.1377 60.9235C65.6121 61.3002 65.8944 61.7778 65.9847 62.3569Z" fill="#53D7B7" stroke="#53D7B7" stroke-width="2" mask="url(#path-3-inside-1)"/>
</svg>
