<svg width="100" height="100" viewBox="0 0 100 100" fill="none" xmlns="http://www.w3.org/2000/svg">
<rect width="100" height="100" fill="black" fill-opacity="0"/>
<circle cx="50" cy="50" r="50" fill="#53D7B7" fill-opacity="0.26"/>
<circle cx="50" cy="50" r="49.5" stroke="#53D7B7" stroke-opacity="0.49"/>
<rect width="32" height="41" fill="black" fill-opacity="0" transform="translate(34 30)"/>
<rect width="32" height="41" fill="black" fill-opacity="0" transform="translate(34 30)"/>
<mask id="path-3-inside-1" fill="white">
<path d="M65.244 40.2045C65.0787 39.6575 64.7429 39.0747 64.4945 38.5645C61.5222 32.2596 55.0278 30 49.7838 30C42.7639 30 35.0322 34.1548 34 42.7188V44.4684C34 44.5415 34.0285 45.1974 34.069 45.5255C34.6477 49.6069 38.2964 53.9445 41.0214 58.0259C43.9531 62.3986 46.9951 66.7002 50.009 71C51.8674 68.194 53.7192 65.3512 55.5353 62.6179C56.0302 61.8157 56.6048 61.0141 57.1002 60.2484C57.4305 59.7386 58.0614 59.2288 58.3497 58.7545C61.2813 54.017 66 49.2429 66 44.5414V42.6099C66.0001 42.1002 65.2843 40.3144 65.244 40.2045ZM49.9124 48.9878C47.8489 48.9878 45.5902 48.0771 44.4753 45.562C44.3092 45.1616 44.3226 44.3593 44.3226 44.2858V43.156C44.3226 39.9497 47.407 38.4916 50.0903 38.4916C53.3938 38.4916 55.9487 40.8244 55.9487 43.7402C55.9487 46.6558 53.2158 48.9878 49.9124 48.9878Z"/>
</mask>
<path d="M65.244 40.2045C65.0787 39.6575 64.7429 39.0747 64.4945 38.5645C61.5222 32.2596 55.0278 30 49.7838 30C42.7639 30 35.0322 34.1548 34 42.7188V44.4684C34 44.5415 34.0285 45.1974 34.069 45.5255C34.6477 49.6069 38.2964 53.9445 41.0214 58.0259C43.9531 62.3986 46.9951 66.7002 50.009 71C51.8674 68.194 53.7192 65.3512 55.5353 62.6179C56.0302 61.8157 56.6048 61.0141 57.1002 60.2484C57.4305 59.7386 58.0614 59.2288 58.3497 58.7545C61.2813 54.017 66 49.2429 66 44.5414V42.6099C66.0001 42.1002 65.2843 40.3144 65.244 40.2045ZM49.9124 48.9878C47.8489 48.9878 45.5902 48.0771 44.4753 45.562C44.3092 45.1616 44.3226 44.3593 44.3226 44.2858V43.156C44.3226 39.9497 47.407 38.4916 50.0903 38.4916C53.3938 38.4916 55.9487 40.8244 55.9487 43.7402C55.9487 46.6558 53.2158 48.9878 49.9124 48.9878Z" fill="#53D7B7" stroke="#53D7B7" stroke-width="2" mask="url(#path-3-inside-1)"/>
</svg>
