<svg width="32" height="25" viewBox="0 0 32 25" fill="none" xmlns="http://www.w3.org/2000/svg">
<rect width="31.07" height="24.66" fill="black" fill-opacity="0"/>
<rect width="31.07" height="24.66" fill="black" fill-opacity="0"/>
<rect width="31.07" height="24.66" fill="black" fill-opacity="0"/>
<path d="M15.534 4.97797L4.45303 14.0887C4.45303 14.1016 4.44979 14.1205 4.44331 14.1463C4.43697 14.1719 4.43359 14.1904 4.43359 14.2036V23.4292C4.43359 23.7623 4.5557 24.051 4.79985 24.2941C5.04393 24.5373 5.33296 24.6597 5.66702 24.6597H13.067V17.279H18.0011V24.66H25.401C25.735 24.66 26.0244 24.5379 26.2682 24.2941C26.5123 24.0513 26.6348 23.7624 26.6348 23.4292V14.2036C26.6348 14.1525 26.6278 14.1138 26.6154 14.0887L15.534 4.97797Z" fill="#53D7B7"/>
<path d="M30.8557 12.0129L26.6355 8.51477V0.672864C26.6355 0.49359 26.5777 0.34616 26.4617 0.230773C26.3467 0.115521 26.1989 0.0578953 26.0187 0.0578953H22.3186C22.1387 0.0578953 21.9909 0.115521 21.8752 0.230773C21.7597 0.34616 21.702 0.493658 21.702 0.672864V4.42077L16.9998 0.499717C16.5891 0.16655 16.1008 0 15.5355 0C14.9701 0 14.4819 0.16655 14.0708 0.499717L0.214147 12.0129C0.0856949 12.1152 0.0152926 12.2529 0.00219762 12.4259C-0.0108298 12.5988 0.0340575 12.7498 0.136995 12.8779L1.33181 14.3002C1.43475 14.4154 1.56948 14.4859 1.73654 14.5117C1.89077 14.5246 2.04501 14.4797 2.19925 14.3772L15.5351 3.28677L28.871 14.3771C28.974 14.4665 29.1087 14.5112 29.2757 14.5112H29.3336C29.5004 14.4859 29.6349 14.4149 29.7384 14.2999L30.9333 12.8778C31.036 12.7495 31.0811 12.5987 31.0677 12.4257C31.0545 12.2531 30.9839 12.1154 30.8557 12.0129Z" fill="#53D7B7"/>
</svg>
