<?xml version="1.0" encoding="iso-8859-1"?>
<!-- Generator: Adobe Illustrator 19.0.0, SVG Export Plug-In . SVG Version: 6.00 Build 0)  -->
<svg version="1.1" id="Capa_1" xmlns="http://www.w3.org/2000/svg" xmlns:xlink="http://www.w3.org/1999/xlink" x="0px" y="0px"
	 viewBox="0 0 511.998 511.998" style="enable-background:new 0 0 511.998 511.998;" xml:space="preserve">
<g>
	<g>
		<path d="M437.382,214.798c-1.156-3.029-4.172-4.933-7.403-4.671c-3.232,0.261-5.903,2.623-6.558,5.798
			c-1.957,9.489-9.923,35.958-23.112,44.376c-2.19,1.399-3.846,0.121-4.457-0.493c-0.737-0.742-1.777-2.291-0.454-4.338
			c8.335-12.896,13.37-25.8,14.968-38.352c6.982-54.859-30.294-103.08-31.884-105.106c-1.921-2.446-5.182-3.404-8.121-2.391
			c-2.94,1.016-4.912,3.784-4.912,6.895c0,39.887-29.019,73.947-43.542,75.791c-1.635,0.209-3.183,0.404-4.239-3.689
			c-2.396-9.284,3.787-22.079,10.946-36.895c11.851-24.524,26.599-55.044,11.588-90.069C330.11,38.105,312.17,19.977,288.323,9.229
			c-17.921-8.077-32.878-9.17-33.505-9.212c-3.34-0.224-6.387,1.844-7.423,5.02c-1.035,3.177,0.225,6.654,3.051,8.436
			c1.621,1.022,39.473,25.408,20.476,57.861c-7.672,13.107-22.675,23.335-40.046,35.176c-27.774,18.933-59.253,40.392-72.509,82.045
			c-0.545,1.713-1.954,2.212-2.535,2.348c-0.654,0.154-1.914,0.244-3.032-0.916l-0.072-0.075
			c-7.682-8.058,0.965-27.691,4.594-33.923c1.55-2.644,1.282-5.975-0.671-8.337c-1.952-2.361-5.174-3.251-8.062-2.228
			c-0.64,0.227-15.837,5.725-29.932,20.078c-13.054,13.293-27.663,36.961-23.131,74.225c0.285,2.343,0.636,4.675,1.049,6.966
			c-19.12,28.183-29.208,61.061-29.208,95.295c0,93.744,76.266,170.01,170.01,170.01c45.102,0,87.586-17.479,119.626-49.216
			c31.109-30.815,48.877-71.601,50.281-115.207c8.646-6.37,16.157-15.435,22.365-27.005
			C457.437,268.791,438.214,216.978,437.382,214.798z M416.792,313.676c-5.788,10.787-12.735,18.815-20.646,23.861
			c-2.078,1.325-3.347,3.611-3.372,6.076c-0.421,41.173-16.772,79.816-46.041,108.807c-29.29,29.013-68.127,44.992-109.358,44.992
			c-85.698,0-155.419-69.721-155.419-155.419c0-32.256,9.794-63.193,28.324-89.466c1.165-1.651,1.593-3.711,1.181-5.69
			c-0.598-2.875-1.087-5.858-1.452-8.867c-4.497-36.973,12.441-58.08,26.486-68.971c-2.478,10.254-2.635,22.272,5.672,30.984
			c0.008,0.009,0.067,0.071,0.076,0.08l0.098,0.103c4.37,4.536,10.655,6.384,16.806,4.95c6.264-1.462,11.169-5.998,13.122-12.132
			c11.73-36.857,41-56.81,66.824-74.414c18.045-12.301,35.088-23.92,44.42-39.861c10.921-18.657,9.809-38.177-3.217-56.449
			c-0.212-0.297-0.425-0.591-0.639-0.882c1.037,0.43,2.087,0.887,3.149,1.373c20.505,9.375,35.303,24.399,43.984,44.653
			c12.392,28.915-0.202,54.978-11.314,77.974c-8.058,16.676-15.67,32.426-11.938,46.889c2.634,10.202,10.374,15.76,20.206,14.518
			c18.726-2.378,46.037-31.366,54.023-68.939c9.75,17.536,22.036,46.705,18.125,77.432c-1.32,10.369-5.609,21.228-12.748,32.274
			c-4.726,7.312-3.777,16.372,2.361,22.546c6.17,6.207,15.273,7.214,22.654,2.505c9.487-6.056,16.311-17,21.001-27.471
			C431.149,263.162,430.245,288.607,416.792,313.676z"/>
	</g>
</g>
<g>
	<g>
		<path d="M377.136,320.899c-5.346-32.362-22.085-61.995-47.133-83.442c-25.328-21.686-57.663-33.628-91.05-33.628
			c-33.454,0-65.838,11.985-91.189,33.747c-25.075,21.526-41.787,51.251-47.058,83.699c-0.646,3.976,2.054,7.725,6.031,8.371
			c0.396,0.064,0.79,0.095,1.179,0.095c3.514,0,6.61-2.546,7.192-6.127c4.72-29.055,19.692-55.679,42.16-74.966
			c22.706-19.492,51.716-30.227,81.685-30.227c29.91,0,58.875,10.697,81.56,30.121c22.444,19.216,37.44,45.757,42.228,74.736
			c0.656,3.975,4.409,6.663,8.387,6.008C375.103,328.63,377.793,324.875,377.136,320.899z"/>
	</g>
</g>
<g>
	<g>
		<path d="M369.81,367.631c-3.922-0.934-7.853,1.49-8.785,5.41c-6.417,26.981-21.952,51.444-43.743,68.879
			c-22.44,17.956-49.526,27.447-78.329,27.447c-28.864,0-55.994-9.527-78.458-27.549c-21.817-17.504-37.334-42.047-43.692-69.107
			c-0.921-3.921-4.847-6.356-8.771-5.433c-3.922,0.921-6.355,4.848-5.434,8.771c7.1,30.217,24.418,57.616,48.765,77.149
			c24.723,19.836,55.829,30.76,87.589,30.76c31.693,0,62.749-10.883,87.445-30.645c24.317-19.457,41.656-46.766,48.821-76.896
			C376.151,372.497,373.73,368.564,369.81,367.631z"/>
	</g>
</g>
<g>
	<g>
		<path d="M202.384,266.799c-3.131,0-6.262,1.125-6.262,3.773v19.669h-15.976v-19.669c0-2.648-3.131-3.773-6.262-3.773
			c-3.131,0-6.262,1.125-6.262,3.773v51.06c0,2.57,3.131,3.854,6.262,3.854c3.131,0,6.262-1.284,6.262-3.854v-21.757h15.976v21.757
			c0,2.57,3.131,3.854,6.262,3.854s6.262-1.284,6.262-3.854v-51.06C208.646,267.924,205.515,266.799,202.384,266.799z"/>
	</g>
</g>
<g>
	<g>
		<path d="M242.445,266.799c-11.079,0-19.669,5.138-19.669,18.947v21.274c0,13.809,8.591,18.947,19.669,18.947
			c11.079,0,19.75-5.138,19.75-18.947v-21.274C262.194,271.938,253.524,266.799,242.445,266.799z M249.67,307.021
			c0,5.54-2.73,8.029-7.226,8.029c-4.496,0-7.145-2.489-7.145-8.029v-21.274c0-5.54,2.649-8.029,7.145-8.029
			c4.496,0,7.226,2.489,7.226,8.029V307.021z"/>
	</g>
</g>
<g>
	<g>
		<path d="M310.204,266.799h-34.682c-2.649,0-3.774,2.89-3.774,5.54c0,3.05,1.365,5.699,3.774,5.699h11.079v43.594
			c0,2.57,3.131,3.854,6.262,3.854c3.131,0,6.262-1.284,6.262-3.854v-43.594h11.079c2.409,0,3.773-2.649,3.773-5.699
			C313.978,269.689,312.853,266.799,310.204,266.799z"/>
	</g>
</g>
<g>
	<g>
		<path d="M165.094,348.615h-14.21c-3.292,0-5.459,1.766-5.459,3.774v51.14c0,2.006,2.168,3.773,5.459,3.773h14.21
			c11.079,0,19.75-5.138,19.75-18.947v-20.793C184.844,353.753,176.174,348.615,165.094,348.615z M172.319,388.355
			c0,5.46-2.73,8.029-7.226,8.029h-7.145v-36.85h7.145c4.497-0.001,7.226,2.568,7.226,8.028V388.355z"/>
	</g>
</g>
<g>
	<g>
		<path d="M232.933,396.383h-21.516v-13.648h12.042c2.649,0,3.774-2.569,3.774-4.736c0-2.569-1.365-4.898-3.774-4.898h-12.042
			v-13.568h21.516c2.409,0,3.773-2.57,3.773-5.539c0-2.57-1.124-5.379-3.773-5.379h-28.581c-2.729,0-5.459,1.285-5.459,3.853v50.979
			c0,2.57,2.73,3.854,5.459,3.854h28.581c2.649,0,3.773-2.81,3.773-5.378C236.706,398.952,235.341,396.383,232.933,396.383z"/>
	</g>
</g>
<g>
	<g>
		<path d="M290.735,401.281l-15.013-48.973c-0.883-2.81-4.495-4.175-8.189-4.175c-3.692,0-7.305,1.365-8.188,4.175l-14.933,48.973
			c-0.08,0.321-0.161,0.642-0.161,0.883c0,2.97,4.576,5.138,8.028,5.138c2.007,0,3.613-0.642,4.095-2.328l2.73-10.036h16.94
			l2.73,10.036c0.482,1.686,2.087,2.328,4.094,2.328c3.452,0,8.028-2.168,8.028-5.138
			C290.896,401.924,290.816,401.603,290.735,401.281z M261.673,385.303l5.86-21.516l5.861,21.516H261.673z"/>
	</g>
</g>
<g>
	<g>
		<path d="M332.481,396.384h-18.304v-43.994c0-2.652-3.131-3.775-6.262-3.775c-3.131,0-6.262,1.124-6.262,3.774v51.059
			c0,2.57,2.73,3.854,5.459,3.854h25.369c2.409,0,3.612-2.73,3.612-5.459S334.889,396.384,332.481,396.384z"/>
	</g>
</g>
<g>
</g>
<g>
</g>
<g>
</g>
<g>
</g>
<g>
</g>
<g>
</g>
<g>
</g>
<g>
</g>
<g>
</g>
<g>
</g>
<g>
</g>
<g>
</g>
<g>
</g>
<g>
</g>
<g>
</g>
</svg>
