<?xml version="1.0" encoding="UTF-8"?>
<!DOCTYPE svg PUBLIC "-//W3C//DTD SVG 1.1//EN" "http://www.w3.org/Graphics/SVG/1.1/DTD/svg11.dtd">
<!-- Creator: CorelDRAW 2017 -->
<svg xmlns="http://www.w3.org/2000/svg" xml:space="preserve" width="140.224mm" height="114.723mm" version="1.1" style="shape-rendering:geometricPrecision; text-rendering:geometricPrecision; image-rendering:optimizeQuality; fill-rule:evenodd; clip-rule:evenodd"
viewBox="0 0 1391.68 1138.59"
 xmlns:xlink="http://www.w3.org/1999/xlink">
 <defs>
  <style type="text/css">
   <![CDATA[
    .str0 {stroke:#2B2A29;stroke-width:1.98;stroke-miterlimit:22.9256}
    .fil2 {fill:#FEFEFE}
    .fil0 {fill:#2B2A29}
    .fil1 {fill:#FEFEFE;fill-rule:nonzero}
    .fil3 {fill:#2B2A29;fill-rule:nonzero}
   ]]>
  </style>
 </defs>
 <g id="Layer_x0020_1">
  <metadata id="CorelCorpID_0Corel-Layer"/>
  <g id="_2172686462960">
   <rect class="fil0 str0" x="0.99" y="0.99" width="1389.69" height="1136.61" rx="170.26" ry="170.26"/>
   <g>
    <path class="fil1" d="M980.87 731.65c-17.26,-88.39 -49.39,-168.66 10.75,-236.89 2.12,-2.39 7.15,-6.03 7.15,-6.03l-68.36 -122.33c-241.35,-90.4 -472.24,-1.11 -472.24,-1.11l-65.26 124.52c0,0 5.07,3.63 7.16,6.03 141.05,163.29 -207.96,300.18 297.91,541.7 108.84,-54.14 314.41,-145.62 282.88,-305.9z"/>
    <path class="fil2" d="M613.68 247.47l0.06 12.82c6,0.84 12.13,0.84 18.07,0.16l-1.48 -5.46c-6,-1.01 -11.7,-3.71 -16.64,-7.52zm0.09 18.61l0.02 4.21c28.13,-7.19 56.36,-10.59 84.61,-10.28l-0.01 -2.23 -0.21 0.09 -2.36 0.95 0.52 0.73 -1.17 -0.46 -1.17 0.48 0.51 -0.73 -2.37 -0.93c-5.94,-2.34 -10.74,-5.83 -15.84,-9.55 -2.36,-1.72 -6.88,-5.26 -9.97,-4.89 -1.15,0.13 -2.08,0.74 -2.88,1.53 -2.85,8.08 -7.13,12.63 -14.74,16.44l0.23 0.86c-1.58,0.24 -3.15,0.48 -4.73,0.73l-4.21 -15.5 -6.3 1.72 4.09 14.9c-3.42,0.64 -6.84,1.31 -10.24,2.04l-0.1 0.02 -0.09 0.01c-4.77,0.34 -9.26,0.34 -13.56,-0.11zm0.05 11.18l0.18 38.33c26.8,-3.1 54.03,-5.1 81.27,-5.14 1.12,-0 2.24,0 3.36,0.01l-0.2 -44.01c-28.26,-0.04 -56.51,3.58 -84.61,10.81zm84.55 -23.94l-0.12 -26.79c-1.54,-2.95 -2.55,-6.22 -3.29,-9.54 -1.44,6.75 -4.01,13.31 -9.82,17.46 -0.93,1.63 -1.58,3.39 -1.41,5.3 0.22,2.37 1.68,4.7 3,6.61 2.23,3.22 4.73,6.29 7,9.51l1.43 2.02 1.41 -2.04c0.59,-0.85 1.19,-1.69 1.81,-2.53zm-0.17 -37.43l-0 -0.59 -0.23 0 0.23 0.59zm-0.02 -5.21l-0.03 -5.93 -17.66 0.08 0.03 5.93 17.65 -0.08zm-0.12 -25.84l-0.11 -24.12c-10.38,1.64 -22.14,-4.45 -22.21,-18.33 -0.06,-13.9 11.64,-20.11 22.04,-18.56l-0.08 -17.99c-1.1,-1.59 -2.19,-3.19 -3.26,-4.8l0 0c-3,4.62 -6.16,9.11 -9.39,13.58 -3,4.15 -6.08,8.27 -8.99,12.5 -3.9,5.68 -8.51,12.86 -8.74,19.96 -0.13,4.09 1.16,7.84 3.22,11.32 2.54,1.72 5,3.56 7.3,5.6 10.5,9.32 14.87,21.04 17.04,34.4 0.73,-4.73 1.73,-9.26 3.18,-13.56zm-0.15 -32.37l-0.09 -20.36c-1.02,-0.32 -2.11,-0.49 -3.23,-0.48l0 0c-5.89,0.03 -10.66,4.83 -10.63,10.73 0.03,5.9 4.83,10.65 10.73,10.62 1.13,-0 2.21,-0.18 3.23,-0.51zm-48.82 -5.03c5.17,-0.02 9.39,4.15 9.41,9.32 0.02,5.17 -4.15,9.39 -9.33,9.41 -5.17,0.02 -9.38,-4.15 -9.41,-9.33 -0.02,-5.17 4.15,-9.39 9.32,-9.41l0 -0zm-2.64 105.7c1.38,-2.72 2.37,-5.67 2.73,-8.7 0.84,-6.8 -1.73,-13.87 -7.31,-17.53 5.8,-0.31 11.85,1.08 14.88,6.49 2.22,3.95 1.99,8.81 0.47,12.97 -1.77,4.83 -5.22,8.89 -9.4,11.84l-1.37 -5.07zm-18.99 -64.33c0.99,-7.76 3.28,-15.85 7.97,-21.96 3.19,4.36 8.29,6.97 13.78,6.95 7.73,-0.04 14.39,-5.28 16.34,-12.6 6.09,3.23 11.17,8.35 14.98,14.03 5,7.45 8.04,16.12 9.45,24.95l-5.15 0.02c-9.69,-20.64 -42.67,-30.16 -57.37,-11.39l0 -0zm64.47 26.53c-5.98,16.5 -25.32,20.76 -29.47,2.59 4.71,4 11.66,4.51 17.55,2.07 2.64,-1.09 5.06,-2.71 7.16,-4.64l4.76 -0.02zm-162.45 -10.22l0.01 3.16c5.69,-2.53 12,-3.13 18.22,-0.84 -3.56,-4.52 -7.86,-8.74 -12.81,-11.48 -0.79,3.64 -2.74,6.81 -5.42,9.16zm0.22 47.57l0.04 8.4c0.87,-0.46 1.68,-1.04 2.41,-1.74 3.51,-3.41 3.49,-8.26 2.18,-12.67 -0.93,2.41 -2.57,4.45 -4.63,6.02zm0.12 25.1l0.07 15.99 1.26 2.16 0 0c0.14,-4.62 0.12,-9.38 -0.49,-13.86 -0.19,-1.38 -0.45,-2.84 -0.85,-4.29zm84.2 37.82l-0.18 -38.33c-25.14,6.47 -50.15,15.8 -74.95,27.98l8.2 20.03c21.83,-3.65 44.23,-7.06 66.93,-9.68zm-0.21 -45.3l-0.02 -4.21c-8.79,-0.92 -16.79,-3.71 -24.77,-9.32 -3.04,1.98 -6.56,3.03 -10.21,3.04 -4.27,0.02 -8.37,-1.39 -11.71,-4l0 0c-5.18,4.48 -9.76,12.04 -13.34,17.65 -6.05,9.47 -11.99,18.48 -19.46,26.95l-0.16 0.19 -0.16 0.09 0.06 0.11 -0.02 0.02 0.12 0.2c26.41,-13.69 52.99,-23.91 79.67,-30.73zm-0.05 -10l-0.06 -12.82c-14.9,-11.49 -22.89,-33.04 -11.29,-48.4l0 0c-10.61,4.45 -21.74,11.81 -24.94,23 0.39,-0.03 0.78,-0.04 1.17,-0.04 10.43,-0.05 18.93,8.37 18.98,18.8 0.02,4.57 -1.6,8.95 -4.55,12.38 6.29,3.8 13.39,6.06 20.69,7.08zm-35.09 -30.05c5.9,-0.03 10.7,4.73 10.73,10.62 0.03,5.9 -4.73,10.7 -10.63,10.73 -5.89,0.03 -10.7,-4.73 -10.73,-10.63 -0.03,-5.89 4.74,-10.69 10.63,-10.72l0 -0zm-48.78 63.51l-0.07 -15.99c-0.74,-2.72 -1.95,-5.36 -3.98,-7.18 -0.47,-0.43 -0.99,-0.8 -1.53,-1.13 -4.5,-0.4 -8.3,-2.43 -11.61,-5.19l17.2 29.49zm-0.15 -32.69l-0.04 -8.4c-2.27,1.72 -5.05,2.86 -7.98,3.28 -2.53,0.36 -5.14,0.21 -7.63,-0.32l-3.48 2.03 0 0c3.22,2.61 7.13,4.43 11.29,4.8 2.66,0.24 5.47,-0.15 7.84,-1.39zm-0.25 -52.8l-0.01 -3.16c-2.98,2.6 -6.87,4.17 -11.09,4.19 -4.7,0.02 -9.14,-1.89 -12.34,-5.23 -3.13,5.21 -4.67,11.38 -5.02,17.4 -0.46,7.96 1.12,15.96 4.01,23.37l3.76 -2.2 0 0c-1.27,-13.94 8.2,-28.81 20.69,-34.37zm-11.23 -25.32c5.17,-0.02 9.39,4.15 9.41,9.33 0.02,5.17 -4.15,9.38 -9.33,9.41 -5.17,0.02 -9.39,-4.15 -9.41,-9.32 -0.02,-5.18 4.15,-9.39 9.33,-9.41l0 -0zm-43.08 9.66c5.9,-0.03 10.7,4.73 10.73,10.63 0.03,5.89 -4.73,10.7 -10.63,10.73 -5.89,0.03 -10.7,-4.73 -10.73,-10.63 -0.03,-5.9 4.74,-10.69 10.63,-10.72l-0 -0zm39.18 51.91l2.53 4.36 -9.86 5.75 -2.52 -4.36 9.86 -5.75zm-16.58 -5.75l-11.68 -20.03c5.03,-3.54 8.05,-9.32 8.03,-15.55 -0.05,-10.43 -8.55,-18.85 -18.98,-18.8 -2.79,0.01 -5.52,0.63 -8.02,1.83l-8.49 -14.55c3.66,1.77 7.36,3.44 11.09,5.08 4.21,1.84 8.47,3.63 12.63,5.57 5.58,2.6 12.39,6.05 15.79,11.4 1.96,3.08 2.65,6.52 2.65,10.12 -1.17,2.48 -2.23,5.02 -3.07,7.63 -3.08,9.49 -2.51,18.39 0.05,27.3l0 0zm278.97 8.03l0.06 12.82c-5.99,0.89 -12.12,0.95 -18.06,0.33l1.43 -5.48c5.99,-1.06 11.67,-3.82 16.57,-7.68zm0.09 18.61l0.02 4.21c-28.19,-6.93 -56.46,-10.06 -84.7,-9.5l-0.01 -2.23 0.21 0.08 2.37 0.93 -0.51 0.74 1.17 -0.48 1.18 0.46 -0.52 -0.73 2.36 -0.95c5.92,-2.39 10.69,-5.93 15.76,-9.7 2.34,-1.74 6.84,-5.32 9.92,-4.98 1.15,0.12 2.09,0.72 2.9,1.5 2.93,8.05 7.25,12.56 14.9,16.3l-0.22 0.86c1.58,0.22 3.16,0.45 4.73,0.69l4.07 -15.54 6.32 1.66 -3.95 14.93c3.43,0.61 6.85,1.25 10.26,1.95l0.1 0.02 0.09 0.01c4.77,0.3 9.26,0.26 13.56,-0.23zm0.05 11.18l0.18 38.33c-26.83,-2.85 -54.08,-4.6 -81.32,-4.39 -1.12,0.01 -2.24,0.02 -3.36,0.04l-0.2 -44.01c28.25,-0.31 56.54,3.06 84.71,10.03zm-84.77 -23.16l-0.12 -26.79c1.51,-2.97 2.49,-6.25 3.2,-9.57 1.5,6.74 4.13,13.28 9.98,17.37 0.95,1.62 1.61,3.38 1.46,5.29 -0.2,2.37 -1.64,4.71 -2.94,6.64 -2.2,3.24 -4.67,6.33 -6.91,9.57l-1.41 2.03 -1.43 -2.02c-0.6,-0.85 -1.21,-1.68 -1.83,-2.51zm-0.17 -37.43l-0 -0.59 0.23 -0 -0.22 0.59zm-0.02 -5.21l-0.03 -5.93 17.66 -0.08 0.03 5.93 -17.65 0.08zm-0.12 -25.84l-0.11 -24.12c10.4,1.54 22.1,-4.65 22.04,-18.53 -0.06,-13.9 -11.82,-20 -22.21,-18.36l-0.08 -17.99c1.09,-1.6 2.16,-3.21 3.22,-4.83l0 0c3.05,4.59 6.25,9.06 9.52,13.49 3.04,4.12 6.16,8.21 9.1,12.41 3.95,5.64 8.63,12.78 8.92,19.88 0.17,4.09 -1.09,7.85 -3.11,11.35 -2.52,1.75 -4.97,3.61 -7.25,5.67 -10.41,9.42 -14.68,21.18 -16.73,34.56 -0.77,-4.73 -1.82,-9.25 -3.31,-13.53zm-0.15 -32.37l-0.09 -20.36c1.02,-0.33 2.1,-0.51 3.23,-0.51l0 0c5.89,-0.03 10.7,4.73 10.73,10.63 0.03,5.9 -4.74,10.69 -10.63,10.72 -1.12,0 -2.21,-0.16 -3.23,-0.48zm48.78 -5.49c-5.17,0.02 -9.35,4.24 -9.33,9.41 0.02,5.17 4.24,9.35 9.41,9.33 5.17,-0.02 9.34,-4.24 9.32,-9.41 -0.02,-5.17 -4.23,-9.35 -9.41,-9.32l0 -0zm3.62 105.67c-1.4,-2.71 -2.43,-5.65 -2.81,-8.68 -0.9,-6.8 1.6,-13.89 7.15,-17.59 -5.8,-0.25 -11.84,1.19 -14.82,6.63 -2.19,3.97 -1.91,8.83 -0.36,12.97 1.81,4.82 5.3,8.84 9.51,11.75l1.33 -5.08zm18.39 -64.51c-1.07,-7.75 -3.43,-15.82 -8.17,-21.89 -3.16,4.39 -8.22,7.05 -13.71,7.08 -7.73,0.03 -14.44,-5.15 -16.45,-12.45 -6.06,3.29 -11.09,8.45 -14.85,14.17 -4.93,7.5 -7.89,16.19 -9.22,25.04l5.15 -0.02c9.5,-20.73 42.39,-30.55 57.26,-11.92l0 -0zm-64.22 27.12c6.13,16.44 25.51,20.52 29.49,2.32 -4.68,4.05 -11.62,4.61 -17.53,2.23 -2.65,-1.07 -5.08,-2.67 -7.2,-4.58l-4.76 0.02zm162.35 -11.73l0.01 3.16c-5.71,-2.48 -12.03,-3.02 -18.23,-0.67 3.52,-4.56 7.77,-8.81 12.7,-11.6 0.82,3.63 2.8,6.79 5.51,9.11zm0.22 47.57l0.04 8.4c-0.88,-0.45 -1.69,-1.02 -2.42,-1.72 -3.54,-3.38 -3.56,-8.23 -2.3,-12.65 0.96,2.4 2.61,4.43 4.68,5.97zm0.12 25.1l0.07 15.99 -1.24 2.17 0 0c-0.18,-4.62 -0.21,-9.38 0.36,-13.86 0.18,-1.38 0.43,-2.85 0.8,-4.29zm-83.84 38.6l-0.18 -38.33c25.19,6.23 50.3,15.34 75.21,27.28l-8.02 20.11c-21.87,-3.45 -44.29,-6.65 -67.01,-9.06zm-0.21 -45.3l-0.02 -4.21c8.78,-1 16.76,-3.87 24.68,-9.55 3.06,1.95 6.59,2.97 10.24,2.95 4.27,-0.02 8.35,-1.47 11.67,-4.11l0 0c5.22,4.43 9.87,11.95 13.5,17.53 6.14,9.41 12.17,18.37 19.71,26.77l0.17 0.19 0.17 0.09 -0.06 0.11 0.02 0.02 -0.12 0.2c-26.53,-13.45 -53.21,-23.42 -79.95,-29.99zm-0.05 -10l-0.06 -12.82c14.79,-11.63 22.58,-33.25 10.84,-48.51l0 0c10.66,4.35 21.85,11.61 25.15,22.77 -0.39,-0.02 -0.78,-0.03 -1.17,-0.03 -10.43,0.05 -18.85,8.55 -18.8,18.98 0.02,4.57 1.68,8.93 4.66,12.34 -6.25,3.85 -13.33,6.18 -20.63,7.27zm34.81 -30.37c-5.9,0.03 -10.66,4.83 -10.63,10.72 0.03,5.9 4.83,10.66 10.73,10.63 5.89,-0.03 10.65,-4.83 10.63,-10.73 -0.03,-5.89 -4.83,-10.65 -10.73,-10.62l0 -0zm49.36 63.06l-0.07 -15.99c0.72,-2.73 1.9,-5.38 3.91,-7.22 0.47,-0.43 0.98,-0.81 1.52,-1.14 4.49,-0.44 8.27,-2.51 11.57,-5.3l-16.93 29.65zm-0.15 -32.69l-0.04 -8.4c2.28,1.7 5.08,2.82 8.01,3.2 2.53,0.33 5.14,0.16 7.63,-0.39l3.5 1.99 -0 0c-3.2,2.64 -7.09,4.5 -11.24,4.91 -2.66,0.26 -5.47,-0.1 -7.85,-1.32zm-0.24 -52.8l-0.01 -3.16c3,2.57 6.91,4.11 11.13,4.09 4.7,-0.02 9.12,-1.97 12.29,-5.35 3.18,5.18 4.78,11.33 5.18,17.35 0.53,7.96 -0.97,15.97 -3.79,23.4l-3.78 -2.16 -0 0c1.14,-13.95 -8.46,-28.73 -21.01,-34.17zm10.99 -25.43c-5.17,0.02 -9.35,4.24 -9.33,9.41 0.02,5.17 4.24,9.35 9.41,9.32 5.17,-0.02 9.35,-4.24 9.33,-9.41 -0.02,-5.18 -4.24,-9.35 -9.41,-9.33l0 -0zm43.17 9.26c-5.9,0.03 -10.66,4.83 -10.63,10.72 0.03,5.89 4.83,10.65 10.73,10.63 5.89,-0.03 10.66,-4.83 10.63,-10.73 -0.03,-5.9 -4.83,-10.65 -10.73,-10.62l0 -0zm-38.7 52.27l-2.49 4.38 9.92 5.66 2.48 -4.38 -9.91 -5.66zm16.53 -5.9l11.5 -20.14c-5.06,-3.49 -8.14,-9.24 -8.17,-15.47 -0.05,-10.43 8.38,-18.93 18.8,-18.98 2.79,-0.01 5.52,0.58 8.04,1.75l8.36 -14.63c-3.64,1.8 -7.33,3.51 -11.04,5.18 -4.2,1.88 -8.43,3.7 -12.58,5.69 -5.55,2.65 -12.34,6.16 -15.69,11.55 -1.93,3.1 -2.59,6.55 -2.56,10.15 1.19,2.47 2.28,5 3.14,7.6 3.16,9.46 2.68,18.36 0.2,27.3l0 0z"/>
    <path class="fil3" d="M962.67 492.23l-60.65 -106.43c-221.67,-81.8 -416.63,-0.93 -416.63,-0.93l-56 108.51c0,0 4.47,3.05 6.31,5.08 124.59,137.68 -201.12,303.67 261.46,510.58 465.22,-205.97 133.71,-375.81 259.2,-511.73 1.86,-2.01 6.31,-5.08 6.31,-5.08z"/>
    <path class="fil1" d="M798.78 836.79c-1.81,-1.8 -3.52,-3.7 -5.14,-5.68 -1.62,-2 -3.43,-4.34 -5.41,-7.05 -1.98,-2.7 -4.43,-6.14 -7.3,-10.28 -2.89,-4.16 -6.32,-9.3 -10.3,-15.44 -6.14,-9.38 -12.64,-19.85 -19.5,-31.4 -6.86,-11.55 -13.89,-23.1 -21.12,-34.65 -4.33,-6.86 -9.48,-14.98 -15.43,-24.37 -5.96,-9.39 -12.46,-18.6 -19.5,-27.62 -7.05,-9.03 -14.53,-17.15 -22.47,-24.37 -7.95,-7.23 -15.89,-12.28 -23.83,-15.17l0 -5.41c11.19,-3.96 23.38,-12.36 36.56,-25.17 13.18,-12.82 25.62,-27.35 37.37,-43.59 11.73,-16.25 21.75,-32.85 30.05,-49.82 8.3,-16.96 13,-31.58 14.08,-43.86l47.65 0c-2.16,5.05 -4.15,9.66 -5.96,13.81 -1.81,4.15 -3.7,8.21 -5.68,12.18 -1.98,3.98 -4.16,8.21 -6.5,12.73 -2.34,4.51 -5.14,9.66 -8.39,15.44 -5.41,9.38 -11.1,19.03 -17.06,28.96 -5.95,9.92 -12.27,19.41 -18.94,28.43 -6.68,9.02 -13.55,17.42 -20.58,25.17 -7.03,7.77 -13.99,14.17 -20.85,19.23l0 1.62c8.3,5.79 15.8,12.28 22.48,19.5 6.68,7.23 13.53,15.8 20.58,25.72 7.04,9.93 14.62,21.48 22.74,34.65 8.12,13.18 17.96,28.44 29.51,45.76 12.27,18.42 22.92,34.11 31.94,47.11 9.03,13 17.69,24.19 25.99,33.58l-64.98 0zm-211.73 0l0 -223.1c0,-23.83 -0.63,-47.38 -1.89,-70.68 -1.26,-23.28 -3.88,-46.65 -7.85,-70.12l61.2 0c-0.73,31.77 -1.53,63.09 -2.44,93.96 -0.89,30.87 -1.34,62.18 -1.34,93.96 0,29.24 0.45,58.57 1.34,87.99 0.91,29.42 3.34,58.75 7.32,87.99l-56.32 0z"/>
   </g>
  </g>
 </g>
</svg>
