<?xml version="1.0" encoding="UTF-8"?>
<!DOCTYPE svg PUBLIC "-//W3C//DTD SVG 1.1//EN" "http://www.w3.org/Graphics/SVG/1.1/DTD/svg11.dtd">
<!-- Creator: CorelDRAW 2017 -->
<svg xmlns="http://www.w3.org/2000/svg" xml:space="preserve" width="140.224mm" height="114.723mm" version="1.1" style="shape-rendering:geometricPrecision; text-rendering:geometricPrecision; image-rendering:optimizeQuality; fill-rule:evenodd; clip-rule:evenodd"
viewBox="0 0 2499.46 2044.92"
 xmlns:xlink="http://www.w3.org/1999/xlink">
 <defs>
  <style type="text/css">
   <![CDATA[
    .str0 {stroke:#2B2A29;stroke-width:3.56;stroke-miterlimit:22.9256}
    .fil1 {fill:#FEFEFE}
    .fil0 {fill:#2B2A29}
    .fil3 {fill:#FEFEFE;fill-rule:nonzero}
    .fil2 {fill:#FEFEFE;fill-rule:nonzero}
   ]]>
  </style>
 </defs>
 <g id="Layer_x0020_1">
  <metadata id="CorelCorpID_0Corel-Layer"/>
  <rect class="fil0 str0" x="1.78" y="1.78" width="2495.9" height="2041.35" rx="305.79" ry="305.79"/>
  <g id="_2172705727264">
   <path class="fil1" d="M1282.68 636.66l-120.3 0 -23.72 65.38 -53.41 0 109.12 -280.13 56.27 0 112.18 280.13 -55.02 0 -25.12 -65.38zm229.47 0l-84.18 0 -1.06 -1.12 -3.86 0 -0.17 115.03 -46.08 0 0 -113.9 -29.49 0 -16.34 -40.84 45.83 0 0 -48.95 0.22 -0.19 0 -36.68 149.12 0 0 39.04 -103.08 0 0 46.79 89.11 0 0 40.84zm-441.33 75.09l107 0 0 38.81 -152.99 0 0 -239.9 45.99 0 0 201.09zm196.08 -115.93l-45.16 -121.59 -44.24 121.59 89.4 0z"/>
   <path class="fil1" d="M1640.89 1396.81c17.74,-23.56 37.55,-4.83 61.5,-54.21 8.9,-18.38 33.02,-63.18 51.55,-67.99 -4.67,54.52 -54.9,120.95 -113.06,122.21zm-273.6 -358.5c5.68,-18.39 22.36,-38.38 22.36,-52.92 0,-4.07 0,-8.15 0,-12.22 0,-12.37 -7.26,-13.82 -16.76,-16.28 2.93,-10.05 7.77,-11.15 10.51,-15.45 4.16,-6.53 2.44,-13.19 -4.71,-16.37 -5.73,-2.55 -13.73,-3.8 -18.35,-4.84 13.14,-25.34 12.19,-29.98 -11.65,-46.4 1.29,-7.54 3.29,-7.77 3.29,-18.78 0,-14.05 -30.95,-16.96 -40.59,-17.59 -10.22,-0.67 -20.45,-1.35 -30.67,-2.02 2.3,5.72 1.31,11.18 7.19,16.26 10.68,9.22 14.74,33.35 13.82,34.7 3.6,5.79 7.38,10.97 9.48,17.4 4.25,12.98 11.45,15.87 11.45,24.58 0,2.71 0,5.43 0,8.14 0.35,17.71 0.7,35.42 1.05,53.14 4.37,19.9 -31.08,32.41 -55.47,32.41 -12.56,0 -8.66,0.43 -21.23,0.43 1.07,0.99 -14.32,1.54 -13.26,2.53 -22.37,23.05 -44.73,46.1 -67.1,69.15 -0.26,-2.07 -0.51,-4.14 -0.77,-6.22 -5.78,-3.79 -11.57,-7.58 -17.35,-11.37 -1.68,2.02 -3.36,4.04 -5.04,6.06 8.68,7.69 17.36,15.37 26.03,23.06 16.16,-4.8 32.31,-9.6 48.47,-14.4 5.58,-5.43 11.16,-10.85 16.74,-16.28 3.48,-4.67 6.95,-9.34 10.43,-14.01 -0.68,4.67 -1.36,9.34 -2.04,14.01 -6.98,8.15 -13.97,16.29 -20.95,24.44 -6.03,22.03 -72.54,76.71 -93.16,96.74 -16.06,15.63 -34.05,30.23 -45.99,48.94 -10.53,16.46 -15.81,53.14 -28.33,62.06 1.84,-80.21 100.49,-139.25 100.49,-162.95 0,-4.94 -18.79,-16.3 -25.12,-16.3 -8.49,0 -24.55,32.91 -31.77,42.43 -9.28,12.28 -23.68,28.96 -34.12,40.13 -28.45,30.39 -38.77,87.72 -51.36,96.69 0.53,-23.44 21.01,-79 30.62,-96.49 11.87,-21.63 11.43,-12.28 20.22,-41.43 3.98,-13.14 6.41,-38.18 11.97,-49.46 -22.81,-12.91 -46.35,49.44 -52.72,75 -9.69,38.95 -35.21,42.93 -35.21,96.09 0,8.15 0,16.29 0,24.44 -18.06,-6.35 -9.42,-16.78 -20.28,-25.08 -13.08,-9.99 -12.74,3.29 -25.78,-15.66 -0.44,-1.32 -0.88,-2.63 -1.33,-3.95 11.32,-3.61 22.64,-7.22 33.97,-10.83 5.52,-14.41 30.17,-46.48 30.17,-70.76 0,-2.71 0,-5.43 0,-8.14 0,-58.89 -50.45,-150.71 -108.86,-150.71 -1.4,0 -2.79,0 -4.19,0 -20.69,0 -37.69,16.51 -37.69,36.64 0,7.89 20.93,32.56 20.93,65.18 1.54,13.57 3.09,27.15 4.63,40.72 0.3,20.32 37.79,28.87 49.81,44.82 -11.04,5.33 3.44,4.08 -12.56,4.08 -1.4,0 -2.79,0 -4.19,0 -2.79,0 -5.58,0 -8.37,0 -4.23,-6.76 -8.47,-13.52 -12.7,-20.28 -6.93,2.69 -13.86,5.38 -20.79,8.06 -10.15,29.73 -16.92,-50.42 -16.78,-65.16 0.3,-30 -7.36,-65.2 -33.47,-65.2 -4.19,0 -8.37,0 -12.56,0 -12.86,0 -25.12,3.77 -25.12,16.3 0,12.64 12.46,18.8 16.74,36.66 -8.47,-4.35 -24.67,-16.3 -33.49,-16.3 -5.88,0 -8.37,5.56 -8.37,12.22 0,1.36 0,2.72 0,4.08 0,47.17 54.7,103.87 58.62,118.12 -21.76,-5.64 -49.32,-43.59 -61.98,-61.91 -19.15,-27.69 -34.32,-45.44 -34.32,-88.79 -29.61,-15.24 -25.12,-5.62 -25.12,28.5 -4.09,-1.61 -8.18,-3.22 -12.27,-4.83 -1.85,9.71 -3.71,19.41 -5.56,29.12 -2.99,-12.08 -5.97,-24.16 -8.96,-36.24 -6.13,-3.41 -12.27,-6.83 -18.4,-10.24 -0.89,99.38 36.62,95.26 49.36,148.47 2.8,0 5.59,0 8.39,0 1.66,-16.26 3.32,-32.52 4.99,-48.79 2.53,-0.03 5.05,-0.06 7.58,-0.09 11.17,23.08 22.33,46.16 33.49,69.24 11.46,11.94 22.92,23.88 34.38,35.82 -8.63,-1.28 -17.25,-2.55 -25.88,-3.83 -0.04,4.28 -0.09,8.56 -0.14,12.84 0,19.01 16.18,40.72 37.69,40.72 4.19,0 8.37,0 12.56,0 1.47,-0.89 2.93,-1.78 4.39,-2.68 -8.27,-12.79 -16.54,-25.58 -24.81,-38.37 9.6,6.9 19.2,13.79 28.8,20.69 30.17,12.18 60.34,24.36 90.5,36.55 1.78,-1.93 3.55,-3.85 5.32,-5.77 -8.66,-16.83 -17.33,-33.65 -25.99,-50.48 8.9,4.25 8.7,7.49 18.1,7.49 10.78,0 12.56,-20.03 12.56,-32.58 6.35,15.14 12.7,30.28 19.05,45.42 9.07,0.69 18.13,1.38 27.2,2.08 -4.95,18.67 -8.57,8.51 -8.57,21.75 0,2.71 0,5.43 0,8.14 0,34.79 39.52,57.04 66.98,57.04 30.86,0 100.49,-30.6 100.49,-52.96 0,-13.58 0,-27.16 0,-40.74 12.34,-4.54 24.68,-9.08 37.01,-13.63 0.22,4.54 0.45,9.08 0.67,13.63 0,7.87 1.33,7.25 4.19,12.22 1.19,1.01 2.38,2.03 3.56,3.04 11.09,-12.28 22.18,-24.56 33.28,-36.83 -1.12,-0.96 -2.23,-1.91 -3.34,-2.87 -2.79,0 -5.58,0 -8.37,0 1.56,-5.38 3.13,-10.75 4.69,-16.13 -7.4,-3.66 -14.81,-7.31 -22.22,-10.97 29.2,-2.02 63.58,-31.37 63.58,-50.29 0,-1.36 0,-2.72 0,-4.08 0,-11.66 -16.76,-19.21 -16.76,-40.74 0,-5.43 0,-10.85 0,-16.28 0,-15.36 21.82,-30.66 33.51,-36.66 -7.95,18.6 -15.9,37.2 -23.86,55.79 9.34,0.41 18.69,0.82 28.03,1.23 25.72,0 29.32,-33.26 29.32,-61.1 25.49,-26.11 67.56,-59.51 78.13,-93.73zm1.43 17.85c0,6.29 0,12.57 0,18.86 48.94,21.14 99.37,34.07 150.72,48.88 0.83,-35.45 25.76,-55.44 41.07,-78.19 9.2,-13.68 13.77,-20.03 27.6,-30.18 16.76,-12.33 33.2,-15.11 41.23,-21.02 5.95,-4.37 13.14,-24.17 22.99,-34.64 10.48,-11.14 20.36,-19.69 31.47,-30.48 17.19,-16.74 42.85,-45.82 74.32,-45.82 6.71,0 62.81,64.35 74.26,74.4 28.45,24.92 59.74,41.38 59.74,92.61 0,14.93 0,29.87 0,44.8 0,76.71 -65.86,147.53 -101.29,194.78 -45.58,60.76 -84.61,105.65 -166.17,131.61 -107.58,34.22 -122.49,66.2 -208.86,-17.82 -27.89,-27.13 -46.63,-46.13 -70.47,-78.08 -2.55,-3.41 -72.4,-75.32 -72.94,-75.71 -5.2,3.71 -37.84,55.06 -45.22,65.99 -16.16,23.9 -38.42,36.99 -60.34,55.37 -23.98,20.09 -11.87,32.56 -58.36,53.19 -20.83,9.24 -59.48,37.28 -78.93,37.28 -4.19,0 -8.37,0 -12.56,0 -11.23,0 -110.54,-42.72 -137.86,-49.19 -36,-8.51 -102.19,-37.7 -130.94,-55.93 -38.54,-24.42 -52.82,-68.89 -71.93,-113.33 -7.28,-16.92 -24.57,-28.27 -36.22,-54.37 -7.93,-17.78 -12.46,-55.08 -12.46,-81.58 0,-19.01 0,-38.01 0,-57.02 0,-20.36 42.35,-93.45 53.59,-110.81 18.38,-28.35 49.42,-76.58 92.96,-76.58 4.19,0 8.38,0 12.56,0 10.74,0 60.77,57.1 72.23,68.24 47.5,46.21 24.47,48.59 53.39,90.62 86.49,0 96.34,52.09 125.82,106.17 12.5,-8.24 24.99,-16.47 37.49,-24.71 30.09,-17.04 60.18,-34.09 90.27,-51.13 -6.36,-4.68 -12.73,-9.35 -19.09,-14.03 -0.73,-32.45 -20.93,-35.43 -20.93,-48.88 0,-1.36 0,-2.72 0,-4.08 0,-34.03 -7.06,-59.6 10.9,-87.16 25.56,-36.05 6.14,-51.33 68.66,-51.33 4.19,0 8.37,0 12.56,0 0,-10.06 -0.23,-8.09 10.01,-11.61 7.77,-2.67 18.99,-6.53 29.69,-10.21 32.6,-11.2 33.23,-14.28 64.23,-1.39 12.69,5.27 25.98,11.14 28.09,12.88 3.57,2.96 10.76,16.8 11.81,31.39 7.81,8.38 13.91,16.65 14.76,20.2 0.68,9.08 0.29,14.73 3.69,19.16 12.33,16.09 10.02,24.31 15.84,43.14 6.96,22.53 8.36,25.07 -1.74,46.28 -6.64,13.94 -13.28,27.88 -19.91,41.81 -2.94,6.18 -5.73,12.58 -5.73,17.61zm-108.88 -46.32c4.53,-16.49 12.6,-19.92 33.51,-20.36 -1.76,20.55 -11.47,20.36 -33.51,20.36zm37.69 -114.05c0,4.07 0,8.15 0,12.22 -4.19,1.35 -8.37,2.71 -12.56,4.06 -38.19,10.64 -76.37,21.27 -114.56,31.91 0.5,1.58 1,3.17 1.5,4.75 13.54,-3.87 14.88,-4.06 29.32,-4.06 19.28,0 17.95,23.24 5.02,29.33 0.88,1.31 1.77,2.62 2.65,3.93 3.03,-1.58 6.05,-3.17 9.08,-4.75 10.03,-5.16 79.54,-29.85 79.54,-4.06 0,16.24 -44.25,20.36 -66.98,20.36 -5.01,9.18 -11.24,24.44 -25.12,24.44 -2.24,0 -9.2,-5.87 -12.56,-8.14 0.83,9.83 8.23,24.44 -4.19,24.44 -20.79,0 -46.05,-36.37 -46.05,-57.04 0,-11.04 3.78,-17.22 8.83,-27.59 9.35,-19.21 23.98,-45.73 33.03,-45.73 1.4,0 2.79,0 4.19,0 20.26,0 1.09,10.06 25.12,16.3 0.53,-23.02 10.78,-24.44 33.49,-24.44 8.01,0 2.87,8.14 16.76,8.14 11.32,0 11.55,-1.94 20.93,-4.06 4.19,0 8.37,0 12.56,0zm7.64 26.52c0.25,6.09 0.5,12.19 0.75,18.28 -12.76,2.89 -79.56,30.08 -79.56,4.08 0,-9.46 15.25,-11.81 30.63,-12.62 13.76,-0.72 22.89,-0.73 35.75,-5.31 4.14,-1.48 8.29,-2.95 12.43,-4.43zm-103.94 -46.9c6.65,-13.47 6.65,-21.84 23.43,-21.84 13.55,0 21.93,4.95 31.01,9.62 9.38,-2.12 9.61,-4.06 20.93,-4.06 5.88,0 8.37,5.54 8.37,12.22 0,18.4 -106.55,20.36 -129.79,20.36 -1.16,-0.93 -2.32,-1.86 -3.48,-2.79 12.81,-15.1 18.97,-37.36 36.8,-23.45 4.24,3.31 8.49,6.63 12.73,9.94zm41.88 -32.58c5.58,0 11.16,0 16.74,0 11.97,0 7.66,1.29 12.56,8.14 -13.08,0 -29.3,6.5 -29.3,-8.14zm201.24 266.68c26.25,10.92 53.4,25.87 62.38,39.47 -31.12,-7.46 -62.24,-14.92 -93.36,-22.38 -6.2,-1.49 -11.28,-0.36 -11.82,-5.61 -0.45,-4.38 -4.81,-0.75 -3.52,2.91 -0.12,0.12 55.35,37.8 61.3,42.18 16.36,12.05 26.07,55.58 47.56,55.58 6.98,0 13.97,0 20.95,0 0.99,-11.51 -0.1,-16.3 12.56,-16.3 16.12,0 20.24,22.9 41.86,28.52 -5.12,-18.72 -12.56,-10.3 -12.56,-24.44 0,-11.01 2.02,-11.24 4.19,-20.38 22.33,0 44.67,0 67,0 -22.28,-32.35 -62.81,-8.55 -62.81,-32.58 0,-9.39 2.91,-12.22 12.56,-12.22 4.19,0 8.37,0 12.56,0 14.54,0 6.39,8.14 20.93,8.14 15.35,0 30.7,0 46.05,0 15.94,0 36.36,-36.66 46.07,-36.66 9.64,0 12.56,2.85 12.56,12.22 0,2.72 0,5.44 0,8.16 0,26.13 -41.88,65.84 -41.88,93.68 0,10.86 0,21.72 0,32.58 0,13.24 3.62,3.08 6.19,17.53 -19.47,12.84 -38.93,25.67 -58.4,38.51 4.84,-10.53 9.68,-21.07 14.52,-31.6 -47.12,10.68 -20.65,33.51 -61.66,66.3 -22.41,17.94 -48.13,43.46 -73.65,57.64 7.42,4.86 14.84,9.71 22.25,14.57 -2.47,10.35 -3.5,20.36 -16.76,20.36 -9.77,0 -19.53,0 -29.3,0 -17.69,0 -12.56,-15.8 -12.56,-32.58 -10.96,-15.93 -62.81,-49.52 -62.81,-65.18 0,-2.71 0,-5.43 0,-8.14 0,-10.99 11.14,-16.3 20.93,-16.3 17.03,0 13.25,40.74 79.56,40.74 16.87,-14.28 27.38,-15.61 41.8,-37.14 -12.54,1.52 -25.08,3.04 -37.63,4.56 -2.79,0 -5.58,0 -8.37,0 -1.01,0 -45.16,-15.65 -29.3,-28.52 9.76,-20.37 19.53,-40.74 29.3,-61.1 -12.98,9.26 -17.39,40.74 -37.69,40.74 -2.79,0 -5.58,0 -8.37,0 -9.4,0 -9.2,-3.23 -16.76,-8.16 -7.22,0.26 -14.44,0.51 -21.66,0.77 -6.63,-5.48 -13.27,-10.96 -19.9,-16.44 -7.08,2.51 -14.16,5.02 -21.25,7.53 -2.14,-7.79 -8.17,-20.36 -16.74,-20.36 -10.43,0 -15.75,10.18 -27.42,16.42 -0.63,-14.98 -1.27,-29.96 -1.9,-44.94 -6.8,-4.43 -33.49,-17.28 -33.49,-24.44 0,-15.97 0.87,-40.74 16.74,-40.74 5.59,0 11.17,0 16.76,0 7.5,27.37 20.75,39.9 46.98,48 29.59,9.12 27.83,29.79 57.7,37.55 -21.84,-31.7 -46.55,-59.95 -78.54,-81.5 -1.74,-24.43 -3.48,-48.86 -5.22,-73.28 26.81,0 59.36,16.1 84.01,26.35zm-791.65 -54.85c15.09,3.91 11.2,0.37 12.56,16.28 -4.19,0 -8.37,0 -12.56,0 0,-5.43 0,-10.85 0,-16.28zm1034.25 20.36c0.81,9.56 9.65,28.5 -4.19,28.5 -5.22,0 -13.69,-15.92 -16.74,-20.36 -24.02,1.94 -10.45,9.81 -25.12,8.14 -16.72,-1.62 -33.43,-3.23 -50.15,-4.85 3.76,9.96 7.53,19.91 11.3,29.87 -6.37,9.43 -23.01,19.8 -40.71,19.8 -5.86,0 -8.37,-5.56 -8.37,-12.22 0,-4.07 0,-8.15 0,-12.22 0,-21.98 27.74,-65.82 40.81,-78.42 32.19,-31.02 60.08,-18.67 68.05,-51.92 1.4,-1.36 2.8,-2.72 4.19,-4.08 4.15,-1.55 8.3,-3.11 12.44,-4.66 -1.36,6.99 -2.72,13.97 -4.07,20.96 -1.61,8.09 -3.22,16.19 -4.83,24.29 4.4,0.05 8.8,0.1 13.2,0.15 28.29,0 50.25,23.92 50.25,52.94 0,1.36 0,2.72 0,4.08 0,10.99 -2,11.22 -4.17,20.36 -0.78,1.21 -1.56,2.43 -2.34,3.64 -13.18,-8 -26.36,-16 -39.54,-24zm16.76 -122.21c0,-11.01 2,-11.24 4.17,-20.36 20.94,0 41.87,0 62.81,0 20.46,0 104.69,86.54 104.69,122.21 0,10.86 0,21.72 0,32.58 0,34.52 -15.25,33.85 -22.53,51.4 -11.02,26.5 1.17,24.71 -19.35,54.5 -11.16,0 -22.33,0 -33.49,0 -7.04,10.24 -22.41,35.66 -32.62,41.59 -6.63,3.85 -55.31,19.32 -55.31,3.21 0,-2.79 40.93,-42.16 46.9,-48.05 16.58,-16.32 40,-23.4 67,-29.54 -1.68,-6.72 -3.36,-13.45 -5.04,-20.17 6.07,-8.81 12.56,-13.55 12.56,-28.5 0,-14.94 0,-29.88 0,-44.82 0,-21.67 -3.8,-39.64 -16.74,-48.86 0,21.69 1.52,52.27 -15.35,56.45 -6.09,-13.62 -12.19,-27.24 -18.28,-40.86 -11.12,1.59 -22.25,3.18 -33.37,4.77 -10.68,1.75 -23.13,-31.29 -24.81,-41.03 -3.27,-18.73 -21.25,-44.24 -21.25,-44.51zm-904.45 -4.08c-1.39,1.36 -2.78,2.72 -4.17,4.08 -4.19,0 -8.37,0 -12.56,0 -14.68,21.3 -34.94,30.87 -39.55,51.15 -6.29,27.67 -13.89,45.3 -19.09,66.97 -2.79,0 -5.58,0 -8.37,0 -1.64,-29.86 -3.28,-59.72 -4.93,-89.59 -10.01,20.14 -20.02,40.29 -30.03,60.43 -2.31,0.22 -4.61,0.44 -6.92,0.65 -3.48,-14.59 -8.37,-19.15 -8.37,-36.66 0,-0.29 26.39,-47.59 29.32,-52.96 40.06,3.23 7.6,-0.79 28.25,-25.46 4.1,-4.87 32.25,-23.42 38.74,-23.42 6.98,0 13.97,0 20.95,0 12.76,0 16.89,3.91 25.12,8.14 1.39,1.36 2.78,2.72 4.17,4.08 1.4,1.36 2.8,2.72 4.19,4.08 6.98,6.79 13.95,13.57 20.93,20.36 1.4,1.36 2.79,2.72 4.19,4.08 1.4,1.35 2.79,2.71 4.19,4.06 1.39,1.36 2.78,2.72 4.17,4.08 1.4,1.36 2.8,2.72 4.19,4.08 0,4.07 0,8.15 0,12.22 0,4.07 0,8.15 0,12.22 -2.79,0 -5.58,0 -8.37,0 -2.8,-9.51 -5.59,-19.01 -8.39,-28.52 -1.39,-1.36 -2.78,-2.72 -4.17,-4.08 -6.92,-1.66 -13.85,-3.32 -20.77,-4.98 -0.06,-6.49 0.1,-7.79 0.04,-14.28 0,-5.23 -0.13,-14.99 -5.96,-5.03 -3.82,6.52 -5.23,18.88 -6.82,24.29z"/>
   <path class="fil2" d="M499.75 1499.29l-23.53 -36.91 9.21 -5.87 16.5 25.87 45.28 -28.87 7.03 11.04 -54.49 34.74zm28.37 -77.99l-57.11 30.23 -9.79 -18.49c-3.71,-7.01 -5.84,-11.71 -6.4,-14.14 -0.87,-3.73 -0.45,-7.45 1.25,-11.18 1.7,-3.73 4.83,-6.79 9.38,-9.2 3.51,-1.86 6.79,-2.78 9.85,-2.78 3.07,0.01 5.79,0.63 8.2,1.86 2.39,1.24 4.35,2.75 5.86,4.54 2,2.46 4.38,6.29 7.14,11.5l3.97 7.5 21.54 -11.4 6.12 11.57zm-53.58 13.55l16.27 -8.61 -3.33 -6.29c-2.4,-4.53 -4.3,-7.39 -5.71,-8.6 -1.41,-1.21 -2.97,-1.92 -4.72,-2.1 -1.73,-0.19 -3.44,0.16 -5.14,1.06 -2.09,1.11 -3.48,2.62 -4.2,4.55 -0.71,1.94 -0.75,3.92 -0.1,5.98 0.47,1.5 1.8,4.33 3.99,8.47l2.93 5.54zm-1.54 -50.33c-6,2.71 -11.46,4.09 -16.35,4.14 -3.6,0.03 -7.13,-0.59 -10.56,-1.83 -3.43,-1.24 -6.35,-2.98 -8.76,-5.2 -3.21,-2.97 -5.9,-6.86 -8.07,-11.66 -3.93,-8.69 -4.36,-16.85 -1.33,-24.5 3.05,-7.65 9.37,-13.64 18.98,-17.98 9.53,-4.3 18.15,-5.08 25.86,-2.34 7.72,2.74 13.54,8.44 17.44,17.09 3.96,8.76 4.43,16.94 1.41,24.53 -3.01,7.58 -9.22,13.51 -18.62,17.75zm-5.93 -12.08c6.68,-3.02 11.04,-6.85 13.1,-11.49 2.05,-4.64 2,-9.34 -0.14,-14.08 -2.15,-4.76 -5.62,-7.87 -10.42,-9.39 -4.8,-1.49 -10.62,-0.7 -17.46,2.39 -6.76,3.05 -11.13,6.81 -13.11,11.28 -1.99,4.47 -1.88,9.15 0.35,14.07 2.22,4.91 5.69,8.11 10.41,9.6 4.73,1.48 10.48,0.7 17.27,-2.37zm6.31 -67.88l-61.45 20 -6.07 -18.64 38.32 -24.66 -45.45 2.76 -6.08 -18.68 61.45 -20 3.74 11.5 -48.36 15.79 52.32 -3.63 3.89 11.96 -44.45 27.81 48.39 -15.71 3.74 11.5zm-35.7 -128.61l3.13 13.74 -13.1 8.71 5.76 25.27 15.54 1.97 3.07 13.49 -68.58 -10.11 -3.07 -13.48 57.26 -39.59zm-19.68 29.01l-21.33 14.07 25.26 3.19 -3.93 -17.26zm-47.06 -35.69l-5.98 -44.18 53.22 -7.2 -0.76 -5.63 24.77 -3.35 1.46 10.82 -13.95 1.89 5.43 40.16 13.95 -1.89 1.47 10.82 -24.77 3.35 -0.74 -5.46c-5.83,-1.91 -12.42,-2.81 -19.75,-2.68 -7.35,0.13 -16.54,0.95 -27.59,2.44l-6.77 0.92zm9.15 -13.81c19.38,-2.62 33.75,-2.75 43.12,-0.37l-3.28 -24.24 -42.39 5.74 2.55 18.87zm20.1 -92.8l2.91 -12.89c7.24,1.4 12.75,4.22 16.54,8.46 3.78,4.24 5.93,9.81 6.46,16.72 0.65,8.56 -1.74,15.82 -7.17,21.79 -5.43,5.95 -13.22,9.32 -23.37,10.09 -10.73,0.81 -19.27,-1.33 -25.64,-6.41 -6.36,-5.08 -9.88,-12.15 -10.57,-21.18 -0.6,-7.89 1.25,-14.47 5.55,-19.74 2.54,-3.15 6.33,-5.64 11.39,-7.5l4.04 12.64c-3.27,1.02 -5.79,2.81 -7.54,5.37 -1.75,2.58 -2.49,5.59 -2.23,9.04 0.36,4.78 2.37,8.54 6.03,11.25 3.65,2.73 9.31,3.79 16.99,3.21 8.13,-0.62 13.82,-2.53 17.05,-5.71 3.24,-3.2 4.68,-7.14 4.32,-11.84 -0.26,-3.47 -1.58,-6.37 -3.98,-8.69 -2.39,-2.32 -5.98,-3.86 -10.79,-4.58zm-41.94 -27.01l0.22 -13.08 25.81 0.44 0.3 -17.43c0.14,-8.21 2.17,-14.12 6.08,-17.74 3.91,-3.62 8.56,-5.38 13.95,-5.29 4.41,0.07 8.13,1.25 11.18,3.55 3.06,2.28 5.11,4.86 6.16,7.75 1.05,2.88 1.53,7.02 1.44,12.42l-0.52 30.49 -64.61 -1.1zm53.92 -12.17l0.22 -12.68c0.07,-4.11 -0.08,-6.97 -0.44,-8.55 -0.36,-1.59 -1.24,-3.03 -2.62,-4.3 -1.38,-1.27 -3.08,-1.92 -5.13,-1.95 -2.95,-0.05 -5.12,0.98 -6.52,3.08 -1.4,2.11 -2.16,5.73 -2.25,10.87l-0.23 13.25 16.97 0.29zm-52.48 -56.39l0.99 -13.05 27.45 2.08c-0.08,-2.92 -0.67,-4.94 -1.8,-6.05 -1.12,-1.11 -4.35,-2.96 -9.68,-5.5 -6.77,-3.21 -10.91,-6.26 -12.4,-9.1 -1.49,-2.83 -2.02,-7.23 -1.56,-13.23 0.02,-0.3 0.06,-0.93 0.1,-1.89l9.63 0.73 -0.19 1.84c-0.2,2.67 -0.02,4.64 0.55,5.92 0.57,1.28 1.5,2.35 2.79,3.21 1.29,0.87 3.98,2.2 8.07,4.01 2.17,0.97 3.97,1.96 5.4,3.01 1.43,1.03 2.72,2.77 3.86,5.21 1.03,-2.83 2.88,-5.09 5.51,-6.79 2.63,-1.7 6.3,-3.5 11.02,-5.41l18.3 -7.43 -1.16 15.3 -17.17 6.47c-0.25,0.1 -0.72,0.32 -1.42,0.65 -0.24,0.13 -1.3,0.6 -3.15,1.39 -3.3,1.41 -5.39,2.61 -6.26,3.6 -0.88,1.01 -1.4,2.58 -1.6,4.75l28.17 2.14 -0.99 13.05 -64.44 -4.89zm77.31 -107.45l-1.89 13.97 -15.33 3.56 -3.48 25.68 13.86 7.29 -1.86 13.71 -60.67 -33.53 1.85 -13.7 67.51 -16.99zm-28.61 20.26l-24.91 5.69 22.53 11.85 2.38 -17.54zm4.14 -57.49c-6.35,-1.75 -11.42,-4.18 -15.22,-7.28 -2.79,-2.28 -5.11,-5.01 -6.95,-8.16 -1.85,-3.15 -2.98,-6.35 -3.4,-9.6 -0.57,-4.34 -0.16,-9.05 1.25,-14.12 2.54,-9.19 7.42,-15.74 14.64,-19.69 7.23,-3.93 15.93,-4.5 26.09,-1.69 10.08,2.78 17.21,7.7 21.38,14.74 4.19,7.04 5.01,15.15 2.48,24.3 -2.56,9.27 -7.42,15.86 -14.6,19.77 -7.16,3.91 -15.72,4.49 -25.67,1.75zm3.16 -13.08c7.06,1.95 12.86,1.79 17.42,-0.47 4.54,-2.26 7.51,-5.9 8.9,-10.92 1.39,-5.03 0.71,-9.65 -2,-13.88 -2.74,-4.22 -7.71,-7.33 -14.95,-9.32 -7.15,-1.97 -12.92,-1.88 -17.3,0.3 -4.39,2.16 -7.29,5.84 -8.73,11.04 -1.43,5.19 -0.81,9.87 1.87,14.03 2.69,4.16 7.61,7.24 14.79,9.22zm47.79 -48.46l-60.94 -21.5 6.96 -19.73c2.64,-7.48 4.65,-12.23 6.06,-14.29 2.15,-3.17 5.17,-5.39 9.07,-6.66 3.89,-1.27 8.27,-1.06 13.12,0.66 3.74,1.32 6.64,3.11 8.72,5.36 2.07,2.26 3.47,4.68 4.19,7.28 0.71,2.6 0.93,5.06 0.63,7.38 -0.45,3.14 -1.65,7.49 -3.62,13.05l-2.82 8 22.98 8.11 -4.35 12.34zm-46.29 -30.21l17.36 6.13 2.37 -6.71c1.71,-4.84 2.52,-8.17 2.45,-10.03 -0.06,-1.86 -0.6,-3.48 -1.66,-4.89 -1.04,-1.4 -2.45,-2.43 -4.26,-3.07 -2.23,-0.79 -4.29,-0.78 -6.19,0 -1.91,0.79 -3.39,2.11 -4.47,3.98 -0.79,1.37 -1.96,4.25 -3.53,8.68l-2.09 5.92zm8.13 -53.97l18.23 -39.79 9.93 4.55 -12.78 27.9 48.82 22.37 -5.45 11.9 -58.75 -26.92zm103.61 -65.84l-6.37 12.57 -15.65 -1.67 -11.72 23.12 10.69 11.44 -6.26 12.34 -46.3 -51.59 6.25 -12.33 69.34 6.12zm-33.67 9.74l-25.39 -2.8 17.39 18.59 8 -15.79zm37.66 -15.52l-54.63 -34.52 6.99 -11.06 21.52 13.6 13.59 -21.52 -21.51 -13.59 6.99 -11.06 54.63 34.52 -6.99 11.06 -23.88 -15.09 -13.6 21.52 23.88 15.09 -6.99 11.06zm34.8 -54.57l-53.02 -36.94 7.48 -10.74 53.02 36.94 -7.48 10.74zm-16.79 -57.83l-10.28 8.07c-6.51,-8.72 -5.76,-18.08 2.25,-28.08 4.74,-5.92 9.62,-9.35 14.64,-10.28 5.02,-0.93 9.29,0.02 12.81,2.84 2.41,1.93 4.03,4.36 4.88,7.29 0.84,2.93 0.89,6.35 0.17,10.29 3.82,-2.41 7.45,-3.63 10.89,-3.61 3.45,0.02 6.7,1.26 9.79,3.73 4.44,3.55 6.72,8.04 6.86,13.48 0.14,5.43 -2.38,11.39 -7.56,17.86 -4.22,5.27 -8.44,8.74 -12.64,10.38 -4.21,1.64 -9.34,1.29 -15.41,-1.04l4.42 -11.73c3.81,1.47 6.82,1.76 8.99,0.88 2.18,-0.87 4.21,-2.49 6.09,-4.84 2.57,-3.22 3.76,-6.12 3.55,-8.72 -0.22,-2.59 -1.23,-4.6 -3.04,-6.05 -2.07,-1.65 -4.41,-2.17 -7.02,-1.51 -2.59,0.64 -5.24,2.65 -7.92,5.99l-1.85 2.31 -7.61 -6.09 0.93 -1.16c2.49,-3.11 3.7,-6.06 3.61,-8.82 -0.07,-2.78 -1.28,-5.09 -3.6,-6.94 -1.84,-1.48 -3.93,-2.05 -6.27,-1.72 -2.33,0.33 -4.5,1.74 -6.49,4.23 -3.41,4.26 -3.48,8.68 -0.2,13.25zm104.57 -51.45l-9.21 10.67 -14.78 -5.38 -16.93 19.63 7.63 13.68 -9.04 10.48 -32.54 -61.21 9.03 -10.46 65.84 22.61zm-35.03 1.37l-23.97 -8.82 12.41 22.23 11.56 -13.41zm-3.48 -52.63l9.51 -8.99 36.9 39.02 18.3 -17.3 -36.9 -39.01 9.51 -8.99 36.9 39.01 3.93 -3.72 17.18 18.16 -7.93 7.5 -9.67 -10.23 -33.31 31.5 -44.4 -46.95zm92.22 2.49l-43.11 -48.14 9.75 -8.73 43.11 48.14 -9.75 8.73zm49.68 -40.55l-16.64 -21.24 -2.08 1.63c-3.26,2.55 -5.16,4.83 -5.74,6.85 -0.59,2.01 -0.59,6.69 -0.05,14.04l1.34 16.88 -12.28 9.62 -1.57 -14.78c-0.65,-5.85 -0.86,-10.14 -0.65,-12.85 0.21,-2.73 0.93,-5.58 2.13,-8.53 -5.31,2.96 -10.01,3.98 -14.11,3.07 -4.1,-0.92 -7.55,-3.14 -10.34,-6.71 -2.43,-3.1 -3.8,-6.46 -4.11,-10.08 -0.31,-3.62 0.49,-6.84 2.4,-9.66 1.92,-2.82 5.42,-6.23 10.51,-10.22l21.63 -16.95 39.85 50.87 -10.3 8.07zm-33.12 -42.27l-8.02 6.28c-4.07,3.19 -6.68,5.38 -7.82,6.56 -1.13,1.19 -1.75,2.69 -1.84,4.48 -0.09,1.79 0.53,3.54 1.88,5.25 1.4,1.79 2.96,2.86 4.68,3.21 1.71,0.36 3.36,0.12 4.94,-0.7 1.57,-0.83 4.48,-2.89 8.7,-6.21l7.6 -5.96 -10.13 -12.93zm65.04 -25.05l-10.45 6.61 -4.73 -7.49c-1.92,-3.04 -3.17,-5.6 -3.73,-7.68 -0.58,-2.09 -0.59,-4.29 -0.03,-6.58 0.55,-2.31 1.71,-4.56 3.43,-6.76l4.78 3.06c-1.63,2.01 -2.5,3.91 -2.62,5.71 -0.12,1.82 0.46,3.77 1.71,5.86l5.04 -3.18 6.61 10.45zm17.47 -11.04l-10.45 6.61 -4.73 -7.49c-1.93,-3.05 -3.18,-5.62 -3.75,-7.7 -0.57,-2.08 -0.56,-4.27 0.01,-6.57 0.57,-2.32 1.71,-4.56 3.41,-6.74l4.78 3.06c-1.63,2.01 -2.5,3.91 -2.62,5.71 -0.12,1.82 0.46,3.77 1.71,5.86l5.04 -3.18 6.61 10.45zm5.33 -33.55l40 -21.17 30.23 57.11 -11.57 6.12 -25.12 -47.46 -17.15 9.08 12.91 24.38c3.69,6.98 6.04,11.99 7.03,14.99 1,3.01 1.02,5.78 0.02,8.27 -0.99,2.5 -3.4,4.76 -7.24,6.8 -1.36,0.72 -3.87,1.88 -7.57,3.51l-4.74 -8.95 2.6 -1.32c2.41,-1.27 3.87,-2.46 4.35,-3.55 0.49,-1.09 0.06,-2.91 -1.28,-5.45l-5.23 -9.79 -17.24 -32.57zm55.88 -29.05l11.92 -5.39 10.63 23.52 15.89 -7.18c7.49,-3.38 13.69,-4.07 18.64,-2.08 4.94,1.99 8.52,5.45 10.73,10.35 1.81,4.02 2.34,7.89 1.57,11.62 -0.75,3.74 -2.21,6.69 -4.38,8.87 -2.15,2.18 -5.69,4.39 -10.61,6.61l-27.79 12.55 -26.6 -58.89zm34.03 43.55l11.56 -5.22c3.74,-1.69 6.27,-3.04 7.55,-4.05 1.28,-1.01 2.21,-2.42 2.77,-4.21 0.56,-1.79 0.42,-3.6 -0.42,-5.47 -1.21,-2.69 -3.07,-4.21 -5.57,-4.58 -2.51,-0.37 -6.1,0.49 -10.79,2.61l-12.08 5.46 6.98 15.46zm31.13 -71.47l24.47 -8.3c4.86,-1.65 8.53,-2.67 11.04,-3.08 2.53,-0.4 4.94,-0.28 7.25,0.35 2.32,0.65 4.46,1.81 6.43,3.51 1.97,1.7 3.41,3.88 4.31,6.51 0.97,2.85 1.09,5.74 0.36,8.65 -0.73,2.91 -2.22,5.41 -4.45,7.5 4.09,-0.16 7.57,0.72 10.46,2.66 2.88,1.94 4.92,4.68 6.13,8.23 0.95,2.79 1.22,5.72 0.82,8.79 -0.4,3.07 -1.45,5.78 -3.17,8.13 -1.71,2.33 -4.14,4.23 -7.3,5.72 -1.98,0.91 -6.9,2.74 -14.76,5.47l-20.84 7.07 -20.76 -61.2zm15.84 5.97l4.78 14.1 8.09 -2.75c4.8,-1.63 7.77,-2.71 8.89,-3.25 2.03,-0.96 3.45,-2.25 4.25,-3.87 0.8,-1.62 0.86,-3.41 0.2,-5.37 -0.64,-1.89 -1.69,-3.24 -3.13,-4.07 -1.44,-0.83 -3.24,-1.01 -5.37,-0.56 -1.27,0.27 -4.81,1.4 -10.61,3.36l-7.09 2.41zm8.23 24.27l5.57 16.41 11.45 -3.89c4.45,-1.51 7.24,-2.6 8.35,-3.25 1.72,-0.96 2.94,-2.28 3.66,-3.97 0.71,-1.7 0.71,-3.62 -0.03,-5.8 -0.63,-1.85 -1.6,-3.25 -2.93,-4.23 -1.32,-0.98 -2.93,-1.48 -4.81,-1.5 -1.88,-0.01 -5.64,0.93 -11.27,2.84l-9.99 3.39zm58.18 10.81l-17.75 -62.14 12.58 -3.59 17.75 62.14 -12.58 3.6zm9.99 -70.08l25.18 -5.81c5,-1.15 8.75,-1.8 11.3,-1.96 2.56,-0.14 4.94,0.22 7.18,1.08 2.24,0.87 4.25,2.24 6.05,4.13 1.79,1.89 3.01,4.2 3.63,6.91 0.68,2.93 0.51,5.83 -0.51,8.64 -1.01,2.83 -2.75,5.16 -5.17,7.01 4.09,0.24 7.46,1.47 10.15,3.69 2.67,2.22 4.43,5.15 5.27,8.8 0.66,2.87 0.65,5.81 -0.06,8.83 -0.71,3.02 -2.02,5.61 -3.97,7.77 -1.93,2.14 -4.54,3.79 -7.84,4.96 -2.06,0.71 -7.14,2.03 -15.23,3.96l-21.44 4.95 -14.53 -62.96zm15.17 7.52l3.35 14.51 8.32 -1.92c4.94,-1.14 8,-1.92 9.17,-2.35 2.11,-0.75 3.65,-1.89 4.61,-3.43 0.96,-1.53 1.2,-3.3 0.73,-5.33 -0.45,-1.95 -1.35,-3.39 -2.71,-4.36 -1.35,-0.97 -3.12,-1.34 -5.29,-1.1 -1.29,0.14 -4.93,0.91 -10.9,2.28l-7.3 1.68zm5.76 24.98l3.9 16.89 11.78 -2.72c4.57,-1.06 7.46,-1.86 8.63,-2.39 1.81,-0.79 3.15,-1.98 4.04,-3.59 0.88,-1.62 1.07,-3.53 0.55,-5.78 -0.44,-1.91 -1.26,-3.4 -2.49,-4.5 -1.21,-1.11 -2.77,-1.77 -4.64,-1.97 -1.87,-0.2 -5.71,0.36 -11.5,1.7l-10.27 2.37zm91.62 -12.22l13.04 2.15c-0.97,7.31 -3.47,12.98 -7.47,17.01 -4.01,4.02 -9.44,6.5 -16.31,7.43 -8.51,1.15 -15.9,-0.81 -22.17,-5.88 -6.26,-5.07 -10.07,-12.65 -11.44,-22.74 -1.44,-10.66 0.19,-19.32 4.89,-25.97 4.7,-6.65 11.55,-10.58 20.52,-11.79 7.84,-1.06 14.52,0.4 20.04,4.38 3.29,2.35 6,5.99 8.16,10.93l-12.38 4.77c-1.21,-3.21 -3.14,-5.62 -5.8,-7.21 -2.68,-1.6 -5.73,-2.16 -9.15,-1.69 -4.76,0.64 -8.38,2.87 -10.87,6.68 -2.51,3.8 -3.24,9.51 -2.2,17.15 1.09,8.08 3.34,13.65 6.71,16.69 3.39,3.05 7.41,4.25 12.07,3.62 3.44,-0.47 6.26,-1.96 8.44,-4.48 2.18,-2.53 3.5,-6.2 3.94,-11.04zm22.21 -43.96l13.05 -0.99 1.95 25.74 17.38 -1.32c8.19,-0.62 14.26,0.85 18.23,4.41 3.97,3.56 6.15,8.03 6.55,13.4 0.33,4.39 -0.49,8.21 -2.5,11.46 -1.99,3.26 -4.36,5.53 -7.14,6.85 -2.77,1.31 -6.85,2.18 -12.23,2.59l-30.4 2.31 -4.89 -64.44zm17.11 52.56l12.64 -0.96c4.09,-0.31 6.93,-0.72 8.48,-1.23 1.55,-0.51 2.9,-1.52 4.04,-3.01 1.14,-1.49 1.62,-3.25 1.47,-5.29 -0.22,-2.94 -1.45,-5 -3.67,-6.21 -2.23,-1.2 -5.9,-1.62 -11.03,-1.23l-13.22 1 1.29 16.92zm53.54 -56.85l13.09 0.22 -0.47 27.53c2.91,-0.25 4.89,-0.96 5.94,-2.16 1.04,-1.19 2.69,-4.51 4.92,-9.98 2.81,-6.95 5.61,-11.26 8.36,-12.92 2.74,-1.65 7.1,-2.44 13.11,-2.34 0.3,0.01 0.93,0 1.9,-0.01l-0.17 9.66 -1.85 -0.08c-2.68,-0.05 -4.64,0.25 -5.88,0.89 -1.25,0.64 -2.25,1.63 -3.04,2.97 -0.79,1.34 -1.97,4.1 -3.53,8.29 -0.84,2.23 -1.73,4.08 -2.68,5.56 -0.94,1.49 -2.61,2.88 -4.97,4.16 2.89,0.86 5.25,2.57 7.1,5.1 1.85,2.53 3.87,6.08 6.05,10.68l8.5 17.84 -15.34 -0.26 -7.46 -16.77c-0.12,-0.24 -0.37,-0.7 -0.73,-1.38 -0.15,-0.23 -0.67,-1.26 -1.57,-3.07 -1.6,-3.22 -2.92,-5.22 -3.96,-6.04 -1.05,-0.81 -2.66,-1.25 -4.84,-1.32l-0.48 28.25 -13.09 -0.22 1.1 -64.61zm111.86 69.56l-14.05 -1.07 -4.45 -15.09 -25.84 -1.96 -6.47 14.26 -13.8 -1.05 29.91 -62.54 13.78 1.05 20.92 66.4zm-21.91 -27.37l-7.14 -24.53 -10.51 23.19 17.65 1.34zm56.27 0.29c1.1,-6.5 3.01,-11.79 5.7,-15.88 1.99,-3 4.47,-5.59 7.42,-7.74 2.94,-2.16 6.01,-3.6 9.21,-4.36 4.26,-1 8.99,-1.07 14.17,-0.19 9.4,1.6 16.41,5.79 21.07,12.58 4.64,6.8 6.08,15.39 4.32,25.79 -1.75,10.31 -5.92,17.9 -12.5,22.76 -6.58,4.88 -14.56,6.51 -23.92,4.92 -9.48,-1.61 -16.53,-5.78 -21.14,-12.53 -4.61,-6.73 -6.06,-15.19 -4.33,-25.36zm13.33 1.82c-1.23,7.22 -0.48,12.98 2.22,17.28 2.7,4.29 6.63,6.88 11.76,7.75 5.15,0.88 9.67,-0.26 13.61,-3.4 3.92,-3.15 6.51,-8.42 7.77,-15.82 1.24,-7.31 0.57,-13.04 -2.04,-17.17 -2.59,-4.15 -6.54,-6.66 -11.87,-7.57 -5.31,-0.9 -9.91,0.2 -13.77,3.28 -3.87,3.1 -6.43,8.31 -7.68,15.65zm71.53 -19.22l46.33 13.59 -3.07 10.48 -33.78 -9.91 -4.22 14.38 16.73 4.91c4.6,1.35 8.28,3.04 10.98,5.06 2.71,2.02 4.7,4.86 5.96,8.54 1.26,3.66 1.3,7.55 0.1,11.63 -1.23,4.19 -3.37,7.46 -6.42,9.81 -3.04,2.34 -6.11,3.66 -9.21,3.94 -3.09,0.29 -7.21,-0.33 -12.33,-1.83l-29.26 -8.58 18.19 -62.01zm-2.56 55.21l12.17 3.57c3.88,1.14 6.68,1.76 8.36,1.84 1.68,0.09 3.32,-0.36 4.88,-1.36 1.56,-0.98 2.62,-2.46 3.19,-4.41 0.83,-2.84 0.42,-5.21 -1.24,-7.1 -1.67,-1.89 -4.96,-3.56 -9.9,-5l-12.72 -3.73 -4.75 16.2zm69.25 -34.96l42.86 14.54 -20.76 61.2 -12.39 -4.2 17.25 -50.86 -18.38 -6.23 -8.86 26.13c-2.54,7.48 -4.56,12.62 -6.06,15.4 -1.5,2.79 -3.5,4.7 -6,5.7 -2.5,1 -5.8,0.8 -9.92,-0.6 -1.45,-0.49 -4.02,-1.52 -7.75,-3.09l3.25 -9.59 2.75 0.98c2.58,0.88 4.45,1.13 5.57,0.73 1.13,-0.39 2.16,-1.95 3.08,-4.67l3.52 -10.53 11.84 -34.9zm87.47 105.1l-12.81 -5.87 1.06 -15.7 -23.56 -10.8 -11.01 11.14 -12.58 -5.76 49.73 -48.3 12.57 5.76 -3.38 69.53zm-11.07 -33.26l1.8 -25.48 -17.9 18.11 16.1 7.38zm63.19 34.9l9.05 9.64c-5.21,5.22 -10.64,8.2 -16.28,8.96 -5.63,0.75 -11.45,-0.58 -17.47,-4.02 -7.46,-4.26 -12.13,-10.3 -14.03,-18.14 -1.88,-7.83 -0.31,-16.17 4.74,-25.01 5.33,-9.34 11.9,-15.22 19.67,-17.64 7.77,-2.42 15.6,-1.38 23.46,3.11 6.87,3.93 11.28,9.15 13.25,15.66 1.19,3.87 1.13,8.4 -0.17,13.64l-12.73 -3.74c0.99,-3.28 0.92,-6.37 -0.22,-9.26 -1.15,-2.89 -3.24,-5.19 -6.24,-6.91 -4.17,-2.38 -8.4,-2.82 -12.69,-1.31 -4.3,1.49 -8.35,5.59 -12.17,12.28 -4.04,7.08 -5.65,12.86 -4.82,17.32 0.84,4.48 3.3,7.88 7.38,10.21 3.02,1.72 6.16,2.25 9.43,1.57 3.27,-0.68 6.55,-2.79 9.84,-6.37zm8.89 32.51l34.91 -54.38 11.01 7.07 -13.75 21.42 21.42 13.75 13.75 -21.42 11.01 7.07 -34.91 54.38 -11.01 -7.07 15.26 -23.77 -21.42 -13.75 -15.26 23.77 -11.01 -7.07zm100.08 71.97l-11.01 -8.81 4.84 -14.97 -20.23 -16.2 -13.38 8.13 -10.81 -8.65 59.97 -34.77 10.79 8.64 -20.17 66.63zm-2.66 -34.95l7.93 -24.29 -21.76 13.22 13.82 11.06zm60.25 76.45l-5.21 5.5 -9.31 -8.81 5.21 -5.5c-7.25,-7.38 -10.78,-14.24 -10.63,-20.59 0.16,-6.36 2.67,-12.1 7.54,-17.24 5.13,-5.42 10.85,-8.22 17.18,-8.45 6.34,-0.22 13.24,2.95 20.72,9.51l4.4 -4.65 9.31 8.81 -4.41 4.65c7.2,7.34 10.74,14.17 10.64,20.51 -0.09,6.33 -2.62,12.11 -7.54,17.31 -4.89,5.17 -10.5,7.98 -16.82,8.46 -6.32,0.46 -13.35,-2.7 -21.09,-9.51zm7.51 -7.93c2.48,2.35 5.01,3.96 7.59,4.83 2.57,0.86 4.89,0.94 6.98,0.24 2.08,-0.68 4.39,-2.38 6.96,-5.09 6.4,-6.76 5.83,-13.73 -1.73,-20.88l-19.79 20.91zm-9.31 -8.81l19.79 -20.91c-4.01,-3.79 -7.73,-5.64 -11.2,-5.55 -3.47,0.09 -6.89,1.94 -10.3,5.54 -6.42,6.78 -5.86,13.76 1.7,20.92zm23.23 50.27l48.51 -42.69 31.6 35.91 -8.2 7.21 -22.95 -26.08 -10.77 9.48 21.35 24.25 -8.2 7.22 -21.35 -24.26 -13.14 11.57 23.79 27.03 -8.2 7.21 -32.44 -36.86zm95.7 11.79l25.88 36.31 -43.73 31.17 3.3 4.63 -20.36 14.51 -6.34 -8.89 11.46 -8.17 -23.52 -33 -11.46 8.17 -6.34 -8.89 20.36 -14.51 3.2 4.48c6.05,-1.02 12.3,-3.3 18.72,-6.83 6.44,-3.54 14.19,-8.55 23.27,-15.02l5.56 -3.97zm-1.66 16.48c-15.92,11.35 -28.58,18.16 -37.98,20.42l14.2 19.92 34.83 -24.83 -11.05 -15.51zm-16.65 69.1l54.24 -35.12 26 40.15 -9.17 5.94 -18.88 -29.17 -12.05 7.8 17.56 27.12 -9.17 5.94 -17.56 -27.12 -14.7 9.52 19.57 30.23 -9.17 5.94 -26.69 -41.21zm31.71 51.14l56.27 -31.78 10.29 18.22c3.9,6.9 6.16,11.55 6.78,13.96 0.97,3.7 0.66,7.44 -0.94,11.21 -1.6,3.77 -4.64,6.92 -9.12,9.45 -3.46,1.95 -6.71,2.96 -9.77,3.05 -3.07,0.07 -5.81,-0.47 -8.25,-1.63 -2.42,-1.17 -4.43,-2.63 -5.98,-4.38 -2.07,-2.41 -4.55,-6.17 -7.45,-11.3l-4.17 -7.39 -21.22 11.98 -6.43 -11.4zm53.19 -15.01l-16.03 9.05 3.5 6.2c2.52,4.47 4.5,7.27 5.94,8.44 1.44,1.17 3.02,1.84 4.77,1.97 1.74,0.14 3.44,-0.25 5.11,-1.19 2.06,-1.16 3.41,-2.72 4.07,-4.66 0.65,-1.96 0.64,-3.94 -0.06,-5.98 -0.51,-1.49 -1.91,-4.27 -4.22,-8.36l-3.08 -5.46zm-4.11 113.9l-5.73 -12.87 11.17 -11.08 -10.55 -23.67 -15.62 1.08 -5.63 -12.64 69.24 -3.37 5.62 12.63 -48.5 49.94zm13.68 -32.28l18.2 -17.93 -25.4 1.76 7.2 16.17zm50.69 17.99l4.2 12.39 -50.85 17.25 8.09 23.85 50.86 -17.25 4.2 12.39 -50.86 17.25 1.74 5.13 -23.67 8.03 -3.51 -10.34 13.33 -4.52 -14.73 -43.42 61.2 -20.76zm-40.29 82.62l62.07 -17.96 3.64 12.57 -62.07 17.96 -3.64 -12.57zm16.52 61.97l26.29 -6.07 -0.59 -2.58c-0.93,-4.03 -2.19,-6.72 -3.77,-8.1 -1.57,-1.38 -5.81,-3.37 -12.7,-5.99l-15.85 -5.94 -3.51 -15.2 14.05 4.84c5.58,1.89 9.55,3.52 11.91,4.86 2.38,1.35 4.66,3.2 6.82,5.54 -0.43,-6.06 0.64,-10.75 3.2,-14.08 2.57,-3.32 6.05,-5.5 10.46,-6.52 3.84,-0.89 7.46,-0.7 10.87,0.55 3.41,1.25 5.99,3.34 7.73,6.27 1.74,2.93 3.35,7.55 4.8,13.85l6.18 26.78 -62.97 14.53 -2.94 -12.75zm52.32 -12.08l-2.29 -9.92c-1.16,-5.04 -2.04,-8.33 -2.63,-9.86 -0.6,-1.53 -1.7,-2.73 -3.28,-3.57 -1.58,-0.84 -3.43,-1.01 -5.56,-0.52 -2.21,0.51 -3.84,1.47 -4.89,2.87 -1.05,1.4 -1.53,2.99 -1.46,4.77 0.09,1.77 0.73,5.28 1.93,10.51l2.17 9.41 16 -3.69zm-34.81 120.15l-1.89 -13.97 13.83 -7.5 -3.48 -25.68 -15.3 -3.35 -1.86 -13.71 67.4 16.2 1.85 13.7 -60.56 34.32zm22.19 -27.14l22.5 -12.11 -24.87 -5.44 2.38 17.54zm-22.3 34.15l64.44 -4.89 1.58 20.86c0.6,7.9 0.68,13.07 0.21,15.52 -0.69,3.76 -2.56,7.01 -5.61,9.75 -3.05,2.73 -7.14,4.3 -12.27,4.69 -3.96,0.3 -7.33,-0.17 -10.14,-1.39 -2.81,-1.24 -5.06,-2.89 -6.77,-4.98 -1.7,-2.09 -2.89,-4.26 -3.56,-6.5 -0.85,-3.06 -1.51,-7.52 -1.95,-13.4l-0.64 -8.46 -24.3 1.84 -0.99 -13.05zm54.54 8.99l-18.36 1.39 0.54 7.09c0.39,5.12 0.99,8.49 1.8,10.17 0.81,1.67 1.96,2.94 3.49,3.81 1.51,0.86 3.22,1.23 5.14,1.09 2.35,-0.18 4.24,-1.01 5.66,-2.5 1.43,-1.5 2.25,-3.29 2.48,-5.44 0.17,-1.57 0.08,-4.68 -0.27,-9.36l-0.47 -6.25zm-51.82 49.77l64.61 1.1 -0.34 19.6 -44.26 10.83 43.87 12.2 -0.34 19.64 -64.61 -1.1 0.21 -12.09 50.87 0.82 -50.65 -13.61 0.21 -12.57 51.08 -11.81 -50.86 -0.91 0.2 -12.09zm16.44 119.55l-5.54 12c-6.79,-2.88 -11.59,-6.79 -14.41,-11.73 -2.81,-4.93 -3.76,-10.83 -2.83,-17.7 1.15,-8.51 5.01,-15.11 11.56,-19.81 6.55,-4.68 14.87,-6.35 24.96,-4.99 10.66,1.44 18.57,5.32 23.73,11.62 5.16,6.3 7.13,13.94 5.92,22.92 -1.06,7.84 -4.25,13.89 -9.55,18.15 -3.14,2.55 -7.37,4.19 -12.71,4.96l-1.31 -13.2c3.41,-0.31 6.25,-1.54 8.5,-3.68 2.25,-2.16 3.6,-4.95 4.06,-8.38 0.65,-4.75 -0.53,-8.85 -3.55,-12.26 -3,-3.43 -8.31,-5.65 -15.94,-6.68 -8.08,-1.09 -14.05,-0.41 -17.87,2.03 -3.84,2.45 -6.06,6.01 -6.7,10.68 -0.47,3.44 0.22,6.56 2.08,9.33 1.86,2.77 5.04,5.02 9.59,6.73zm36.69 31.4l-8.6 50.63 -63.71 -10.82 2.19 -12.9 52.94 8.99 4.22 -24.83 -52.94 -8.99 2.19 -12.9 63.71 10.82zm-44.05 59.09c6.33,1.83 11.37,4.33 15.13,7.47 2.76,2.32 5.04,5.08 6.85,8.25 1.81,3.17 2.9,6.38 3.29,9.64 0.51,4.35 0.04,9.05 -1.42,14.11 -2.65,9.16 -7.61,15.65 -14.89,19.51 -7.28,3.84 -15.98,4.3 -26.11,1.37 -10.04,-2.91 -17.11,-7.91 -21.2,-15 -4.1,-7.09 -4.82,-15.21 -2.18,-24.33 2.67,-9.23 7.62,-15.77 14.84,-19.58 7.21,-3.82 15.77,-4.3 25.69,-1.43zm-3.32 13.04c-7.04,-2.04 -12.84,-1.95 -17.42,0.25 -4.57,2.2 -7.58,5.81 -9.03,10.81 -1.45,5.01 -0.83,9.64 1.83,13.9 2.68,4.25 7.63,7.42 14.84,9.51 7.12,2.06 12.89,2.04 17.3,-0.08 4.42,-2.11 7.36,-5.75 8.86,-10.93 1.5,-5.17 0.93,-9.86 -1.7,-14.05 -2.64,-4.19 -7.53,-7.33 -14.68,-9.4zm-48.36 47.89l61.2 20.76 -6.72 19.81c-2.55,7.51 -4.5,12.29 -5.89,14.36 -2.11,3.19 -5.1,5.45 -8.98,6.77 -3.88,1.32 -8.25,1.16 -13.12,-0.5 -3.76,-1.28 -6.68,-3.03 -8.78,-5.25 -2.1,-2.24 -3.52,-4.64 -4.28,-7.23 -0.74,-2.59 -0.99,-5.05 -0.72,-7.38 0.42,-3.15 1.56,-7.51 3.46,-13.09l2.73 -8.03 -23.08 -7.83 4.2 -12.39zm46.65 29.64l-17.44 -5.91 -2.29 6.74c-1.65,4.86 -2.42,8.2 -2.33,10.06 0.09,1.86 0.65,3.48 1.71,4.87 1.06,1.39 2.48,2.4 4.3,3.01 2.24,0.76 4.3,0.73 6.19,-0.08 1.9,-0.82 3.37,-2.15 4.42,-4.03 0.77,-1.38 1.91,-4.28 3.42,-8.72l2.02 -5.94zm-72.95 38.99l48.82 22.37 7.97 -17.39 9.93 4.55 -21.36 46.6 -9.93 -4.55 7.93 -17.31 -48.82 -22.37 5.45 -11.9zm42.96 60.66l-6.8 13.03 -36.62 -2.13 23.71 26.89 -6.3 12.07 -33.44 -42.09c-3.62,-4.57 -6.09,-8.59 -7.42,-12.06 -1.33,-3.47 -1.09,-6.93 0.72,-10.4 1.78,-3.41 3.4,-5.96 4.84,-7.65l8.62 4.49c-0.96,1.59 -1.79,3.04 -2.48,4.36 -1.39,2.67 -1.9,4.84 -1.53,6.51 0.39,1.66 1.93,3.89 4.61,6.63l52.07 0.35zm-42.63 76.83l-6.61 10.45 -7.51 -4.75c-3.03,-1.91 -5.24,-3.68 -6.64,-5.32 -1.39,-1.63 -2.34,-3.61 -2.83,-5.94 -0.48,-2.33 -0.43,-4.86 0.17,-7.56l5.64 0.7c-0.62,2.53 -0.59,4.63 0.07,6.31 0.67,1.7 2.03,3.2 4.07,4.53l3.18 -5.04 10.45 6.6zm11.09 -17.55l-6.61 10.45 -7.51 -4.75c-3.03,-1.91 -5.24,-3.67 -6.66,-5.29 -1.4,-1.61 -2.35,-3.6 -2.83,-5.94 -0.48,-2.33 -0.42,-4.88 0.19,-7.6l5.63 0.71c-0.63,2.54 -0.6,4.64 0.07,6.31 0.69,1.66 2.05,3.18 4.08,4.53l3.18 -5.04 10.45 6.61z"/>
   <path class="fil3" d="M603.07 1650l35.77 -65.27 7.17 6.8 -24.64 41.67c-2.55,4.39 -5.17,8.67 -7.87,12.81 6.65,-4.27 10.5,-6.71 11.54,-7.35l43.33 -25.93 8.33 7.89 -17.58 33.54c-4.39,8.31 -8.87,15.76 -13.45,22.34 3.82,-2.64 8.29,-5.58 13.42,-8.82l40 -25.84 6.94 6.58 -63.82 38.67 -6.72 -6.37 26.77 -50.18c2.24,-4.21 3.61,-6.78 4.12,-7.73 -2.86,1.82 -5.33,3.35 -7.39,4.6l-48.69 29.42 -7.22 -6.85zm69.64 64.43l29.5 -68.33 7.78 6.1 -20.63 43.8c-2.13,4.61 -4.34,9.12 -6.64,13.49 6.22,-4.87 9.82,-7.67 10.8,-8.39l40.72 -29.88 9.03 7.08 -14.37 35.04c-3.59,8.68 -7.36,16.52 -11.3,23.5 3.55,-2.98 7.73,-6.33 12.53,-10.04l37.4 -29.47 7.53 5.9 -59.92 44.48 -7.29 -5.72 21.96 -52.46c1.83,-4.4 2.96,-7.09 3.38,-8.08 -2.67,2.08 -4.99,3.84 -6.93,5.28l-45.73 33.85 -7.83 -6.14zm76.07 56.63l22.64 -70.9 8.34 5.3 -16.23 45.61c-1.66,4.8 -3.42,9.5 -5.28,14.08 5.71,-5.46 9.02,-8.6 9.92,-9.42l37.58 -33.74 9.68 6.16 -10.85 36.28c-2.72,8.99 -5.7,17.17 -8.93,24.5 3.24,-3.32 7.07,-7.06 11.48,-11.22l34.32 -33.01 8.07 5.13 -55.25 50.15 -7.82 -4.97 16.7 -54.37c1.39,-4.56 2.25,-7.34 2.57,-8.37 -2.45,2.33 -4.59,4.31 -6.38,5.93l-42.18 38.18 -8.4 -5.34zm66.93 40.65l4.6 -8.94 8.94 4.6 -4.6 8.94 -8.94 -4.6zm15.97 9.76l54.75 -54.27 9.55 4.3 -2.86 77.66 -9.88 -4.45 1.37 -23.31 -27.63 -12.45 -16.08 16.68 -9.21 -4.15zm31.02 -18.43l22.36 10.08 1.36 -21.28c0.43,-6.46 0.93,-11.73 1.47,-15.82 -2.83,3.87 -5.93,7.53 -9.31,11l-15.88 16.02zm37.59 49.04l26.15 -67.06 29.72 11.59c5.98,2.33 10.28,4.71 12.92,7.12 2.64,2.41 4.29,5.5 4.96,9.27 0.67,3.77 0.28,7.5 -1.16,11.18 -1.86,4.76 -4.97,8.17 -9.31,10.23 -4.35,2.06 -9.89,2.27 -16.67,0.66 1.92,2.04 3.26,3.86 4.05,5.43 1.66,3.38 2.95,7.32 3.86,11.79l4.47 22.79 -11.08 -4.32 -3.42 -17.41c-1,-5.05 -1.94,-8.96 -2.77,-11.74 -0.85,-2.8 -1.77,-4.86 -2.76,-6.24 -0.98,-1.35 -2.11,-2.48 -3.35,-3.36 -0.92,-0.59 -2.52,-1.34 -4.81,-2.24l-10.27 -4.01 -11.61 29.78 -8.9 -3.47zm23.51 -33.99l19.04 7.43c4.06,1.58 7.38,2.39 9.98,2.44 2.6,0.06 4.86,-0.61 6.75,-2.01 1.9,-1.38 3.28,-3.15 4.12,-5.32 1.24,-3.17 1.12,-6.24 -0.38,-9.17 -1.5,-2.94 -4.72,-5.37 -9.67,-7.3l-21.2 -8.27 -8.65 22.2zm44.17 59.12l19.74 -69.21 13.73 3.91 2.4 53.66c0.21,4.99 0.34,8.72 0.38,11.19 1.51,-2.29 3.8,-5.64 6.87,-10.04l30.39 -43.39 12.26 3.5 -19.74 69.22 -8.8 -2.51 16.51 -57.9 -36.72 52.14 -8.25 -2.35 -3.16 -64.66 -16.82 58.97 -8.8 -2.51zm119.05 -0.11l1.45 -8.32 30.01 5.23 -4.58 26.28c-5.24,2.86 -10.48,4.81 -15.7,5.8 -5.22,0.99 -10.42,1.04 -15.57,0.15 -6.96,-1.21 -13.03,-3.8 -18.2,-7.78 -5.16,-3.96 -8.71,-9.03 -10.62,-15.17 -1.92,-6.15 -2.27,-12.71 -1.06,-19.66 1.2,-6.9 3.76,-13.09 7.69,-18.57 3.93,-5.47 8.84,-9.19 14.76,-11.14 5.92,-1.96 12.41,-2.33 19.48,-1.1 5.12,0.89 9.61,2.52 13.46,4.91 3.85,2.39 6.7,5.27 8.53,8.63 1.84,3.38 2.95,7.57 3.34,12.55l-8.87 0.84c-0.45,-3.78 -1.27,-6.85 -2.48,-9.21 -1.23,-2.34 -3.18,-4.38 -5.91,-6.13 -2.7,-1.75 -5.85,-2.94 -9.43,-3.56 -4.27,-0.75 -8.09,-0.73 -11.45,0.03 -3.35,0.76 -6.15,2.04 -8.46,3.85 -2.29,1.79 -4.18,3.88 -5.68,6.24 -2.57,4.09 -4.3,8.69 -5.2,13.82 -1.11,6.34 -0.94,11.82 0.48,16.48 1.44,4.64 4.06,8.36 7.84,11.14 3.8,2.79 8.03,4.6 12.7,5.41 4.06,0.71 8.16,0.61 12.3,-0.29 4.14,-0.91 7.35,-2.07 9.66,-3.52l2.31 -13.29 -20.8 -3.62zm39.25 35.56l5.44 -71.77 51.82 3.93 -0.64 8.42 -42.3 -3.2 -1.67 22.05 39.59 3 -0.64 8.42 -39.59 -3 -1.85 24.46 44 3.34 -0.64 8.42 -53.53 -4.06zm66.56 4.95l1.6 -71.96 9.78 0.22 36.49 57.32 1.26 -56.48 9.14 0.2 -1.6 71.96 -9.78 -0.22 -36.5 -57.32 -1.26 56.48 -9.14 -0.2zm72.92 1.15l-5.44 -71.77 51.82 -3.93 0.64 8.42 -42.3 3.21 1.67 22.05 39.59 -3 0.64 8.42 -39.59 3 1.85 24.46 44 -3.33 0.64 8.42 -53.53 4.06zm66.82 -5.42l-9.26 -71.38 31.63 -4.1c6.36,-0.83 11.28,-0.8 14.76,0.05 3.47,0.85 6.41,2.77 8.8,5.75 2.4,2.98 3.84,6.44 4.35,10.37 0.66,5.07 -0.43,9.55 -3.26,13.45 -2.82,3.9 -7.59,6.74 -14.31,8.58 2.66,0.87 4.71,1.82 6.16,2.82 3.09,2.17 6.1,5 9.04,8.49l14.87 17.84 -11.8 1.53 -11.36 -13.63c-3.3,-3.95 -6,-6.93 -8.07,-8.97 -2.09,-2.04 -3.89,-3.42 -5.42,-4.15 -1.51,-0.72 -3.04,-1.16 -4.55,-1.34 -1.09,-0.08 -2.85,0.03 -5.29,0.35l-10.93 1.42 4.11 31.7 -9.47 1.23zm4.3 -41.1l20.27 -2.63c4.32,-0.56 7.62,-1.44 9.93,-2.65 2.31,-1.2 3.97,-2.86 4.96,-5 1.01,-2.12 1.36,-4.33 1.06,-6.64 -0.44,-3.37 -2.01,-6.01 -4.74,-7.87 -2.72,-1.86 -6.72,-2.44 -11.99,-1.76l-22.56 2.93 3.06 23.62zm59.66 32.49l10.84 -76.32 10.21 -2.34 44.63 63.61 -10.56 2.42 -12.99 -19.4 -29.54 6.77 -2.74 23 -9.85 2.26zm13.58 -33.43l23.91 -5.48 -11.77 -17.77c-3.56,-5.41 -6.34,-9.91 -8.39,-13.5 0.08,4.79 -0.18,9.58 -0.78,14.39l-2.97 22.35zm69.69 12.96l-17.5 -61.07 -22.81 6.53 -2.33 -8.12 54.79 -15.7 2.33 8.12 -22.81 6.53 17.5 61.07 -9.18 2.63zm42.62 -13.48l-22.93 -68.22 9.05 -3.04 22.93 68.22 -9.05 3.04zm9.28 -40.4c-4.35,-11.11 -4.77,-20.98 -1.26,-29.61 3.51,-8.63 9.99,-14.78 19.44,-18.49 6.19,-2.43 12.34,-3.13 18.47,-2.13 6.12,1.01 11.52,3.64 16.2,7.9 4.67,4.25 8.33,9.73 10.95,16.42 2.66,6.79 3.67,13.41 3.02,19.83 -0.64,6.44 -2.94,12.02 -6.88,16.73 -3.96,4.73 -8.85,8.23 -14.67,10.51 -6.32,2.48 -12.55,3.15 -18.72,2.06 -6.15,-1.1 -11.55,-3.77 -16.18,-8.04 -4.62,-4.25 -8.08,-9.32 -10.38,-15.2zm9.23 -3.44c3.16,8.06 7.82,13.56 13.97,16.5 6.15,2.93 12.51,3.12 19.06,0.56 6.68,-2.62 11.23,-7.1 13.72,-13.48 2.47,-6.37 2.02,-13.85 -1.35,-22.46 -2.13,-5.44 -4.92,-9.84 -8.35,-13.17 -3.43,-3.34 -7.36,-5.43 -11.78,-6.27 -4.43,-0.84 -8.85,-0.4 -13.26,1.33 -6.27,2.46 -10.82,6.73 -13.66,12.8 -2.84,6.08 -2.29,14.14 1.66,24.2zm78.03 4.28l-32.91 -64.01 8.7 -4.48 59.42 32.97 -25.83 -50.24 8.14 -4.18 32.91 64.01 -8.7 4.47 -59.42 -32.97 25.83 50.24 -8.14 4.18zm65.2 -35.18l-4.98 -8.73 8.73 -4.98 4.98 8.73 -8.73 4.98zm50.38 -63.38l9.19 -3.54c2.88,7.54 3.38,14.47 1.52,20.81 -1.86,6.34 -5.85,11.67 -11.97,15.99 -6.32,4.46 -12.38,6.81 -18.17,7.02 -5.79,0.23 -11.43,-1.38 -16.95,-4.81 -5.53,-3.44 -10.27,-7.95 -14.23,-13.56 -4.32,-6.12 -6.92,-12.28 -7.8,-18.49 -0.88,-6.21 0.01,-12.02 2.65,-17.43 2.64,-5.41 6.56,-9.94 11.73,-13.59 5.89,-4.15 11.88,-6.15 17.99,-5.97 6.13,0.17 11.89,2.4 17.28,6.71l-6.36 7.2c-4.37,-3.32 -8.56,-5.03 -12.51,-5.15 -3.97,-0.13 -7.91,1.2 -11.84,3.97 -4.5,3.18 -7.52,6.93 -9.02,11.22 -1.5,4.3 -1.58,8.72 -0.22,13.22 1.35,4.52 3.39,8.72 6.12,12.6 3.53,5 7.33,8.85 11.41,11.55 4.09,2.71 8.31,3.9 12.68,3.58 4.37,-0.32 8.33,-1.74 11.9,-4.26 4.35,-3.07 7.13,-6.92 8.37,-11.55 1.23,-4.65 0.65,-9.81 -1.78,-15.51zm7.89 -17.72c-7.35,-9.39 -10.58,-18.74 -9.69,-28.01 0.89,-9.27 5.33,-17.02 13.33,-23.28 5.24,-4.1 10.93,-6.53 17.09,-7.34 6.15,-0.79 12.08,0.18 17.78,2.93 5.69,2.73 10.77,6.93 15.2,12.59 4.49,5.74 7.36,11.79 8.58,18.13 1.23,6.35 0.63,12.36 -1.8,18 -2.43,5.67 -6.12,10.43 -11.04,14.28 -5.34,4.18 -11.12,6.62 -17.34,7.34 -6.21,0.71 -12.15,-0.3 -17.8,-3.06 -5.65,-2.75 -10.41,-6.61 -14.31,-11.59zm7.86 -5.94c5.34,6.82 11.38,10.75 18.11,11.8 6.73,1.05 12.88,-0.59 18.42,-4.93 5.65,-4.42 8.73,-10.02 9.28,-16.84 0.54,-6.81 -2.04,-13.85 -7.74,-21.13 -3.6,-4.6 -7.53,-8.02 -11.78,-10.23 -4.24,-2.21 -8.61,-3.09 -13.08,-2.63 -4.48,0.47 -8.59,2.15 -12.33,5.07 -5.3,4.15 -8.44,9.55 -9.42,16.18 -0.97,6.64 1.86,14.2 8.53,22.71zm76.13 -17.94l-49.7 -52.06 10.32 -9.86 47.49 25.1c4.41,2.34 7.69,4.12 9.84,5.33 -1.21,-2.46 -2.94,-6.14 -5.18,-11.01l-22.04 -48.17 9.22 -8.8 49.7 52.06 -6.62 6.32 -41.58 -43.55 26.38 58.06 -6.21 5.92 -57.37 -30.01 42.34 44.35 -6.61 6.32z"/>
  </g>
 </g>
</svg>
