<svg width="38" height="38" viewBox="0 0 38 38" fill="none" xmlns="http://www.w3.org/2000/svg">
<rect width="38" height="38" fill="black" fill-opacity="0"/>
<rect width="38" height="38" fill="black" fill-opacity="0"/>
<rect width="38" height="38" fill="black" fill-opacity="0"/>
<path d="M33.7778 0H4.22222C1.9 0 0 1.9 0 4.22222V33.7778C0 36.1 1.9 38 4.22222 38H33.7778C36.1 38 38 36.1 38 33.7778V4.22222C38 1.9 36.1 0 33.7778 0ZM14.3556 21.9556V29.5556H10.5556V8.44444H19.6333C22.8 8.44444 24.2778 9.07778 25.5444 10.3444C27.0222 11.6111 27.4444 13.3 27.4444 15.2C27.4444 17.3111 26.811 19 25.5444 20.0556C24.2777 21.1111 22.8 21.7444 19.6333 21.7444H14.3556V21.9556Z" fill="black"/>
<path d="M14.3555 19V11.4H19.211C20.6889 11.4 21.7444 11.8222 22.3777 12.6667C23.011 13.5111 23.4332 14.1445 23.4332 15.2C23.4332 16.4667 23.011 17.1 22.3777 17.9445C21.7444 18.5778 20.8999 19 19.4221 19H14.3555Z" fill="black"/>
</svg>
