<svg width="40" height="37" viewBox="0 0 40 37" fill="none" xmlns="http://www.w3.org/2000/svg">
<rect width="40" height="37" fill="black" fill-opacity="0"/>
<rect width="40" height="37" fill="black" fill-opacity="0"/>
<path d="M19.0176 8.79822V21.0588H26.8078V18.9031H21.1666V8.79822H19.0176Z" fill="black"/>
<path d="M40.0006 18.6295C40.0006 8.35592 31.6569 0 21.4153 0C12.2291 0 4.58326 6.77727 3.1042 15.5348H0.121094L5.26558 24.4271L10.5608 15.5348H7.47705C8.88815 9.06771 14.6086 4.31141 21.4253 4.31141C29.2967 4.31141 35.7025 10.7345 35.7025 18.6304C35.7025 25.4535 30.838 31.1754 24.5252 32.6049V37C33.2556 35.5162 40.0006 27.844 40.0006 18.6295Z" fill="black"/>
<path d="M3.27567 35.051L4.64231 33.5936C5.53026 32.6242 6.1395 31.8986 6.47019 31.407C6.80087 30.9152 6.96621 30.3521 6.96621 29.7118C6.96621 28.7607 6.65514 28.0131 6.03313 27.4654C5.41112 26.9183 4.5452 26.6448 3.43523 26.6448C2.38987 26.6448 1.55054 26.9714 0.916984 27.6229C0.283291 28.2748 -0.0220037 29.088 0.00123259 30.0251L0.0152012 30.0857H2.30444C2.30444 29.5468 2.40505 29.2217 2.60625 28.9224C2.80745 28.6229 3.08373 28.4642 3.43537 28.4642C3.82837 28.4642 4.12319 28.5755 4.31969 28.8076C4.51632 29.0395 4.61451 29.3479 4.61451 29.7378C4.61451 30.0114 4.5174 30.3327 4.32318 30.7037C4.12896 31.075 3.84892 31.4965 3.43765 31.9699L0.213851 35.393V36.9571H7.19817V35.0709H3.29649L3.27567 35.051Z" fill="black"/>
<path d="M13.6452 26.8523H11.3618V26.8129L7.28516 33.3583L7.39852 34.8015H11.3618V36.9572H13.6452V34.8015H14.7197V33.05H13.6452V26.8523ZM11.3618 33.05H9.35493L11.0893 30.1553L11.295 29.8509L11.3618 29.847V33.05Z" fill="black"/>
<path d="M22.3758 36.9571V32.5955C22.3758 32.2713 22.3839 31.9739 22.3482 31.6982C22.2576 31.0029 22.0697 30.4582 21.7521 30.0695C21.3079 29.5267 20.7046 29.2553 19.9276 29.2553C19.5344 29.2553 19.2039 29.3492 18.8778 29.5372C18.5517 29.7251 18.2121 29.9885 18.0778 30.3271V26.7175H15.6602V36.9571H18.0778V31.4473C18.0778 31.3267 18.302 31.2328 18.4687 31.1654C18.6349 31.0983 18.8188 31.0646 19.0454 31.0646C19.4016 31.0646 19.6627 31.1736 19.8361 31.3915C20.0096 31.6096 20.0925 32.0063 20.0925 32.5817V36.9571H20.9091H22.3758Z" fill="black"/>
</svg>
