<svg width="40" height="32" viewBox="0 0 40 32" fill="none" xmlns="http://www.w3.org/2000/svg">
<rect width="40" height="31.6633" fill="black" fill-opacity="0"/>
<rect width="40" height="31.6633" fill="black" fill-opacity="0"/>
<rect width="40" height="31.6633" fill="black" fill-opacity="0"/>
<path d="M20.054 31.6632C22.3512 31.6632 24.2134 29.801 24.2134 27.5038C24.2134 25.2066 22.3512 23.3444 20.054 23.3444C17.7568 23.3444 15.8945 25.2066 15.8945 27.5038C15.8945 29.801 17.7568 31.6632 20.054 31.6632Z" fill="#53D7B7"/>
<path d="M31.9217 16.4863C30.3808 14.9454 28.5861 13.7342 26.5866 12.8925C24.5158 12.0152 22.3158 11.5698 20.0535 11.5698C17.7378 11.5698 15.4933 12.033 13.3824 12.9459C11.3472 13.8277 9.53023 15.088 7.98047 16.6912L13.1018 21.6433C14.9411 19.7417 17.4038 18.6952 20.0491 18.6952C22.6275 18.6952 25.0546 19.7017 26.8805 21.5231L31.9217 16.4863Z" fill="#53D7B7"/>
<path d="M20.0535 0C16.228 0 12.5139 0.748118 9.01358 2.23113C5.63794 3.66065 2.60521 5.70474 0 8.3055L5.03674 13.3422C6.98731 11.3917 9.25852 9.85972 11.7836 8.79091C14.3977 7.68648 17.1766 7.12536 20.0445 7.12536C25.678 7.12536 30.982 9.3075 34.9855 13.271L40 8.20753C37.4126 5.63794 34.3888 3.61612 31.031 2.20441C27.5528 0.74371 23.8566 0 20.0535 0Z" fill="#53D7B7"/>
</svg>
