<svg width="15" height="22" viewBox="0 0 15 22" fill="none" xmlns="http://www.w3.org/2000/svg">
<path d="M7.5 0C3.35801 0 0 3.35801 0 7.49996C0 7.81704 0.0254371 8.12607 0.064209 8.43242C0.705067 14.2909 7.013 21.043 7.013 21.043C7.1254 21.1688 7.23375 21.2464 7.33809 21.3025L7.34346 21.3052L7.55351 21.3721L7.76357 21.3052L7.76894 21.3025C7.87328 21.2463 7.98168 21.1647 8.09403 21.043C8.09403 21.043 14.311 14.2788 14.9371 8.41908C14.9746 8.11674 15 7.81035 15 7.49864C14.9986 3.35801 11.642 0 7.5 0ZM7.5 12.3243C4.84036 12.3243 2.67574 10.1596 2.67574 7.5C2.67574 4.84037 4.84036 2.67574 7.5 2.67574C10.1596 2.67574 12.3229 4.84037 12.3229 7.5C12.3229 10.1596 10.1596 12.3243 7.5 12.3243Z" fill="#35D1D1"/>
</svg>
