<svg width="32" height="25" viewBox="0 0 32 25" fill="none" xmlns="http://www.w3.org/2000/svg">
<rect width="31.07" height="24.66" fill="black" fill-opacity="0"/>
<rect width="31.07" height="24.66" fill="black" fill-opacity="0"/>
<rect width="31.07" height="24.66" fill="black" fill-opacity="0"/>
<path d="M27.429 0H3.64102C1.63336 0 0 1.29638 0 2.88984V21.7702C0 23.3636 1.63336 24.66 3.64102 24.66H27.429C29.4366 24.66 31.07 23.3636 31.07 21.7702V2.88984C31.07 1.29638 29.4366 0 27.429 0ZM11.7726 22.7334H7.94955V16.5684H11.7726V22.7334ZM11.7726 14.6419H7.94955V13.5823C7.94955 13.3622 8.10326 12.5833 9.87419 11.0194C11.2569 12.2518 11.7726 13.1346 11.7726 13.5823V14.6419ZM23.1811 22.7334H19.3581V16.5684H23.1811V22.7334ZM23.1811 14.6419H19.3581V13.5823C19.3581 13.3622 19.5118 12.5833 21.2827 11.0194C22.6654 12.2518 23.1811 13.1346 23.1811 13.5823V14.6419ZM28.6427 21.7702C28.6427 22.3013 28.0982 22.7334 27.429 22.7334H25.6085V13.5823C25.6085 12.3935 24.5677 10.9335 22.5136 9.23922V3.85313H20.0863V9.21432C17.9644 10.9539 16.9307 12.3851 16.9307 13.5823V22.7334H14.2V13.5823C14.2 12.3935 13.1592 10.9335 11.1051 9.23922V3.85313H8.67775V9.21432C6.55589 10.9538 5.52221 12.3851 5.52221 13.5823V22.7334H3.64102C2.9718 22.7334 2.42734 22.3013 2.42734 21.7702V2.88984C2.42734 2.35869 2.9718 1.92656 3.64102 1.92656H27.429C28.0982 1.92656 28.6427 2.35869 28.6427 2.88984V21.7702Z" fill="#53D7B7"/>
</svg>
