<?xml version="1.0" encoding="UTF-8"?>
<!DOCTYPE svg PUBLIC "-//W3C//DTD SVG 1.1//EN" "http://www.w3.org/Graphics/SVG/1.1/DTD/svg11.dtd">
<!-- Creator: CorelDRAW 2017 -->
<svg xmlns="http://www.w3.org/2000/svg" xml:space="preserve" width="140.224mm" height="114.723mm" version="1.1" style="shape-rendering:geometricPrecision; text-rendering:geometricPrecision; image-rendering:optimizeQuality; fill-rule:evenodd; clip-rule:evenodd"
viewBox="0 0 4278.85 3500.71"
 xmlns:xlink="http://www.w3.org/1999/xlink">
 <defs>
  <style type="text/css">
   <![CDATA[
    .str0 {stroke:#2B2A29;stroke-width:6.1;stroke-miterlimit:22.9256}
    .fil1 {fill:#FEFEFE}
    .fil0 {fill:#2B2A29}
   ]]>
  </style>
 </defs>
 <g id="Layer_x0020_1">
  <metadata id="CorelCorpID_0Corel-Layer"/>
  <rect class="fil0 str0" x="3.05" y="3.05" width="4272.75" height="3494.61" rx="523.49" ry="523.49"/>
  <g id="_1680988741392">
   <path class="fil1" d="M627.71 1016.3c0,145.67 -6.54,569.99 4.31,685.55 133.33,23.88 107.41,23.4 107.41,-240.6 0,-91.89 -7.7,-224.74 2.69,-311.67 56.52,91.6 104.82,198.4 158.12,297.05 81.32,150.54 103.4,262.63 198.63,262.58 61.32,-0.03 74.23,-9.33 74.23,-71.82l0 -639.62c0,-50.09 -5.34,-55.91 -55.7,-55.98 -71.73,-0.11 -58.8,26.19 -57.96,92.85l-0.95 462.57c-41.8,-50.92 -117.86,-217.03 -158.07,-291.71 -28.56,-53.05 -50.55,-98.36 -79.45,-151.66 -43.86,-80.91 -29.19,-112.05 -129.76,-112.05 -60.56,0 -63.51,16.82 -63.51,74.52z"/>
   <path class="fil1" d="M1516.5 1050.37c158.86,-43.49 207.05,82.03 208.18,225.47 1.04,132.36 12.36,297.73 -116.92,325.67 -170.31,36.8 -209.3,-92.42 -209.03,-232.9 0.29,-152.92 -18.13,-281.03 117.78,-318.24zm-38.62 -102.95c-203.9,53.29 -203.2,245.44 -198,467.78 4.77,203.97 142.41,345.29 367.18,288.32 192.25,-48.73 204.43,-241.33 195.94,-465 -7.88,-207.17 -140.37,-349.83 -365.12,-291.09z"/>
   <path class="fil1" d="M2658.14 1357.54c1.27,-44.76 68.1,-286.89 89.01,-311.75 15.93,41.66 81.88,269.16 82.65,311.85l-171.66 -0.1zm-207.04 344.58l106.2 5.56 69.59 -243.9 232.35 0.88c14.12,29.06 26.83,83.99 36.15,117.22 29.87,106.42 19.07,148.54 141.59,120.86 8.22,-60.62 -130.92,-511.72 -163.76,-627.97 -21.67,-76.71 -33.1,-141.07 -134.55,-137.76 -93.52,3.04 -102.95,62.93 -124.23,140.09 -32.08,116.31 -178.01,575.93 -163.33,625.03z"/>
   <path class="fil1" d="M3172.51 1693.72c24.07,20.25 57.43,22.17 94.39,8.34 30.31,-43.22 12.99,-238.58 15.66,-307.63 19.35,11.74 3.34,-1.01 23.1,18.53l221.89 269.55c27.35,32.25 95.19,38.78 143.27,16.37 2.14,-44.56 -107.06,-157.33 -140.41,-195.46 -27.73,-31.71 -138.38,-158.12 -152.31,-190.49 22.79,-36.88 50.07,-56.04 76.9,-89.84l156.11 -177.57c23.35,-28.68 74.32,-59.79 52.05,-91.93 -35.25,-28.7 -107.46,-12.19 -130.56,13.55 -55.62,61.98 -203.78,251.46 -251.08,277.15 -0.05,-40.99 6.22,-263.92 -5.47,-284.23 -14.53,-25.23 -94.36,-31.23 -108,3.2 -4.62,11.66 -16.17,684.02 4.46,730.46z"/>
   <path class="fil1" d="M2433.05 941.82l-46.46 1.65c-50.55,74.56 -150.9,598.54 -194.43,654.83 -17.67,-26.3 -142.5,-500.2 -170.43,-606.26 -13.64,-51.8 -13.12,-50.24 -70.47,-50.21 -63.67,0.03 -63.31,17.57 -47,73.48l154.54 541.08c24.7,86.45 31.63,155.99 133.34,156.83 100.81,0.83 109.35,-62.21 132.81,-147.14 20.84,-75.47 41.17,-143.99 61.39,-216.96l92.48 -325.2c17.13,-57.67 28.51,-85.46 -45.77,-82.08z"/>
   <path class="fil1" d="M1741.2 2153.45l4.78 229.78c-114.59,11.39 -136.62,-4.83 -136.58,-115.51 0.04,-104.88 25.73,-127.75 131.8,-114.27zm5.1 -66.24c-155.85,-6.02 -208.29,21.34 -208.29,180.51 0,75.96 13.37,136.85 68.78,168.39 44.65,25.42 155.33,23.49 205.16,-1.53 20.16,-46.03 7.34,-256.96 7.37,-324.44 0.02,-38.31 16.55,-130.99 -20.2,-144.88 -71.84,-27.15 -52.82,73.68 -52.82,121.96z"/>
   <path class="fil1" d="M677.64 2383.6c-3.16,-56.88 -2.69,-124.5 -2.05,-181.9 0.42,-37.86 -3.19,-47.56 34.38,-51.98 32.32,-3.8 63.79,1.98 80.37,18.67 10.55,10.63 102.87,262.73 -112.71,215.21zm-67.75 178.36l62.54 4.64 4.71 -111.9c118.56,-18.26 186.66,8.39 205.98,-124.4 29.31,-201.39 -67.57,-279.15 -238.94,-237.82 -56.98,13.74 -38.21,61.17 -38,128.89 0.3,95.09 -9.42,253.33 3.7,340.59z"/>
   <path class="fil1" d="M1247.45 2267.72c0,-168.34 151.3,-153.55 151.3,-9.27l0 18.54c0,147.07 -151.3,153.53 -151.3,0l0 -9.27zm-70.68 0c-0.06,113.58 30.11,184.3 144.51,184.88 112.51,0.58 148.66,-78.77 148.5,-184.88 -0.16,-105.37 -33.37,-179.93 -139.59,-183.91 -115.63,-4.33 -153.36,69.79 -153.41,183.91z"/>
   <path class="fil1" d="M3086.94 2323.34c-35.74,-220.74 128.98,-203.96 144.17,-111.18 36.68,224.03 -129.16,203.87 -144.17,111.18zm32.4 -234.2c-97.42,25.78 -115.5,109.43 -105.03,225.03 8.6,94.95 79.65,162.8 191.49,132.85 162.9,-43.62 140.19,-417.87 -86.46,-357.88z"/>
   <path class="fil1" d="M2182.89 2442.43c15.35,-33.74 11.81,-298.06 3.73,-345.55 -82.79,-32.6 -69.38,23.35 -68.58,87.25 0.7,55.57 0.18,111.42 0.18,167.01 -21.74,39.18 -94.44,50.16 -123.69,10.29 -33.05,-64.33 6.34,-198.36 -16.27,-268.61l-61.21 -1.8c-13.08,60.74 -12.63,262.38 12.32,309.19 19.81,37.18 60.02,56.38 113.75,51.64 28.82,-2.54 44.97,-13.71 65.08,-13.12 34.44,1.01 18.07,18.21 74.69,3.68z"/>
   <path class="fil1" d="M3397.74 2092.4c-11.35,84.1 -8.13,262.07 -2.83,351.82l64.51 1.08 3.86 -270.28c191.44,-111.43 122.95,142.95 138.94,266.57l63.77 5.7c11.74,-94.92 31.94,-327.19 -71.05,-358 -39.94,-11.95 -59.95,-5 -96.56,4.7 -66.84,17.71 -22.64,-14.85 -100.64,-1.58z"/>
   <path class="fil1" d="M2632.74 2087.7c-36.11,0.7 -69.15,-9.7 -66.66,30.24 1.93,30.96 37.96,28.07 67.57,31.31 6.76,65.15 -7.25,201.23 8.82,251.85 21.6,68.01 173.7,81.55 142.65,-2.94l-72.51 -11.34 0.19 -236.84c37.84,-0.51 45.31,6.34 72.76,-12.03l1.62 -37.08c-29.79,-19.49 -34.99,-12.55 -72.37,-13.12 -7.42,-35.74 0.75,-43.28 -13.08,-73.5l-57.9 0.85 -11.09 72.6z"/>
   <path class="fil1" d="M2273.24 2267.72c-0.15,76.78 17.21,133.08 61.48,163.21 44.74,30.44 142.29,31.73 177.78,0.6l-0.13 -38.51c-93.43,-44.99 -169.14,63.06 -169.14,-134.57 0,-165.61 90.99,-79.42 168.45,-114.99 3.47,-47.14 -6.66,-53.7 -51.61,-58.46 -126.96,-13.43 -186.56,40.57 -186.84,182.72z"/>
   <path class="fil1" d="M973.03 2095.1c-10.4,77.7 -8.17,263.7 -2.06,345.59 112.87,43.62 54.92,-68.7 72.5,-265.66 36.25,-28.22 55.81,-18.52 95.17,-32.05l-4.32 -56.22c-54.36,-6.8 -44.06,5.24 -76.85,9.6 -44.69,5.95 -23.56,-19.68 -84.44,-1.26z"/>
   <polygon class="fil1" points="2867.65,2087.79 2854.59,2098.78 2853.9,2118.03 2854.59,2433.49 2868.34,2441.74 2901.33,2443.8 2918.51,2434.86 2924.69,2413.56 2922.63,2096.72 2917.13,2084.35 2875.9,2083.66 "/>
   <path class="fil1" d="M2862.84 1959.27l-13.06 12.37 0 24.74 -4.81 39.86 14.43 11.68 37.11 2.75c0,0 15.12,-2.06 20.62,-4.81 5.5,-2.75 12.37,-7.56 12.37,-12.37 0,-4.81 -1.37,-57.05 -1.37,-57.05l-13.75 -16.49c0,0 -10.31,-3.44 -17.18,-4.81 -6.87,-1.37 -34.37,4.13 -34.37,4.13z"/>
  </g>
 </g>
</svg>
