<svg width="25" height="25" viewBox="0 0 25 25" fill="none" xmlns="http://www.w3.org/2000/svg">
<rect width="24.66" height="24.66" fill="black" fill-opacity="0"/>
<rect width="24.66" height="24.66" fill="black" fill-opacity="0"/>
<rect width="24.66" height="24.66" fill="black" fill-opacity="0"/>
<path d="M21.92 0H2.74C1.233 0 0 1.233 0 2.74V21.92C0 23.427 1.233 24.66 2.74 24.66H21.92C23.427 24.66 24.66 23.427 24.66 21.92V2.74C24.66 1.233 23.427 0 21.92 0ZM9.316 14.248V19.18H6.85V5.48H12.741C14.796 5.48 15.755 5.891 16.5769 6.713C17.536 7.535 17.8099 8.631 17.8099 9.864C17.8099 11.234 17.3989 12.33 16.5769 13.015C15.7549 13.7 14.796 14.111 12.741 14.111H9.316V14.248Z" fill="#53D7B7"/>
<path d="M9.31641 12.33V7.39801H12.4674C13.4265 7.39801 14.1115 7.67201 14.5224 8.22001C14.9334 8.76801 15.2074 9.17901 15.2074 9.86401C15.2074 10.686 14.9334 11.097 14.5224 11.645C14.1115 12.056 13.5634 12.33 12.6044 12.33H9.31641Z" fill="#53D7B7"/>
</svg>
