<?xml version="1.0" encoding="iso-8859-1"?>
<!-- Generator: Adobe Illustrator 19.0.0, SVG Export Plug-In . SVG Version: 6.00 Build 0)  -->
<svg version="1.1" id="Capa_1" xmlns="http://www.w3.org/2000/svg" xmlns:xlink="http://www.w3.org/1999/xlink" x="0px" y="0px"
	 viewBox="0 0 480 480" style="enable-background:new 0 0 480 480;" xml:space="preserve">
<g>
	<g>
		<path d="M472,208h-24.44c-3.52-39.096-32.48-71.6-71.56-83.304V112c0-17.648-14.352-32-32-32s-32,14.352-32,32v12.696
			c-11.72,3.512-22.504,8.92-32,15.792V136c0-1.24-0.288-2.472-0.84-3.576L256,86.112V40V8c0-4.416-3.576-8-8-8h-32
			c-4.424,0-8,3.584-8,8v32v46.112l-23.16,46.312c-0.552,1.104-0.84,2.336-0.84,3.576v8v40v24h-40v-49.136
			c13.768-3.576,24-16,24-30.864V88c0-4.416-3.576-8-8-8h-48c-4.424,0-8,3.584-8,8v40c0,14.864,10.232,27.288,24,30.864V208H64
			v-49.136c13.768-3.576,24-16,24-30.864V88c0-4.416-3.576-8-8-8H32c-4.424,0-8,3.584-8,8v40c0,14.864,10.232,27.288,24,30.864V208
			H8c-4.424,0-8,3.584-8,8v88c0,22.056,17.944,40,40,40h16v40v33.136c-13.768,3.576-24,16-24,30.864c0,17.648,14.352,32,32,32
			s32-14.352,32-32c0-14.864-10.232-27.288-24-30.864V392h336v25.136c-13.768,3.576-24,16-24,30.864c0,17.648,14.352,32,32,32
			s32-14.352,32-32c0-14.864-10.232-27.288-24-30.864V384v-40h16c22.056,0,40-17.944,40-40v-88C480,211.584,476.424,208,472,208z
			 M328,112c0-8.824,7.176-16,16-16c8.824,0,16,7.176,16,16v9.2c-0.616-0.088-1.224-0.128-1.84-0.208
			c-1.704-0.216-3.4-0.44-5.128-0.576C350,120.168,346.984,120,344,120s-6,0.168-9.032,0.424c-1.728,0.136-3.424,0.36-5.128,0.576
			c-0.616,0.08-1.224,0.112-1.84,0.2V112z M266.904,177.712c0.56-0.928,1.08-1.88,1.68-2.784c0.888-1.344,1.88-2.64,2.856-3.936
			c0.488-0.648,0.928-1.32,1.44-1.96c1.48-1.84,3.048-3.632,4.704-5.368c11.456-12,26.744-20.856,44.144-25
			c0.032-0.008,0.064,0.008,0.096,0c3.576-0.848,7.12-1.456,10.64-1.896c0.288-0.032,0.568-0.08,0.856-0.112
			c7.136-0.832,14.208-0.832,21.344,0c0.288,0.032,0.568,0.08,0.856,0.112c3.52,0.44,7.056,1.056,10.64,1.896
			c0.064,0.016,0.136,0.008,0.208,0.024c34.968,8.376,61.52,35.8,65.192,69.312H256.48c0.144-1.256,0.36-2.496,0.56-3.736
			c0.16-0.96,0.272-1.928,0.464-2.88c0.368-1.768,0.832-3.512,1.328-5.248c0.152-0.544,0.28-1.096,0.44-1.64
			c0.608-1.952,1.312-3.88,2.08-5.792c0.12-0.296,0.224-0.6,0.344-0.896c0.384-0.912,0.856-1.792,1.272-2.696
			c0.632-1.36,1.248-2.736,1.96-4.056C265.536,179.92,266.24,178.824,266.904,177.712z M224,16h16v16h-16V16z M223.16,91.576
			C223.712,90.472,224,89.24,224,88V48h16v40c0,1.24,0.288,2.472,0.84,3.576L263.056,136h-62.112L223.16,91.576z M200,152h64v2.744
			c-1.032,1.144-1.952,2.368-2.92,3.56c-0.76,0.936-1.552,1.848-2.272,2.8c-0.816,1.072-1.584,2.168-2.352,3.28
			c-0.28,0.4-0.552,0.808-0.832,1.216c-0.56,0.832-1.096,1.672-1.632,2.52c-0.832,1.328-1.64,2.672-2.408,4.04
			c-0.568,1.024-1.096,2.056-1.624,3.096c-0.128,0.256-0.312,0.488-0.44,0.752H200V152z M200,192h43.376
			c-0.28,1-0.552,2-0.792,3.008c-0.288,1.2-0.552,2.408-0.792,3.624c-0.36,1.816-0.656,3.632-0.904,5.472
			c-0.136,0.992-0.296,1.976-0.392,2.976c-0.032,0.312-0.096,0.616-0.12,0.92H200V192z M120,128V96h32v32c0,8.824-7.176,16-16,16
			C127.176,144,120,136.824,120,128z M40,128V96h32v32c0,8.824-7.176,16-16,16S40,136.824,40,128z M80,448c0,8.824-7.176,16-16,16
			s-16-7.176-16-16c0-8.824,7.176-16,16-16S80,439.176,80,448z M72,376v-32h336v32H72z M432,448c0,8.824-7.176,16-16,16
			c-8.824,0-16-7.176-16-16c0-8.824,7.176-16,16-16C424.824,432,432,439.176,432,448z M464,304c0,13.232-10.768,24-24,24h-24H64H40
			c-13.232,0-24-10.768-24-24v-80h176h56h192h24V304z"/>
	</g>
</g>
<g>
	<g>
		<rect x="384" y="176" width="16" height="16"/>
	</g>
</g>
<g>
	<g>
		<rect x="328" y="176" width="40" height="16"/>
	</g>
</g>
<g>
	<g>
		<path d="M64,288c-4.416,0-8-3.592-8-8v-16H40v16c0,13.232,10.768,24,24,24h16v-16H64z"/>
	</g>
</g>
<g>
	<g>
		<path d="M424,264v16c0,4.408-3.584,8-8,8h-16v16h16c13.232,0,24-10.768,24-24v-16H424z"/>
	</g>
</g>
<g>
</g>
<g>
</g>
<g>
</g>
<g>
</g>
<g>
</g>
<g>
</g>
<g>
</g>
<g>
</g>
<g>
</g>
<g>
</g>
<g>
</g>
<g>
</g>
<g>
</g>
<g>
</g>
<g>
</g>
</svg>
