<svg width="32" height="25" viewBox="0 0 32 25" fill="none" xmlns="http://www.w3.org/2000/svg">
<rect width="31.07" height="24.66" fill="black" fill-opacity="0"/>
<rect width="14.9833" height="24.66" fill="black" fill-opacity="0"/>
<rect width="14.9833" height="24.66" fill="black" fill-opacity="0"/>
<mask id="path-1-inside-1" fill="white">
<path d="M7.49172 0C3.36073 0 0 2.67679 0 5.96703V12.8435C0 12.9637 0.0737915 13.0763 0.197526 13.145C0.321321 13.2136 0.479281 13.2299 0.621099 13.1883L1.47116 12.9385V19.8975C1.47116 22.5236 4.15357 24.66 7.45064 24.66C10.7478 24.66 13.4301 22.5236 13.4301 19.8975V12.9176L14.3637 13.1888C14.4151 13.2037 14.4686 13.211 14.5218 13.211C14.6152 13.211 14.7078 13.1884 14.7864 13.1446C14.9098 13.0759 14.9833 12.9635 14.9833 12.8435V5.96703C14.9834 2.67679 11.6227 0 7.49172 0ZM12.5074 19.8975C12.5074 22.1183 10.239 23.925 7.45076 23.925C4.66258 23.925 2.39416 22.1183 2.39416 19.8975V12.683C5.68013 11.8532 9.21684 11.8473 12.5074 12.6656V19.8975ZM14.0605 12.3183L13.5698 12.1758C11.6071 11.6059 9.54636 11.321 7.48547 11.321C5.4025 11.321 3.31928 11.6121 1.3382 12.1942L0.922819 12.3161V10.6773L1.65752 10.4615C5.39376 9.36374 9.51195 9.3576 13.2536 10.4441L14.0604 10.6784V12.3183H14.0605ZM14.0606 9.89608L13.5698 9.7536C9.62312 8.60752 5.27919 8.61409 1.33814 9.77196L0.922819 9.894V5.96698C0.922819 3.08211 3.86963 0.735052 7.49166 0.735052C11.1137 0.735052 14.0605 3.08211 14.0605 5.96703V9.89608H14.0606Z"/>
</mask>
<path d="M7.49172 0C3.36073 0 0 2.67679 0 5.96703V12.8435C0 12.9637 0.0737915 13.0763 0.197526 13.145C0.321321 13.2136 0.479281 13.2299 0.621099 13.1883L1.47116 12.9385V19.8975C1.47116 22.5236 4.15357 24.66 7.45064 24.66C10.7478 24.66 13.4301 22.5236 13.4301 19.8975V12.9176L14.3637 13.1888C14.4151 13.2037 14.4686 13.211 14.5218 13.211C14.6152 13.211 14.7078 13.1884 14.7864 13.1446C14.9098 13.0759 14.9833 12.9635 14.9833 12.8435V5.96703C14.9834 2.67679 11.6227 0 7.49172 0ZM12.5074 19.8975C12.5074 22.1183 10.239 23.925 7.45076 23.925C4.66258 23.925 2.39416 22.1183 2.39416 19.8975V12.683C5.68013 11.8532 9.21684 11.8473 12.5074 12.6656V19.8975ZM14.0605 12.3183L13.5698 12.1758C11.6071 11.6059 9.54636 11.321 7.48547 11.321C5.4025 11.321 3.31928 11.6121 1.3382 12.1942L0.922819 12.3161V10.6773L1.65752 10.4615C5.39376 9.36374 9.51195 9.3576 13.2536 10.4441L14.0604 10.6784V12.3183H14.0605ZM14.0606 9.89608L13.5698 9.7536C9.62312 8.60752 5.27919 8.61409 1.33814 9.77196L0.922819 9.894V5.96698C0.922819 3.08211 3.86963 0.735052 7.49166 0.735052C11.1137 0.735052 14.0605 3.08211 14.0605 5.96703V9.89608H14.0606Z" fill="#53D7B7"/>
<path d="M0.197526 13.145L-145.477 275.402L-145.371 275.461L-145.266 275.52L0.197526 13.145ZM0.621099 13.1883L85.1814 301.024L85.1842 301.023L0.621099 13.1883ZM1.47116 12.9385H301.471V-387.877L-83.0919 -274.897L1.47116 12.9385ZM13.4301 12.9176L97.101 -275.178L-286.57 -386.607V12.9176H13.4301ZM14.3637 13.1888L98.072 -274.896L98.0533 -274.902L98.0346 -274.907L14.3637 13.1888ZM14.7864 13.1446L-131.161 -248.961L-131.22 -248.928L-131.278 -248.896L14.7864 13.1446ZM14.9833 5.96703L-285.017 5.95596V5.96703H14.9833ZM2.39416 12.683L-71.0532 -278.187L-297.606 -220.981V12.683H2.39416ZM12.5074 12.6656H312.507V-221.864L84.9099 -278.466L12.5074 12.6656ZM14.0605 12.3183V312.318L97.6924 -275.789L14.0605 12.3183ZM13.5698 12.1758L-70.0909 300.275L-70.0765 300.279L-70.0621 300.283L13.5698 12.1758ZM1.3382 12.1942L85.8442 300.046L85.8764 300.037L85.9086 300.027L1.3382 12.1942ZM0.922819 12.3161H-299.077V413.049L85.4288 300.168L0.922819 12.3161ZM0.922819 10.6773L-83.6436 -277.157L-299.077 -213.862V10.6773H0.922819ZM1.65752 10.4615L86.2239 298.296L86.2258 298.295L1.65752 10.4615ZM13.2536 10.4441L-70.4036 298.544L-70.3973 298.546L13.2536 10.4441ZM14.0604 10.6784H314.06V-214.606L97.7114 -277.423L14.0604 10.6784ZM14.0604 12.3183H-285.94V312.318H14.0604V12.3183ZM14.0606 9.89608V309.896L97.6997 -278.209L14.0606 9.89608ZM13.5698 9.7536L-70.0922 297.852L-70.0808 297.855L-70.0694 297.859L13.5698 9.7536ZM1.33814 9.77196L-83.2269 -278.063L-83.2404 -278.059L1.33814 9.77196ZM0.922819 9.894H-299.077V410.732L85.5013 297.725L0.922819 9.894ZM14.0605 9.89608H-285.939V309.896H14.0605V9.89608ZM7.49172 -300C-95.053 -300 -300 -223.09 -300 5.96703H300C300 112.61 244.828 192.027 189.102 236.412C133.809 280.452 68.663 300 7.49172 300V-300ZM-300 5.96703V12.8435H300V5.96703H-300ZM-300 12.8435C-300 143.354 -220.515 233.721 -145.477 275.402L145.872 -249.112C220.663 -207.569 300 -117.426 300 12.8435H-300ZM-145.266 275.52C-71.8808 316.205 11.4892 322.673 85.1814 301.024L-83.9392 -274.648C-10.5307 -296.214 72.5234 -289.778 145.661 -249.23L-145.266 275.52ZM85.1842 301.023L86.0343 300.774L-83.0919 -274.897L-83.942 -274.647L85.1842 301.023ZM-298.529 12.9385V19.8975H301.471V12.9385H-298.529ZM-298.529 19.8975C-298.529 248.295 -94.2546 324.66 7.45064 324.66V-275.34C69.0383 -275.34 134.562 -255.657 190.128 -211.401C246.127 -166.799 301.471 -87.0804 301.471 19.8975H-298.529ZM7.45064 324.66C109.158 324.66 313.43 248.293 313.43 19.8975H-286.57C-286.57 -87.0781 -231.228 -166.797 -175.227 -211.4C-119.66 -255.658 -54.136 -275.34 7.45064 -275.34V324.66ZM313.43 19.8975V12.9176H-286.57V19.8975H313.43ZM-70.2407 301.013L-69.3071 301.285L98.0346 -274.907L97.101 -275.178L-70.2407 301.013ZM-69.3445 301.274C-41.0736 309.488 -12.7755 313.211 14.5218 313.211V-286.789C41.7127 -286.789 69.9039 -283.081 98.072 -274.896L-69.3445 301.274ZM14.5218 313.211C61.4831 313.211 112.535 302.117 160.851 275.185L-131.278 -248.896C-83.1199 -275.74 -32.2526 -286.789 14.5218 -286.789V313.211ZM160.734 275.25C235.914 233.387 314.983 142.963 314.983 12.8435H-285.017C-285.017 -117.036 -206.095 -207.236 -131.161 -248.961L160.734 275.25ZM314.983 12.8435V5.96703H-285.017V12.8435H314.983ZM314.983 5.97809C314.992 -223.089 110.033 -300 7.49172 -300V300C-53.6802 300 -118.827 280.451 -174.12 236.411C-229.847 192.024 -285.021 112.603 -285.017 5.95596L314.983 5.97809ZM-287.493 19.8975C-287.493 -87.2814 -232.047 -167.183 -175.879 -211.919C-120.146 -256.31 -54.3909 -276.075 7.45076 -276.075V323.925C108.649 323.925 312.507 247.888 312.507 19.8975H-287.493ZM7.45076 -276.075C69.2936 -276.075 135.048 -256.309 190.78 -211.92C246.946 -167.186 302.394 -87.2842 302.394 19.8975H-297.606C-297.606 247.89 -93.7452 323.925 7.45076 323.925V-276.075ZM302.394 19.8975V12.683H-297.606V19.8975H302.394ZM75.8415 303.553C31.2373 314.816 -15.3231 314.882 -59.8952 303.798L84.9099 -278.466C33.7568 -291.188 -19.877 -291.11 -71.0532 -278.187L75.8415 303.553ZM-287.493 12.6656V19.8975H312.507V12.6656H-287.493ZM97.6924 -275.789L97.2017 -275.931L-70.0621 300.283L-69.5714 300.425L97.6924 -275.789ZM97.2305 -275.923C67.2021 -284.643 36.9239 -288.679 7.48547 -288.679V311.321C-17.8312 311.321 -43.9879 307.855 -70.0909 300.275L97.2305 -275.923ZM7.48547 -288.679C-22.2629 -288.679 -52.8789 -284.557 -83.2322 -275.639L85.9086 300.027C59.5175 307.781 33.0679 311.321 7.48547 311.321V-288.679ZM-83.1678 -275.658L-83.5832 -275.536L85.4288 300.168L85.8442 300.046L-83.1678 -275.658ZM300.923 12.3161V10.6773H-299.077V12.3161H300.923ZM85.4892 298.512L86.2239 298.296L-82.9089 -277.373L-83.6436 -277.157L85.4892 298.512ZM86.2258 298.295C35.0263 313.338 -19.2259 313.405 -70.4036 298.544L96.9108 -277.656C38.2498 -294.689 -24.2387 -294.611 -82.9108 -277.372L86.2258 298.295ZM-70.3973 298.546L-69.5905 298.78L97.7114 -277.423L96.9045 -277.658L-70.3973 298.546ZM-285.94 10.6784V12.3183H314.06V10.6784H-285.94ZM14.0604 312.318H14.0605V-287.682H14.0604V312.318ZM97.6997 -278.209L97.2089 -278.351L-70.0694 297.859L-69.5786 298.001L97.6997 -278.209ZM97.2317 -278.345C38.3573 -295.442 -24.3576 -295.358 -83.2269 -278.063L85.9032 297.607C34.916 312.586 -19.111 312.657 -70.0922 297.852L97.2317 -278.345ZM-83.2404 -278.059L-83.6557 -277.937L85.5013 297.725L85.9167 297.603L-83.2404 -278.059ZM300.923 9.894V5.96698H-299.077V9.894H300.923ZM300.923 5.96698C300.923 112.817 245.643 192.417 189.753 236.933C134.295 281.104 68.9189 300.735 7.49166 300.735V-299.265C-94.5407 -299.265 -299.077 -222.687 -299.077 5.96698H300.923ZM7.49166 300.735C-53.9356 300.735 -119.312 281.104 -174.77 236.932C-230.662 192.416 -285.939 112.816 -285.939 5.96703H314.061C314.061 -222.686 109.526 -299.265 7.49166 -299.265V300.735ZM-285.939 5.96703V9.89608H314.061V5.96703H-285.939ZM14.0605 309.896H14.0606V-290.104H14.0605V309.896Z" fill="#53D7B7" mask="url(#path-1-inside-1)"/>
<rect width="14.9834" height="24.66" fill="black" fill-opacity="0" transform="translate(16.0859)"/>
<rect width="14.9834" height="24.66" fill="black" fill-opacity="0" transform="translate(16.0859)"/>
<mask id="path-3-inside-2" fill="white">
<path d="M23.5777 0C19.4467 0 16.0859 2.67679 16.0859 5.96703V12.8435C16.0859 12.9637 16.1597 13.0763 16.2835 13.1449C16.4073 13.2136 16.5652 13.2299 16.707 13.1883L17.5572 12.9385V19.8975C17.5572 22.5236 20.2396 24.66 23.5366 24.66C26.8337 24.66 29.5161 22.5236 29.5161 19.8975V12.9176L30.4498 13.1888C30.5012 13.2037 30.5547 13.211 30.6078 13.211C30.7013 13.211 30.7938 13.1884 30.8725 13.1446C30.9959 13.0759 31.0693 12.9635 31.0693 12.8435V5.96703C31.0694 2.67679 27.7087 0 23.5777 0ZM28.5934 19.8976C28.5934 22.1183 26.325 23.925 23.5368 23.925C20.7485 23.925 18.4802 22.1183 18.4802 19.8975V12.683C21.7661 11.8533 25.3029 11.8473 28.5934 12.6657V19.8976ZM30.1466 12.3184L29.6558 12.1758C27.6931 11.6059 25.6323 11.321 23.5715 11.321C21.4884 11.321 19.4053 11.6121 17.4242 12.1941L17.0088 12.3162V10.6774L17.7436 10.4615C21.4798 9.36389 25.5981 9.3577 29.3396 10.4441L30.1466 10.6785V12.3184ZM30.1466 9.89613L29.6558 9.75365C25.7092 8.60757 21.3652 8.61419 17.4242 9.77196L17.0088 9.894V5.96703C17.0088 3.08211 19.9556 0.735052 23.5777 0.735052C27.1997 0.735052 30.1465 3.08211 30.1465 5.96703V9.89613H30.1466Z"/>
</mask>
<path d="M23.5777 0C19.4467 0 16.0859 2.67679 16.0859 5.96703V12.8435C16.0859 12.9637 16.1597 13.0763 16.2835 13.1449C16.4073 13.2136 16.5652 13.2299 16.707 13.1883L17.5572 12.9385V19.8975C17.5572 22.5236 20.2396 24.66 23.5366 24.66C26.8337 24.66 29.5161 22.5236 29.5161 19.8975V12.9176L30.4498 13.1888C30.5012 13.2037 30.5547 13.211 30.6078 13.211C30.7013 13.211 30.7938 13.1884 30.8725 13.1446C30.9959 13.0759 31.0693 12.9635 31.0693 12.8435V5.96703C31.0694 2.67679 27.7087 0 23.5777 0ZM28.5934 19.8976C28.5934 22.1183 26.325 23.925 23.5368 23.925C20.7485 23.925 18.4802 22.1183 18.4802 19.8975V12.683C21.7661 11.8533 25.3029 11.8473 28.5934 12.6657V19.8976ZM30.1466 12.3184L29.6558 12.1758C27.6931 11.6059 25.6323 11.321 23.5715 11.321C21.4884 11.321 19.4053 11.6121 17.4242 12.1941L17.0088 12.3162V10.6774L17.7436 10.4615C21.4798 9.36389 25.5981 9.3577 29.3396 10.4441L30.1466 10.6785V12.3184ZM30.1466 9.89613L29.6558 9.75365C25.7092 8.60757 21.3652 8.61419 17.4242 9.77196L17.0088 9.894V5.96703C17.0088 3.08211 19.9556 0.735052 23.5777 0.735052C27.1997 0.735052 30.1465 3.08211 30.1465 5.96703V9.89613H30.1466Z" fill="#53D7B7"/>
<path d="M16.2835 13.1449L-129.313 275.446L-129.285 275.461L-129.258 275.476L16.2835 13.1449ZM16.707 13.1883L101.087 301.077L101.183 301.049L101.279 301.021L16.707 13.1883ZM17.5572 12.9385H317.557V-387.891L-67.0151 -274.894L17.5572 12.9385ZM29.5161 12.9176L113.182 -275.18L-270.484 -386.599V12.9176H29.5161ZM30.4498 13.1888L114.158 -274.896L114.137 -274.902L114.116 -274.908L30.4498 13.1888ZM30.8725 13.1446L-115.075 -248.961L-115.133 -248.928L-115.192 -248.896L30.8725 13.1446ZM31.0693 5.96703L-268.931 5.95596V5.96703H31.0693ZM18.4802 12.683L-54.9672 -278.187L-281.52 -220.981V12.683H18.4802ZM28.5934 12.6657H328.593V-221.863L100.997 -278.466L28.5934 12.6657ZM29.6558 12.1758L113.321 -275.922L113.319 -275.922L29.6558 12.1758ZM17.4242 12.1941L-67.1397 -275.641L-67.1511 -275.637L-67.1625 -275.634L17.4242 12.1941ZM17.0088 12.3162H-282.991V413.167L101.595 300.144L17.0088 12.3162ZM17.0088 10.6774L-67.562 -277.155L-282.991 -213.858V10.6774H17.0088ZM17.7436 10.4615L-66.8179 -277.374L-66.8272 -277.371L17.7436 10.4615ZM29.3396 10.4441L-54.3167 298.544L-54.3154 298.545L29.3396 10.4441ZM30.1466 10.6785H330.147V-214.602L113.802 -277.422L30.1466 10.6785ZM30.1466 9.89613V309.896L113.786 -278.209L30.1466 9.89613ZM29.6558 9.75365L-54.0074 297.852L-53.9955 297.855L-53.9836 297.859L29.6558 9.75365ZM17.4242 9.77196L101.98 297.609L101.983 297.608L17.4242 9.77196ZM17.0088 9.894H-282.991V410.699L101.564 297.731L17.0088 9.894ZM17.0088 5.96703L-282.991 5.96072V5.96703H17.0088ZM30.1465 9.89613H-269.853V309.896H30.1465V9.89613ZM23.5777 -300C-78.967 -300 -283.914 -223.09 -283.914 5.96703H316.086C316.086 112.61 260.914 192.027 205.188 236.412C149.895 280.452 84.7489 300 23.5777 300V-300ZM-283.914 5.96703V12.8435H316.086V5.96703H-283.914ZM-283.914 12.8435C-283.914 143.348 -204.431 233.75 -129.313 275.446L161.88 -249.156C236.751 -207.597 316.086 -117.42 316.086 12.8435H-283.914ZM-129.258 275.476C-55.7729 316.246 27.5764 322.623 101.087 301.077L-67.6726 -274.701C5.55401 -296.163 88.5874 -289.819 161.825 -249.186L-129.258 275.476ZM101.279 301.021L102.129 300.771L-67.0151 -274.894L-67.8652 -274.644L101.279 301.021ZM-282.443 12.9385V19.8975H317.557V12.9385H-282.443ZM-282.443 19.8975C-282.443 248.295 -78.1686 324.66 23.5366 324.66V-275.34C85.1243 -275.34 150.648 -255.657 206.214 -211.401C262.213 -166.799 317.557 -87.0804 317.557 19.8975H-282.443ZM23.5366 324.66C125.242 324.66 329.516 248.295 329.516 19.8975H-270.484C-270.484 -87.0804 -215.14 -166.799 -159.14 -211.401C-103.575 -255.657 -38.051 -275.34 23.5366 -275.34V324.66ZM329.516 19.8975V12.9176H-270.484V19.8975H329.516ZM-54.1497 301.015L-53.2161 301.286L114.116 -274.908L113.182 -275.18L-54.1497 301.015ZM-53.2585 301.274C-24.9876 309.488 3.3106 313.211 30.6078 313.211V-286.789C57.7987 -286.789 85.99 -283.081 114.158 -274.896L-53.2585 301.274ZM30.6078 313.211C77.5691 313.211 128.622 302.117 176.937 275.185L-115.192 -248.896C-67.0339 -275.74 -16.1666 -286.789 30.6078 -286.789V313.211ZM176.82 275.25C252.002 233.387 331.069 142.962 331.069 12.8435H-268.931C-268.931 -117.035 -190.01 -207.235 -115.075 -248.961L176.82 275.25ZM331.069 12.8435V5.96703H-268.931V12.8435H331.069ZM331.069 5.97809C331.078 -223.093 126.114 -300 23.5777 -300V300C-37.5931 300 -102.74 280.452 -158.033 236.412C-213.759 192.026 -268.935 112.606 -268.931 5.95596L331.069 5.97809ZM-271.407 19.8976C-271.407 -87.2834 -215.959 -167.185 -159.792 -211.92C-104.059 -256.31 -38.3049 -276.075 23.5368 -276.075V323.925C124.733 323.925 328.593 247.89 328.593 19.8976H-271.407ZM23.5368 -276.075C85.3784 -276.075 151.133 -256.31 206.867 -211.919C263.034 -167.183 318.48 -87.2814 318.48 19.8975H-281.52C-281.52 247.888 -77.6618 323.925 23.5368 323.925V-276.075ZM318.48 19.8975V12.683H-281.52V19.8975H318.48ZM91.9275 303.553C47.3237 314.816 0.762904 314.883 -43.8104 303.797L100.997 -278.466C49.8429 -291.188 -3.79145 -291.11 -54.9672 -278.187L91.9275 303.553ZM-271.407 12.6657V19.8976H328.593V12.6657H-271.407ZM113.812 -275.779L113.321 -275.922L-54.0095 300.273L-53.5187 300.416L113.812 -275.779ZM113.319 -275.922C83.2882 -284.643 53.009 -288.679 23.5715 -288.679V311.321C-1.74437 311.321 -27.9019 307.855 -54.0073 300.274L113.319 -275.922ZM23.5715 -288.679C-6.17741 -288.679 -36.791 -284.557 -67.1397 -275.641L101.988 300.029C75.6015 307.781 49.1543 311.321 23.5715 311.321V-288.679ZM-67.1625 -275.634L-67.578 -275.512L101.595 300.144L102.011 300.022L-67.1625 -275.634ZM317.009 12.3162V10.6774H-282.991V12.3162H317.009ZM101.579 298.51L102.314 298.294L-66.8272 -277.371L-67.562 -277.155L101.579 298.51ZM102.305 298.297C51.1131 313.337 -3.13614 313.406 -54.3167 298.544L112.996 -277.656C54.3323 -294.69 -8.15344 -294.609 -66.8179 -277.374L102.305 298.297ZM-54.3154 298.545L-53.5085 298.779L113.802 -277.422L112.995 -277.656L-54.3154 298.545ZM-269.853 10.6785V12.3184H330.147V10.6785H-269.853ZM113.786 -278.209L113.295 -278.351L-53.9836 297.859L-53.4928 298.001L113.786 -278.209ZM113.319 -278.344C54.4411 -295.442 -8.27183 -295.357 -67.1344 -278.065L101.983 297.608C51.0023 312.585 -3.0227 312.658 -54.0074 297.852L113.319 -278.344ZM-67.1315 -278.065L-67.5469 -277.943L101.564 297.731L101.98 297.609L-67.1315 -278.065ZM317.009 9.894V5.96703H-282.991V9.894H317.009ZM317.009 5.97334C317.007 112.817 261.731 192.415 205.84 236.932C150.381 281.104 85.0042 300.735 23.5777 300.735V-299.265C-78.4614 -299.265 -282.986 -222.684 -282.991 5.96072L317.009 5.97334ZM23.5777 300.735C-37.8496 300.735 -103.226 281.104 -158.684 236.932C-214.576 192.416 -269.853 112.815 -269.853 5.96703H330.147C330.147 -222.686 125.612 -299.265 23.5777 -299.265V300.735ZM-269.853 5.96703V9.89613H330.147V5.96703H-269.853ZM30.1465 309.896H30.1466V-290.104H30.1465V309.896Z" fill="#53D7B7" mask="url(#path-3-inside-2)"/>
</svg>
