<svg width="47" height="51" viewBox="0 0 47 51" fill="none" xmlns="http://www.w3.org/2000/svg">
<rect width="46.3" height="50.786" fill="black" fill-opacity="0"/>
<rect width="46.3" height="50.786" fill="black" fill-opacity="0"/>
<rect width="46.3" height="50.786" fill="black" fill-opacity="0"/>
<rect width="46.3" height="50.786" fill="black" fill-opacity="0"/>
<mask id="path-1-inside-1" fill="white">
<path d="M8.68167 20.5327H10.0382C10.5376 20.5327 10.9425 20.0885 10.9425 19.5408V18.053C10.9425 17.5052 10.5376 17.0611 10.0382 17.0611H8.68167C8.18212 17.0611 7.77734 17.5052 7.77734 18.053V19.5408C7.77734 20.0885 8.18212 20.5327 8.68167 20.5327Z"/>
</mask>
<path d="M8.68167 20.5327H10.0382C10.5376 20.5327 10.9425 20.0885 10.9425 19.5408V18.053C10.9425 17.5052 10.5376 17.0611 10.0382 17.0611H8.68167C8.18212 17.0611 7.77734 17.5052 7.77734 18.053V19.5408C7.77734 20.0885 8.18212 20.5327 8.68167 20.5327Z" fill="black" stroke="#53D7B7" stroke-width="2" mask="url(#path-1-inside-1)"/>
<mask id="path-2-inside-2" fill="white">
<path d="M8.68167 26.4842H10.0382C10.5376 26.4842 10.9425 26.04 10.9425 25.4922V24.0042C10.9425 23.4563 10.5376 23.0123 10.0382 23.0123H8.68167C8.18212 23.0123 7.77734 23.4563 7.77734 24.0042V25.4922C7.77734 26.04 8.18212 26.4842 8.68167 26.4842Z"/>
</mask>
<path d="M8.68167 26.4842H10.0382C10.5376 26.4842 10.9425 26.04 10.9425 25.4922V24.0042C10.9425 23.4563 10.5376 23.0123 10.0382 23.0123H8.68167C8.18212 23.0123 7.77734 23.4563 7.77734 24.0042V25.4922C7.77734 26.04 8.18212 26.4842 8.68167 26.4842Z" fill="black" stroke="#53D7B7" stroke-width="2" mask="url(#path-2-inside-2)"/>
<mask id="path-3-inside-3" fill="white">
<path d="M8.68167 32.4356H10.0382C10.5376 32.4356 10.9425 31.9915 10.9425 31.4436V29.9559C10.9425 29.4081 10.5376 28.964 10.0382 28.964H8.68167C8.18212 28.964 7.77734 29.4081 7.77734 29.9559V31.4436C7.77734 31.9914 8.18212 32.4356 8.68167 32.4356Z"/>
</mask>
<path d="M8.68167 32.4356H10.0382C10.5376 32.4356 10.9425 31.9915 10.9425 31.4436V29.9559C10.9425 29.4081 10.5376 28.964 10.0382 28.964H8.68167C8.18212 28.964 7.77734 29.4081 7.77734 29.9559V31.4436C7.77734 31.9914 8.18212 32.4356 8.68167 32.4356Z" fill="black" stroke="#53D7B7" stroke-width="2" mask="url(#path-3-inside-3)"/>
<mask id="path-4-inside-4" fill="white">
<path d="M8.68167 38.3867H10.0382C10.5376 38.3867 10.9425 37.9426 10.9425 37.3948V35.9072C10.9425 35.3594 10.5376 34.9152 10.0382 34.9152H8.68167C8.18212 34.9152 7.77734 35.3594 7.77734 35.9072V37.3948C7.77734 37.9426 8.18212 38.3867 8.68167 38.3867Z"/>
</mask>
<path d="M8.68167 38.3867H10.0382C10.5376 38.3867 10.9425 37.9426 10.9425 37.3948V35.9072C10.9425 35.3594 10.5376 34.9152 10.0382 34.9152H8.68167C8.18212 34.9152 7.77734 35.3594 7.77734 35.9072V37.3948C7.77734 37.9426 8.18212 38.3867 8.68167 38.3867Z" fill="black" stroke="#53D7B7" stroke-width="2" mask="url(#path-4-inside-4)"/>
<mask id="path-5-inside-5" fill="white">
<path d="M13.4278 20.5327H14.7843C15.2837 20.5327 15.6887 20.0885 15.6887 19.5408V18.053C15.6887 17.5052 15.2837 17.0611 14.7843 17.0611H13.4278C12.9283 17.0611 12.5234 17.5052 12.5234 18.053V19.5408C12.5234 20.0885 12.9283 20.5327 13.4278 20.5327Z"/>
</mask>
<path d="M13.4278 20.5327H14.7843C15.2837 20.5327 15.6887 20.0885 15.6887 19.5408V18.053C15.6887 17.5052 15.2837 17.0611 14.7843 17.0611H13.4278C12.9283 17.0611 12.5234 17.5052 12.5234 18.053V19.5408C12.5234 20.0885 12.9283 20.5327 13.4278 20.5327Z" fill="black" stroke="#53D7B7" stroke-width="2" mask="url(#path-5-inside-5)"/>
<mask id="path-6-inside-6" fill="white">
<path d="M13.4278 26.4842H14.7843C15.2837 26.4842 15.6887 26.04 15.6887 25.4922V24.0042C15.6887 23.4563 15.2837 23.0123 14.7843 23.0123H13.4278C12.9283 23.0123 12.5234 23.4563 12.5234 24.0042V25.4922C12.5234 26.04 12.9283 26.4842 13.4278 26.4842Z"/>
</mask>
<path d="M13.4278 26.4842H14.7843C15.2837 26.4842 15.6887 26.04 15.6887 25.4922V24.0042C15.6887 23.4563 15.2837 23.0123 14.7843 23.0123H13.4278C12.9283 23.0123 12.5234 23.4563 12.5234 24.0042V25.4922C12.5234 26.04 12.9283 26.4842 13.4278 26.4842Z" fill="black" stroke="#53D7B7" stroke-width="2" mask="url(#path-6-inside-6)"/>
<mask id="path-7-inside-7" fill="white">
<path d="M13.4278 32.4356H14.7843C15.2837 32.4356 15.6887 31.9915 15.6887 31.4436V29.9559C15.6887 29.4081 15.2837 28.964 14.7843 28.964H13.4278C12.9283 28.964 12.5234 29.4081 12.5234 29.9559V31.4436C12.5234 31.9914 12.9283 32.4356 13.4278 32.4356Z"/>
</mask>
<path d="M13.4278 32.4356H14.7843C15.2837 32.4356 15.6887 31.9915 15.6887 31.4436V29.9559C15.6887 29.4081 15.2837 28.964 14.7843 28.964H13.4278C12.9283 28.964 12.5234 29.4081 12.5234 29.9559V31.4436C12.5234 31.9914 12.9283 32.4356 13.4278 32.4356Z" fill="black" stroke="#53D7B7" stroke-width="2" mask="url(#path-7-inside-7)"/>
<mask id="path-8-inside-8" fill="white">
<path d="M13.4278 38.3867H14.7843C15.2837 38.3867 15.6887 37.9426 15.6887 37.3948V35.9072C15.6887 35.3594 15.2837 34.9152 14.7843 34.9152H13.4278C12.9283 34.9152 12.5234 35.3594 12.5234 35.9072V37.3948C12.5234 37.9426 12.9283 38.3867 13.4278 38.3867Z"/>
</mask>
<path d="M13.4278 38.3867H14.7843C15.2837 38.3867 15.6887 37.9426 15.6887 37.3948V35.9072C15.6887 35.3594 15.2837 34.9152 14.7843 34.9152H13.4278C12.9283 34.9152 12.5234 35.3594 12.5234 35.9072V37.3948C12.5234 37.9426 12.9283 38.3867 13.4278 38.3867Z" fill="black" stroke="#53D7B7" stroke-width="2" mask="url(#path-8-inside-8)"/>
<mask id="path-9-inside-9" fill="white">
<path d="M18.1778 20.5327H19.5343C20.0338 20.5327 20.4387 20.0885 20.4387 19.5408V18.053C20.4387 17.5052 20.0338 17.0611 19.5343 17.0611H18.1778C17.6784 17.0611 17.2734 17.5052 17.2734 18.053V19.5408C17.2734 20.0885 17.6783 20.5327 18.1778 20.5327Z"/>
</mask>
<path d="M18.1778 20.5327H19.5343C20.0338 20.5327 20.4387 20.0885 20.4387 19.5408V18.053C20.4387 17.5052 20.0338 17.0611 19.5343 17.0611H18.1778C17.6784 17.0611 17.2734 17.5052 17.2734 18.053V19.5408C17.2734 20.0885 17.6783 20.5327 18.1778 20.5327Z" fill="black" stroke="#53D7B7" stroke-width="2" mask="url(#path-9-inside-9)"/>
<mask id="path-10-inside-10" fill="white">
<path d="M18.1778 26.4842H19.5343C20.0338 26.4842 20.4387 26.04 20.4387 25.4922V24.0042C20.4387 23.4563 20.0338 23.0123 19.5343 23.0123H18.1778C17.6784 23.0123 17.2734 23.4563 17.2734 24.0042V25.4922C17.2734 26.04 17.6783 26.4842 18.1778 26.4842Z"/>
</mask>
<path d="M18.1778 26.4842H19.5343C20.0338 26.4842 20.4387 26.04 20.4387 25.4922V24.0042C20.4387 23.4563 20.0338 23.0123 19.5343 23.0123H18.1778C17.6784 23.0123 17.2734 23.4563 17.2734 24.0042V25.4922C17.2734 26.04 17.6783 26.4842 18.1778 26.4842Z" fill="black" stroke="#53D7B7" stroke-width="2" mask="url(#path-10-inside-10)"/>
<mask id="path-11-inside-11" fill="white">
<path d="M18.1778 32.4356H19.5343C20.0338 32.4356 20.4387 31.9915 20.4387 31.4436V29.9559C20.4387 29.4081 20.0338 28.964 19.5343 28.964H18.1778C17.6784 28.964 17.2734 29.4081 17.2734 29.9559V31.4436C17.2734 31.9914 17.6783 32.4356 18.1778 32.4356Z"/>
</mask>
<path d="M18.1778 32.4356H19.5343C20.0338 32.4356 20.4387 31.9915 20.4387 31.4436V29.9559C20.4387 29.4081 20.0338 28.964 19.5343 28.964H18.1778C17.6784 28.964 17.2734 29.4081 17.2734 29.9559V31.4436C17.2734 31.9914 17.6783 32.4356 18.1778 32.4356Z" fill="black" stroke="#53D7B7" stroke-width="2" mask="url(#path-11-inside-11)"/>
<mask id="path-12-inside-12" fill="white">
<path d="M18.1778 38.3867H19.5343C20.0338 38.3867 20.4387 37.9426 20.4387 37.3948V35.9072C20.4387 35.3594 20.0338 34.9152 19.5343 34.9152H18.1778C17.6784 34.9152 17.2734 35.3594 17.2734 35.9072V37.3948C17.2734 37.9426 17.6783 38.3867 18.1778 38.3867Z"/>
</mask>
<path d="M18.1778 38.3867H19.5343C20.0338 38.3867 20.4387 37.9426 20.4387 37.3948V35.9072C20.4387 35.3594 20.0338 34.9152 19.5343 34.9152H18.1778C17.6784 34.9152 17.2734 35.3594 17.2734 35.9072V37.3948C17.2734 37.9426 17.6783 38.3867 18.1778 38.3867Z" fill="black" stroke="#53D7B7" stroke-width="2" mask="url(#path-12-inside-12)"/>
<mask id="path-13-inside-13" fill="white">
<path d="M26.7676 20.5327H28.1241C28.6236 20.5327 29.0284 20.0885 29.0284 19.5408V18.053C29.0284 17.5052 28.6236 17.0611 28.1241 17.0611H26.7676C26.2681 17.0611 25.8633 17.5052 25.8633 18.053V19.5408C25.8633 20.0885 26.2681 20.5327 26.7676 20.5327Z"/>
</mask>
<path d="M26.7676 20.5327H28.1241C28.6236 20.5327 29.0284 20.0885 29.0284 19.5408V18.053C29.0284 17.5052 28.6236 17.0611 28.1241 17.0611H26.7676C26.2681 17.0611 25.8633 17.5052 25.8633 18.053V19.5408C25.8633 20.0885 26.2681 20.5327 26.7676 20.5327Z" fill="black" stroke="#53D7B7" stroke-width="2" mask="url(#path-13-inside-13)"/>
<mask id="path-14-inside-14" fill="white">
<path d="M26.7676 14.5815H28.1241C28.6236 14.5815 29.0284 14.1373 29.0284 13.5896V12.1019C29.0284 11.5541 28.6236 11.11 28.1241 11.11H26.7676C26.2681 11.11 25.8633 11.5541 25.8633 12.1019V13.5896C25.8633 14.1373 26.2681 14.5815 26.7676 14.5815Z"/>
</mask>
<path d="M26.7676 14.5815H28.1241C28.6236 14.5815 29.0284 14.1373 29.0284 13.5896V12.1019C29.0284 11.5541 28.6236 11.11 28.1241 11.11H26.7676C26.2681 11.11 25.8633 11.5541 25.8633 12.1019V13.5896C25.8633 14.1373 26.2681 14.5815 26.7676 14.5815Z" fill="black" stroke="#53D7B7" stroke-width="2" mask="url(#path-14-inside-14)"/>
<mask id="path-15-inside-15" fill="white">
<path d="M26.7676 8.63012H28.1241C28.6236 8.63012 29.0284 8.18595 29.0284 7.63821V6.15004C29.0284 5.60231 28.6236 5.15813 28.1241 5.15813H26.7676C26.2681 5.15813 25.8633 5.60231 25.8633 6.15004V7.63821C25.8633 8.18595 26.2681 8.63012 26.7676 8.63012Z"/>
</mask>
<path d="M26.7676 8.63012H28.1241C28.6236 8.63012 29.0284 8.18595 29.0284 7.63821V6.15004C29.0284 5.60231 28.6236 5.15813 28.1241 5.15813H26.7676C26.2681 5.15813 25.8633 5.60231 25.8633 6.15004V7.63821C25.8633 8.18595 26.2681 8.63012 26.7676 8.63012Z" fill="black" stroke="#53D7B7" stroke-width="2" mask="url(#path-15-inside-15)"/>
<mask id="path-16-inside-16" fill="white">
<path d="M26.7676 26.4842H28.1241C28.6236 26.4842 29.0284 26.04 29.0284 25.4922V24.0042C29.0284 23.4563 28.6236 23.0123 28.1241 23.0123H26.7676C26.2681 23.0123 25.8633 23.4563 25.8633 24.0042V25.4922C25.8633 26.04 26.2681 26.4842 26.7676 26.4842Z"/>
</mask>
<path d="M26.7676 26.4842H28.1241C28.6236 26.4842 29.0284 26.04 29.0284 25.4922V24.0042C29.0284 23.4563 28.6236 23.0123 28.1241 23.0123H26.7676C26.2681 23.0123 25.8633 23.4563 25.8633 24.0042V25.4922C25.8633 26.04 26.2681 26.4842 26.7676 26.4842Z" fill="black" stroke="#53D7B7" stroke-width="2" mask="url(#path-16-inside-16)"/>
<mask id="path-17-inside-17" fill="white">
<path d="M26.7676 32.4356H28.1241C28.6236 32.4356 29.0284 31.9915 29.0284 31.4436V29.9559C29.0284 29.4081 28.6236 28.964 28.1241 28.964H26.7676C26.2681 28.964 25.8633 29.4081 25.8633 29.9559V31.4436C25.8633 31.9914 26.2681 32.4356 26.7676 32.4356Z"/>
</mask>
<path d="M26.7676 32.4356H28.1241C28.6236 32.4356 29.0284 31.9915 29.0284 31.4436V29.9559C29.0284 29.4081 28.6236 28.964 28.1241 28.964H26.7676C26.2681 28.964 25.8633 29.4081 25.8633 29.9559V31.4436C25.8633 31.9914 26.2681 32.4356 26.7676 32.4356Z" fill="black" stroke="#53D7B7" stroke-width="2" mask="url(#path-17-inside-17)"/>
<mask id="path-18-inside-18" fill="white">
<path d="M26.7676 38.3867H28.1241C28.6236 38.3867 29.0284 37.9426 29.0284 37.3948V35.9072C29.0284 35.3594 28.6236 34.9152 28.1241 34.9152H26.7676C26.2681 34.9152 25.8633 35.3594 25.8633 35.9072V37.3948C25.8633 37.9426 26.2681 38.3867 26.7676 38.3867Z"/>
</mask>
<path d="M26.7676 38.3867H28.1241C28.6236 38.3867 29.0284 37.9426 29.0284 37.3948V35.9072C29.0284 35.3594 28.6236 34.9152 28.1241 34.9152H26.7676C26.2681 34.9152 25.8633 35.3594 25.8633 35.9072V37.3948C25.8633 37.9426 26.2681 38.3867 26.7676 38.3867Z" fill="black" stroke="#53D7B7" stroke-width="2" mask="url(#path-18-inside-18)"/>
<mask id="path-19-inside-19" fill="white">
<path d="M31.5176 20.5327H32.8741C33.3736 20.5327 33.7784 20.0885 33.7784 19.5408V18.053C33.7784 17.5052 33.3736 17.0611 32.8741 17.0611H31.5176C31.0182 17.0611 30.6133 17.5052 30.6133 18.053V19.5408C30.6133 20.0885 31.0182 20.5327 31.5176 20.5327Z"/>
</mask>
<path d="M31.5176 20.5327H32.8741C33.3736 20.5327 33.7784 20.0885 33.7784 19.5408V18.053C33.7784 17.5052 33.3736 17.0611 32.8741 17.0611H31.5176C31.0182 17.0611 30.6133 17.5052 30.6133 18.053V19.5408C30.6133 20.0885 31.0182 20.5327 31.5176 20.5327Z" fill="black" stroke="#53D7B7" stroke-width="2" mask="url(#path-19-inside-19)"/>
<mask id="path-20-inside-20" fill="white">
<path d="M31.5176 14.5815H32.8741C33.3736 14.5815 33.7784 14.1373 33.7784 13.5896V12.1019C33.7784 11.5541 33.3736 11.11 32.8741 11.11H31.5176C31.0182 11.11 30.6133 11.5541 30.6133 12.1019V13.5896C30.6133 14.1373 31.0182 14.5815 31.5176 14.5815Z"/>
</mask>
<path d="M31.5176 14.5815H32.8741C33.3736 14.5815 33.7784 14.1373 33.7784 13.5896V12.1019C33.7784 11.5541 33.3736 11.11 32.8741 11.11H31.5176C31.0182 11.11 30.6133 11.5541 30.6133 12.1019V13.5896C30.6133 14.1373 31.0182 14.5815 31.5176 14.5815Z" fill="black" stroke="#53D7B7" stroke-width="2" mask="url(#path-20-inside-20)"/>
<mask id="path-21-inside-21" fill="white">
<path d="M31.5176 8.63012H32.8741C33.3736 8.63012 33.7784 8.18595 33.7784 7.63821V6.15004C33.7784 5.60231 33.3736 5.15813 32.8741 5.15813H31.5176C31.0182 5.15813 30.6133 5.60231 30.6133 6.15004V7.63821C30.6133 8.18595 31.0182 8.63012 31.5176 8.63012Z"/>
</mask>
<path d="M31.5176 8.63012H32.8741C33.3736 8.63012 33.7784 8.18595 33.7784 7.63821V6.15004C33.7784 5.60231 33.3736 5.15813 32.8741 5.15813H31.5176C31.0182 5.15813 30.6133 5.60231 30.6133 6.15004V7.63821C30.6133 8.18595 31.0182 8.63012 31.5176 8.63012Z" fill="black" stroke="#53D7B7" stroke-width="2" mask="url(#path-21-inside-21)"/>
<mask id="path-22-inside-22" fill="white">
<path d="M31.5176 26.4842H32.8741C33.3736 26.4842 33.7784 26.04 33.7784 25.4922V24.0042C33.7784 23.4563 33.3736 23.0123 32.8741 23.0123H31.5176C31.0182 23.0123 30.6133 23.4563 30.6133 24.0042V25.4922C30.6133 26.04 31.0182 26.4842 31.5176 26.4842Z"/>
</mask>
<path d="M31.5176 26.4842H32.8741C33.3736 26.4842 33.7784 26.04 33.7784 25.4922V24.0042C33.7784 23.4563 33.3736 23.0123 32.8741 23.0123H31.5176C31.0182 23.0123 30.6133 23.4563 30.6133 24.0042V25.4922C30.6133 26.04 31.0182 26.4842 31.5176 26.4842Z" fill="black" stroke="#53D7B7" stroke-width="2" mask="url(#path-22-inside-22)"/>
<mask id="path-23-inside-23" fill="white">
<path d="M31.5176 32.4356H32.8741C33.3736 32.4356 33.7784 31.9915 33.7784 31.4436V29.9559C33.7784 29.4081 33.3736 28.964 32.8741 28.964H31.5176C31.0182 28.964 30.6133 29.4081 30.6133 29.9559V31.4436C30.6133 31.9914 31.0182 32.4356 31.5176 32.4356Z"/>
</mask>
<path d="M31.5176 32.4356H32.8741C33.3736 32.4356 33.7784 31.9915 33.7784 31.4436V29.9559C33.7784 29.4081 33.3736 28.964 32.8741 28.964H31.5176C31.0182 28.964 30.6133 29.4081 30.6133 29.9559V31.4436C30.6133 31.9914 31.0182 32.4356 31.5176 32.4356Z" fill="black" stroke="#53D7B7" stroke-width="2" mask="url(#path-23-inside-23)"/>
<mask id="path-24-inside-24" fill="white">
<path d="M31.5176 38.3867H32.8741C33.3736 38.3867 33.7784 37.9426 33.7784 37.3948V35.9072C33.7784 35.3594 33.3736 34.9152 32.8741 34.9152H31.5176C31.0182 34.9152 30.6133 35.3594 30.6133 35.9072V37.3948C30.6133 37.9426 31.0182 38.3867 31.5176 38.3867Z"/>
</mask>
<path d="M31.5176 38.3867H32.8741C33.3736 38.3867 33.7784 37.9426 33.7784 37.3948V35.9072C33.7784 35.3594 33.3736 34.9152 32.8741 34.9152H31.5176C31.0182 34.9152 30.6133 35.3594 30.6133 35.9072V37.3948C30.6133 37.9426 31.0182 38.3867 31.5176 38.3867Z" fill="black" stroke="#53D7B7" stroke-width="2" mask="url(#path-24-inside-24)"/>
<mask id="path-25-inside-25" fill="white">
<path d="M36.2637 20.5327H37.6201C38.1195 20.5327 38.5244 20.0885 38.5244 19.5408V18.053C38.5244 17.5052 38.1195 17.0611 37.6201 17.0611H36.2637C35.7643 17.0611 35.3594 17.5052 35.3594 18.053V19.5408C35.3594 20.0885 35.7643 20.5327 36.2637 20.5327Z"/>
</mask>
<path d="M36.2637 20.5327H37.6201C38.1195 20.5327 38.5244 20.0885 38.5244 19.5408V18.053C38.5244 17.5052 38.1195 17.0611 37.6201 17.0611H36.2637C35.7643 17.0611 35.3594 17.5052 35.3594 18.053V19.5408C35.3594 20.0885 35.7643 20.5327 36.2637 20.5327Z" fill="black" stroke="#53D7B7" stroke-width="2" mask="url(#path-25-inside-25)"/>
<mask id="path-26-inside-26" fill="white">
<path d="M36.2637 14.5815H37.6201C38.1195 14.5815 38.5244 14.1373 38.5244 13.5896V12.1019C38.5244 11.5541 38.1195 11.11 37.6201 11.11H36.2637C35.7643 11.11 35.3594 11.5541 35.3594 12.1019V13.5896C35.3594 14.1373 35.7643 14.5815 36.2637 14.5815Z"/>
</mask>
<path d="M36.2637 14.5815H37.6201C38.1195 14.5815 38.5244 14.1373 38.5244 13.5896V12.1019C38.5244 11.5541 38.1195 11.11 37.6201 11.11H36.2637C35.7643 11.11 35.3594 11.5541 35.3594 12.1019V13.5896C35.3594 14.1373 35.7643 14.5815 36.2637 14.5815Z" fill="black" stroke="#53D7B7" stroke-width="2" mask="url(#path-26-inside-26)"/>
<mask id="path-27-inside-27" fill="white">
<path d="M36.2637 8.63012H37.6201C38.1195 8.63012 38.5244 8.18595 38.5244 7.63821V6.15004C38.5244 5.60231 38.1195 5.15813 37.6201 5.15813H36.2637C35.7643 5.15813 35.3594 5.60231 35.3594 6.15004V7.63821C35.3594 8.18595 35.7643 8.63012 36.2637 8.63012Z"/>
</mask>
<path d="M36.2637 8.63012H37.6201C38.1195 8.63012 38.5244 8.18595 38.5244 7.63821V6.15004C38.5244 5.60231 38.1195 5.15813 37.6201 5.15813H36.2637C35.7643 5.15813 35.3594 5.60231 35.3594 6.15004V7.63821C35.3594 8.18595 35.7643 8.63012 36.2637 8.63012Z" fill="black" stroke="#53D7B7" stroke-width="2" mask="url(#path-27-inside-27)"/>
<mask id="path-28-inside-28" fill="white">
<path d="M36.2637 26.4842H37.6201C38.1195 26.4842 38.5244 26.04 38.5244 25.4922V24.0042C38.5244 23.4563 38.1195 23.0123 37.6201 23.0123H36.2637C35.7643 23.0123 35.3594 23.4563 35.3594 24.0042V25.4922C35.3594 26.04 35.7643 26.4842 36.2637 26.4842Z"/>
</mask>
<path d="M36.2637 26.4842H37.6201C38.1195 26.4842 38.5244 26.04 38.5244 25.4922V24.0042C38.5244 23.4563 38.1195 23.0123 37.6201 23.0123H36.2637C35.7643 23.0123 35.3594 23.4563 35.3594 24.0042V25.4922C35.3594 26.04 35.7643 26.4842 36.2637 26.4842Z" fill="black" stroke="#53D7B7" stroke-width="2" mask="url(#path-28-inside-28)"/>
<mask id="path-29-inside-29" fill="white">
<path d="M36.2637 32.4356H37.6201C38.1195 32.4356 38.5244 31.9915 38.5244 31.4436V29.9559C38.5244 29.4081 38.1195 28.964 37.6201 28.964H36.2637C35.7643 28.964 35.3594 29.4081 35.3594 29.9559V31.4436C35.3594 31.9914 35.7643 32.4356 36.2637 32.4356Z"/>
</mask>
<path d="M36.2637 32.4356H37.6201C38.1195 32.4356 38.5244 31.9915 38.5244 31.4436V29.9559C38.5244 29.4081 38.1195 28.964 37.6201 28.964H36.2637C35.7643 28.964 35.3594 29.4081 35.3594 29.9559V31.4436C35.3594 31.9914 35.7643 32.4356 36.2637 32.4356Z" fill="black" stroke="#53D7B7" stroke-width="2" mask="url(#path-29-inside-29)"/>
<mask id="path-30-inside-30" fill="white">
<path d="M36.2637 38.3867H37.6201C38.1195 38.3867 38.5244 37.9426 38.5244 37.3948V35.9072C38.5244 35.3594 38.1195 34.9152 37.6201 34.9152H36.2637C35.7643 34.9152 35.3594 35.3594 35.3594 35.9072V37.3948C35.3594 37.9426 35.7643 38.3867 36.2637 38.3867Z"/>
</mask>
<path d="M36.2637 38.3867H37.6201C38.1195 38.3867 38.5244 37.9426 38.5244 37.3948V35.9072C38.5244 35.3594 38.1195 34.9152 37.6201 34.9152H36.2637C35.7643 34.9152 35.3594 35.3594 35.3594 35.9072V37.3948C35.3594 37.9426 35.7643 38.3867 36.2637 38.3867Z" fill="black" stroke="#53D7B7" stroke-width="2" mask="url(#path-30-inside-30)"/>
<mask id="path-31-inside-31" fill="white">
<path d="M10.4668 44.8346C9.96737 44.8346 9.5625 45.2788 9.5625 45.8266C9.5625 46.3744 9.96737 46.8185 10.4668 46.8185H10.4882C10.9875 46.8185 11.3925 46.3744 11.3925 45.8266C11.3925 45.2787 10.9875 44.8346 10.4882 44.8346H10.4668Z"/>
</mask>
<path d="M10.4668 44.8346C9.96737 44.8346 9.5625 45.2788 9.5625 45.8266C9.5625 46.3744 9.96737 46.8185 10.4668 46.8185H10.4882C10.9875 46.8185 11.3925 46.3744 11.3925 45.8266C11.3925 45.2787 10.9875 44.8346 10.4882 44.8346H10.4668Z" fill="black" stroke="#53D7B7" stroke-width="2" mask="url(#path-31-inside-31)"/>
<mask id="path-32-inside-32" fill="white">
<path d="M28.5528 44.8346C28.0533 44.8346 27.6484 45.2788 27.6484 45.8266C27.6484 46.3744 28.0533 46.8185 28.5528 46.8185H28.574C29.0734 46.8185 29.4783 46.3744 29.4783 45.8266C29.4783 45.2788 29.0734 44.8346 28.574 44.8346H28.5528Z"/>
</mask>
<path d="M28.5528 44.8346C28.0533 44.8346 27.6484 45.2788 27.6484 45.8266C27.6484 46.3744 28.0533 46.8185 28.5528 46.8185H28.574C29.0734 46.8185 29.4783 46.3744 29.4783 45.8266C29.4783 45.2788 29.0734 44.8346 28.574 44.8346H28.5528Z" fill="black" stroke="#53D7B7" stroke-width="2" mask="url(#path-32-inside-32)"/>
<mask id="path-33-inside-33" fill="white">
<path d="M0.925669 48.8022H0.904327C0.404777 48.8022 0 49.2464 0 49.7941C0 50.3419 0.404777 50.786 0.904327 50.786H0.925669C1.42504 50.786 1.83 50.3419 1.83 49.7941C1.83 49.2463 1.42513 48.8022 0.925669 48.8022Z"/>
</mask>
<path d="M0.925669 48.8022H0.904327C0.404777 48.8022 0 49.2464 0 49.7941C0 50.3419 0.404777 50.786 0.904327 50.786H0.925669C1.42504 50.786 1.83 50.3419 1.83 49.7941C1.83 49.2463 1.42513 48.8022 0.925669 48.8022Z" fill="black" stroke="#53D7B7" stroke-width="2" mask="url(#path-33-inside-33)"/>
<mask id="path-34-inside-34" fill="white">
<path d="M45.3946 48.8022H45.3731C44.8736 48.8022 44.4688 49.2464 44.4688 49.7941C44.4688 50.3419 44.8736 50.786 45.3731 50.786H45.3946C45.8941 50.786 46.2989 50.3419 46.2989 49.7941C46.2989 49.2463 45.894 48.8022 45.3946 48.8022Z"/>
</mask>
<path d="M45.3946 48.8022H45.3731C44.8736 48.8022 44.4688 49.2464 44.4688 49.7941C44.4688 50.3419 44.8736 50.786 45.3731 50.786H45.3946C45.8941 50.786 46.2989 50.3419 46.2989 49.7941C46.2989 49.2463 45.894 48.8022 45.3946 48.8022Z" fill="black" stroke="#53D7B7" stroke-width="2" mask="url(#path-34-inside-34)"/>
<mask id="path-35-inside-35" fill="white">
<path d="M42.7793 48.8022H42.1429V0.991914C42.1429 0.44408 41.7379 0 41.2386 0H23.1523C22.6528 0 22.248 0.44408 22.248 0.991914V13.0936H5.06576C4.56621 13.0936 4.16143 13.5377 4.16143 14.0855V48.8022H3.52542C3.02596 48.8022 2.62109 49.2464 2.62109 49.7941C2.62109 50.3418 3.02596 50.786 3.52542 50.786H5.06576H14.109H19.5352H23.1523H32.1956H37.6214H41.2386H41.2387H41.2388H42.7793C43.2787 50.786 43.6836 50.3418 43.6836 49.7941C43.6836 49.2463 43.2787 48.8022 42.7793 48.8022ZM18.6308 48.8022H15.0134V44.8348H18.6308V48.8022ZM22.248 48.8022H20.4395V43.8429C20.4395 43.2952 20.0346 42.851 19.5352 42.851H14.109C13.6095 42.851 13.2047 43.2952 13.2047 43.8429V48.8022H5.97009V46.8186H7.87225C8.37162 46.8186 8.77658 46.3745 8.77658 45.8266C8.77658 45.2789 8.37162 44.8347 7.87225 44.8347H5.97009V15.0774H22.248V48.8022ZM36.7171 48.8022H33.0999V44.8348H36.7171V48.8022ZM40.3342 48.8022H38.5258V43.8429C38.5258 43.2952 38.1208 42.851 37.6214 42.851H32.1956C31.6961 42.851 31.2912 43.2952 31.2912 43.8429V48.8022H24.0566V46.8186H25.9587C26.4582 46.8186 26.863 46.3745 26.863 45.8266C26.863 45.2789 26.4582 44.8347 25.9587 44.8347H24.0566V14.0855V1.98383H40.3342V48.8022Z"/>
</mask>
<path d="M42.7793 48.8022H42.1429V0.991914C42.1429 0.44408 41.7379 0 41.2386 0H23.1523C22.6528 0 22.248 0.44408 22.248 0.991914V13.0936H5.06576C4.56621 13.0936 4.16143 13.5377 4.16143 14.0855V48.8022H3.52542C3.02596 48.8022 2.62109 49.2464 2.62109 49.7941C2.62109 50.3418 3.02596 50.786 3.52542 50.786H5.06576H14.109H19.5352H23.1523H32.1956H37.6214H41.2386H41.2387H41.2388H42.7793C43.2787 50.786 43.6836 50.3418 43.6836 49.7941C43.6836 49.2463 43.2787 48.8022 42.7793 48.8022ZM18.6308 48.8022H15.0134V44.8348H18.6308V48.8022ZM22.248 48.8022H20.4395V43.8429C20.4395 43.2952 20.0346 42.851 19.5352 42.851H14.109C13.6095 42.851 13.2047 43.2952 13.2047 43.8429V48.8022H5.97009V46.8186H7.87225C8.37162 46.8186 8.77658 46.3745 8.77658 45.8266C8.77658 45.2789 8.37162 44.8347 7.87225 44.8347H5.97009V15.0774H22.248V48.8022ZM36.7171 48.8022H33.0999V44.8348H36.7171V48.8022ZM40.3342 48.8022H38.5258V43.8429C38.5258 43.2952 38.1208 42.851 37.6214 42.851H32.1956C31.6961 42.851 31.2912 43.2952 31.2912 43.8429V48.8022H24.0566V46.8186H25.9587C26.4582 46.8186 26.863 46.3745 26.863 45.8266C26.863 45.2789 26.4582 44.8347 25.9587 44.8347H24.0566V14.0855V1.98383H40.3342V48.8022Z" fill="black" stroke="#53D7B7" stroke-width="2" mask="url(#path-35-inside-35)"/>
</svg>
