<svg width="36" height="59" viewBox="0 0 36 59" fill="none" xmlns="http://www.w3.org/2000/svg">
<mask id="path-1-inside-1" fill="white">
<path d="M35.5461 55.2139L27.7404 44.6544H28.4977C32.2622 44.6544 35.3204 41.9183 35.3204 38.5463V8.42997C35.3204 5.05472 32.2622 2.31865 28.4977 2.31865H24.4492V0.300022C24.4492 0.133706 24.1615 0 23.8011 0C23.4407 0 23.1567 0.133706 23.1567 0.300022V2.31865H19.3266H16.4905H12.1944V0.300022C12.1944 0.133706 11.9032 0 11.5464 0C11.1896 0 10.8947 0.133706 10.8947 0.300022V2.31865H7.31946C3.5513 2.31865 0.496713 5.05472 0.496713 8.42997V38.5463C0.496713 41.9183 3.5513 44.6544 7.31946 44.6544H8.25877L0.453024 55.2139C-0.377065 56.3357 -0.0348356 57.8521 1.22122 58.5956C1.68359 58.8696 2.20786 59 2.72485 59C3.60591 59 4.4724 58.6152 5.00031 57.9075L14.4699 45.0946C14.5755 44.9511 14.6628 44.8011 14.7284 44.6511H21.2781C21.3509 44.8011 21.431 44.9511 21.5366 45.0946L31.0098 57.9075C31.534 58.6152 32.4005 59 33.2852 59C33.8022 59 34.3192 58.8696 34.7816 58.5956C36.0303 57.8521 36.3799 56.3357 35.5461 55.2139ZM29.0074 38.7974H26.4006C25.1045 38.7974 24.0559 37.855 24.0559 36.6973C24.0559 35.5363 25.1008 34.5906 26.4006 34.5906H29.0074C30.2998 34.5906 31.3556 35.5331 31.3556 36.6973C31.3556 37.855 30.3035 38.7974 29.0074 38.7974ZM13.2211 3.72745H22.5997V5.92544H13.2211V3.72745ZM3.62047 14.0391C3.62047 11.3454 6.05977 9.16046 9.07066 9.16046H26.6918C29.6991 9.16046 32.142 11.3454 32.142 14.0391V23.7409C32.142 26.4346 29.6991 28.6195 26.6918 28.6195H9.07066C6.05977 28.6195 3.62047 26.4346 3.62047 23.7409V14.0391ZM6.78427 38.7974C5.49181 38.7974 4.43964 37.855 4.43964 36.6973C4.43964 35.5363 5.48817 34.5906 6.78427 34.5906H9.39104C10.6835 34.5906 11.7393 35.5331 11.7393 36.6973C11.7393 37.8517 10.6835 38.7974 9.39104 38.7974H6.78427Z"/>
</mask>
<path d="M35.5461 55.2139L27.7404 44.6544H28.4977C32.2622 44.6544 35.3204 41.9183 35.3204 38.5463V8.42997C35.3204 5.05472 32.2622 2.31865 28.4977 2.31865H24.4492V0.300022C24.4492 0.133706 24.1615 0 23.8011 0C23.4407 0 23.1567 0.133706 23.1567 0.300022V2.31865H19.3266H16.4905H12.1944V0.300022C12.1944 0.133706 11.9032 0 11.5464 0C11.1896 0 10.8947 0.133706 10.8947 0.300022V2.31865H7.31946C3.5513 2.31865 0.496713 5.05472 0.496713 8.42997V38.5463C0.496713 41.9183 3.5513 44.6544 7.31946 44.6544H8.25877L0.453024 55.2139C-0.377065 56.3357 -0.0348356 57.8521 1.22122 58.5956C1.68359 58.8696 2.20786 59 2.72485 59C3.60591 59 4.4724 58.6152 5.00031 57.9075L14.4699 45.0946C14.5755 44.9511 14.6628 44.8011 14.7284 44.6511H21.2781C21.3509 44.8011 21.431 44.9511 21.5366 45.0946L31.0098 57.9075C31.534 58.6152 32.4005 59 33.2852 59C33.8022 59 34.3192 58.8696 34.7816 58.5956C36.0303 57.8521 36.3799 56.3357 35.5461 55.2139ZM29.0074 38.7974H26.4006C25.1045 38.7974 24.0559 37.855 24.0559 36.6973C24.0559 35.5363 25.1008 34.5906 26.4006 34.5906H29.0074C30.2998 34.5906 31.3556 35.5331 31.3556 36.6973C31.3556 37.855 30.3035 38.7974 29.0074 38.7974ZM13.2211 3.72745H22.5997V5.92544H13.2211V3.72745ZM3.62047 14.0391C3.62047 11.3454 6.05977 9.16046 9.07066 9.16046H26.6918C29.6991 9.16046 32.142 11.3454 32.142 14.0391V23.7409C32.142 26.4346 29.6991 28.6195 26.6918 28.6195H9.07066C6.05977 28.6195 3.62047 26.4346 3.62047 23.7409V14.0391ZM6.78427 38.7974C5.49181 38.7974 4.43964 37.855 4.43964 36.6973C4.43964 35.5363 5.48817 34.5906 6.78427 34.5906H9.39104C10.6835 34.5906 11.7393 35.5331 11.7393 36.6973C11.7393 37.8517 10.6835 38.7974 9.39104 38.7974H6.78427Z" fill="#53D7B7" stroke="#53D7B7" stroke-width="2" mask="url(#path-1-inside-1)"/>
</svg>
