<svg width="15" height="15" viewBox="0 0 15 15" fill="none" xmlns="http://www.w3.org/2000/svg">
<rect width="14.9159" height="15" fill="black" fill-opacity="0" transform="translate(0.0429688)"/>
<path d="M7.49932 15C11.6173 15 14.9557 11.6421 14.9557 7.5C14.9557 3.35786 11.6173 0 7.49932 0C3.38129 0 0.0429688 3.35786 0.0429688 7.5C0.0429688 11.6421 3.38129 15 7.49932 15Z" fill="#41B4E6"/>
<path d="M14.9592 7.50002C14.9592 7.31726 14.9524 7.13618 14.9396 6.95667L11.8493 3.84833L3.15625 7.28779L6.48226 10.6333L6.52589 10.7913L6.58237 10.734L6.5826 10.7342L6.52589 10.7913L10.2051 14.492C12.9873 13.4033 14.9592 10.6835 14.9592 7.50002Z" fill="#0091C8"/>
<path d="M6.77865 8.59272L10.1484 11.1517L11.8493 3.84833L3.15625 7.28779L5.80145 8.16908L10.629 4.91193L6.77865 8.59272Z" fill="white"/>
<path d="M5.79688 8.16907L6.52134 10.7913L6.77408 8.59271L10.6244 4.91193L5.79688 8.16907Z" fill="#D2D2D7"/>
<path d="M7.87133 9.42458L6.52344 10.7915L6.77617 8.5929L7.87133 9.42458Z" fill="#B9B9BE"/>
</svg>
