<?xml version="1.0" encoding="iso-8859-1"?>
<!-- Generator: Adobe Illustrator 19.0.0, SVG Export Plug-In . SVG Version: 6.00 Build 0)  -->
<svg version="1.1" id="Capa_1" xmlns="http://www.w3.org/2000/svg" xmlns:xlink="http://www.w3.org/1999/xlink" x="0px" y="0px"
	 viewBox="0 0 512 512" style="enable-background:new 0 0 512 512;" xml:space="preserve">
<g>
	<g>
		<path d="M371.426,135.5V60h-230v75.5H60.212l196.213,196.213L452.639,135.5H371.426z M132.639,165.5h38.786V90h170v75.5h38.787
			L256.425,289.287L132.639,165.5z"/>
	</g>
</g>
<g>
	<g>
		<rect x="141.43" width="230" height="30"/>
	</g>
</g>
<g>
	<g>
		<path d="M358.565,302l-60,60h-84.28l-60-60H1.212l81.213,81.213V512h350V383.065L510.788,302H358.565z M73.639,332h68.22l30,30
			h-68.22L73.639,332z M289.778,482H112.425v-90h177.353V482z M402.425,482h-82.647v-90h82.647V482z M411.063,362h-70.071l30-30
			h69.071L411.063,362z"/>
	</g>
</g>
<g>
</g>
<g>
</g>
<g>
</g>
<g>
</g>
<g>
</g>
<g>
</g>
<g>
</g>
<g>
</g>
<g>
</g>
<g>
</g>
<g>
</g>
<g>
</g>
<g>
</g>
<g>
</g>
<g>
</g>
</svg>
