<svg width="15" height="15" viewBox="0 0 15 15" fill="none" xmlns="http://www.w3.org/2000/svg">
<rect width="14.913" height="15" fill="black" fill-opacity="0"/>
<path d="M7.45652 15C11.5746 15 14.913 11.6421 14.913 7.5C14.913 3.35786 11.5746 0 7.45652 0C3.3384 0 0 3.35786 0 7.5C0 11.6421 3.3384 15 7.45652 15Z" fill="#6F3FAA"/>
<path d="M10.6924 4.11465C8.87743 3.67373 7.05923 3.15799 5.19795 3.81325C3.99285 4.26779 3.99285 5.58093 4.04307 6.69205C4.04307 6.99506 3.69159 7.39913 3.84221 7.75265C4.14347 8.76275 4.39454 9.77285 5.449 10.2779C5.59965 10.3789 5.449 10.5809 5.54943 10.7324C5.49922 10.7324 5.39879 10.7829 5.39879 10.8335C5.39879 11.0755 5.50679 11.4458 5.43505 11.6845L8.6392 14.906C11.9332 14.3784 14.5077 11.6814 14.8699 8.31653L10.6924 4.11465Z" fill="#512D84"/>
<rect width="8.25851" height="8.58579" fill="black" fill-opacity="0" transform="translate(3.32812 3.20697)"/>
<path d="M11.4019 5.2711L11.3995 5.26119C11.2003 4.45105 10.302 3.58175 9.47716 3.4009L9.46787 3.39897C8.13368 3.14297 6.78087 3.14297 5.44697 3.39897L5.43739 3.4009C4.6128 3.58175 3.71455 4.45111 3.51506 5.26119L3.51285 5.2711C3.26655 6.40245 3.26655 7.54984 3.51285 8.68119L3.51506 8.6911C3.70608 9.46664 4.53739 10.296 5.33148 10.5241V11.4284C5.33148 11.7558 5.72805 11.9165 5.95355 11.6803L6.8645 10.7279C7.06209 10.739 7.25978 10.7452 7.45741 10.7452C8.12899 10.7452 8.80089 10.6813 9.46784 10.5534L9.47713 10.5514C10.302 10.3706 11.2002 9.50121 11.3995 8.69113L11.4019 8.68122C11.6482 7.54984 11.6482 6.40251 11.4019 5.2711ZM10.681 8.51716C10.548 9.0457 9.86601 9.70278 9.32413 9.82418C8.61474 9.95988 7.8997 10.0179 7.18539 9.99797C7.17118 9.99756 7.15752 10.0031 7.14764 10.0134C7.04625 10.118 6.48252 10.7002 6.48252 10.7002L5.77509 11.4305C5.72336 11.4847 5.63248 11.4478 5.63248 11.3729V9.87481C5.63248 9.85005 5.61492 9.82905 5.59074 9.82424C5.5906 9.82418 5.59048 9.82418 5.59033 9.82415C5.04846 9.70275 4.36671 9.04568 4.23345 8.51713C4.01177 7.49449 4.01177 6.45779 4.23345 5.43516C4.36671 4.90661 5.04846 4.24954 5.59033 4.12814C6.82928 3.89113 8.08547 3.89113 9.32416 4.12814C9.8663 4.24954 10.548 4.90661 10.681 5.43516C10.903 6.45782 10.903 7.49452 10.681 8.51716Z" fill="white"/>
<path d="M8.63333 9.20868C8.55002 9.18322 8.47065 9.16614 8.39687 9.13541C7.63284 8.81657 6.92971 8.40524 6.37278 7.77474C6.05605 7.41621 5.80815 7.01141 5.59861 6.58303C5.49923 6.37989 5.41549 6.1688 5.33011 5.95904C5.25229 5.76779 5.36693 5.57021 5.48763 5.42607C5.60091 5.29081 5.74669 5.18733 5.90456 5.11101C6.02777 5.05148 6.14928 5.08582 6.23929 5.19085C6.4338 5.41795 6.61252 5.65667 6.75717 5.91993C6.84615 6.08185 6.82174 6.27978 6.66046 6.38997C6.62126 6.41674 6.58555 6.44821 6.54905 6.47844C6.51701 6.50496 6.4869 6.53173 6.46493 6.56762C6.42483 6.63328 6.4229 6.71077 6.44871 6.78216C6.64756 7.3318 6.98273 7.75924 7.53279 7.98949C7.62081 8.02631 7.70918 8.06918 7.8106 8.05731C7.98041 8.03736 8.03541 7.84998 8.15442 7.7521C8.27072 7.65644 8.41939 7.65518 8.54466 7.73493C8.67 7.81473 8.79146 7.90034 8.91222 7.98691C9.03076 8.07187 9.14876 8.15493 9.25807 8.25181C9.36322 8.34495 9.39943 8.46711 9.34021 8.59347C9.23186 8.82495 9.07413 9.01746 8.84668 9.14039C8.78246 9.17502 8.70573 9.18624 8.63333 9.20868C8.55002 9.18322 8.70573 9.18624 8.63333 9.20868Z" fill="white"/>
<path d="M7.45744 4.84634C8.45676 4.87453 9.27759 5.54159 9.45349 6.53534C9.48346 6.70467 9.49412 6.87776 9.50746 7.04965C9.51308 7.12192 9.47236 7.19059 9.39482 7.19156C9.31472 7.19253 9.27869 7.12509 9.27345 7.05287C9.26317 6.90984 9.25603 6.76614 9.23643 6.62434C9.133 5.87554 8.53939 5.25606 7.7984 5.12314C7.68687 5.10313 7.57281 5.09789 7.45983 5.08596C7.38844 5.07843 7.29494 5.0741 7.27912 4.9848C7.26587 4.90995 7.32867 4.85036 7.39953 4.84652C7.41873 4.84538 7.4381 4.84629 7.45744 4.84634C8.45682 4.87453 7.4381 4.84629 7.45744 4.84634Z" fill="white"/>
<path d="M8.97624 6.82659C8.97458 6.83916 8.97374 6.86866 8.9664 6.89643C8.93989 6.99733 8.78773 7.00996 8.75275 6.90815C8.74235 6.87794 8.74081 6.84355 8.74075 6.81103C8.7404 6.59816 8.69441 6.38546 8.58766 6.20022C8.47794 6.00982 8.31028 5.84983 8.1137 5.75294C7.99481 5.69441 7.86627 5.65799 7.73596 5.63634C7.67901 5.62685 7.62146 5.62114 7.56422 5.61311C7.49487 5.60341 7.45782 5.55897 7.46114 5.49024C7.4642 5.42584 7.51101 5.37947 7.5808 5.38348C7.81011 5.39655 8.03165 5.44647 8.23557 5.55504C8.65017 5.77591 8.88703 6.12449 8.95618 6.58999C8.95929 6.61111 8.9643 6.63197 8.9659 6.65312C8.96981 6.70533 8.97228 6.75762 8.97624 6.82659C8.97458 6.8391 8.97228 6.75762 8.97624 6.82659Z" fill="white"/>
<path d="M8.35519 6.80253C8.2716 6.80405 8.22686 6.75747 8.21821 6.68042C8.21223 6.62669 8.20746 6.5722 8.1947 6.51987C8.16959 6.41683 8.11515 6.32139 8.029 6.25825C7.98833 6.22846 7.94223 6.20675 7.89396 6.19268C7.83265 6.17484 7.76892 6.17976 7.70778 6.16471C7.64134 6.14833 7.60459 6.09419 7.61504 6.03152C7.62454 5.97445 7.6797 5.92992 7.74172 5.93446C8.12916 5.96259 8.40608 6.16406 8.4456 6.62285C8.44843 6.65522 8.45169 6.68941 8.44455 6.72044C8.43226 6.77338 8.39323 6.79995 8.35519 6.80253C8.27157 6.80402 8.39323 6.79995 8.35519 6.80253Z" fill="white"/>
<path d="M11.4003 5.27133L11.3978 5.26143C11.2862 4.8073 10.9547 4.33462 10.5398 3.97498L9.97885 4.47501C10.3124 4.74235 10.5982 5.11269 10.6794 5.43537C10.9014 6.45803 10.9014 7.4947 10.6794 8.5174C10.5464 9.04594 9.86438 9.70301 9.32253 9.82442C8.61314 9.96012 7.8981 10.0181 7.18379 9.99821C7.16957 9.9978 7.15591 10.0034 7.14604 10.0136C7.04465 10.1183 6.48092 10.7004 6.48092 10.7004L5.77348 11.4307C5.72175 11.485 5.63088 11.4481 5.63088 11.3732V9.87504C5.63088 9.85029 5.61331 9.82928 5.58914 9.82448C5.58899 9.82448 5.58888 9.82442 5.58873 9.82442C5.28077 9.75542 4.92778 9.51334 4.65585 9.22029L4.10156 9.71432C4.44774 10.0931 4.89423 10.3993 5.32979 10.5244V11.4287C5.32979 11.7561 5.72636 11.9168 5.95186 11.6806L6.86281 10.7282C7.0604 10.7393 7.25803 10.7455 7.45572 10.7455C8.1273 10.7455 8.7992 10.6816 9.46615 10.5536L9.47544 10.5517C10.3003 10.3709 11.1985 9.5016 11.3978 8.69145L11.4002 8.68155C11.6465 7.55007 11.6465 6.40275 11.4003 5.27133Z" fill="#D1D1D1"/>
<path d="M8.63463 9.20884C8.70704 9.1864 8.55132 9.18338 8.63463 9.20884V9.20884Z" fill="white"/>
<path d="M9.25904 8.25215C9.14972 8.15532 9.03167 8.07221 8.91318 7.98725C8.79242 7.90068 8.67096 7.81507 8.54563 7.73527C8.42035 7.65552 8.27172 7.65678 8.15538 7.75243C8.03637 7.85031 7.98141 8.0377 7.81157 8.05765C7.71018 8.06951 7.62178 8.02662 7.53375 7.98983C7.19533 7.84821 6.93854 7.63164 6.74447 7.35822L6.33203 7.72589C6.34604 7.74221 6.35941 7.75897 6.37365 7.77508C6.93062 8.40558 7.63378 8.81691 8.39775 9.13574C8.47147 9.16651 8.5509 9.18362 8.6342 9.20902C8.5509 9.18356 8.70667 9.1866 8.6342 9.20902C8.70667 9.1866 8.78333 9.17533 8.84762 9.1407C9.07513 9.01777 9.23279 8.82523 9.34115 8.59378C9.40039 8.46745 9.36419 8.34529 9.25904 8.25215Z" fill="#D1D1D1"/>
<rect width="0.43993" height="0.0125979" fill="black" fill-opacity="0" transform="translate(7.46094 4.84662)"/>
<path d="M7.46464 4.84677C7.46352 4.84677 7.46243 4.84665 7.4613 4.84665C7.46022 4.84657 7.46161 4.84665 7.46464 4.84677Z" fill="white"/>
<path d="M7.46094 4.84668C7.46178 4.84668 7.4626 4.84677 7.46344 4.84677C7.5189 4.84876 8.42091 4.87375 7.46094 4.84668Z" fill="white"/>
<rect width="1.15076" height="1.74725" fill="black" fill-opacity="0" transform="translate(8.35938 5.44452)"/>
<path d="M8.89459 5.44446L8.71875 5.60123C8.99508 5.87164 9.18563 6.23002 9.2401 6.62442C9.25967 6.76627 9.26686 6.90992 9.27715 7.05294C9.28236 7.12522 9.31836 7.19263 9.39852 7.19169C9.47608 7.19073 9.51677 7.12208 9.51115 7.04978C9.49778 6.87792 9.48715 6.70478 9.45718 6.53547C9.3802 6.10047 9.1796 5.72808 8.89459 5.44446Z" fill="#D1D1D1"/>
<path d="M8.95735 6.58994C8.90699 6.25074 8.76709 5.97394 8.53472 5.76306L8.35938 5.91936C8.45005 6.00031 8.52849 6.09538 8.5889 6.20023C8.69565 6.38547 8.74164 6.59817 8.74199 6.81104C8.74205 6.84356 8.74359 6.87795 8.75399 6.90822C8.78903 7.01008 8.94113 6.99746 8.96763 6.8965C8.97497 6.86867 8.97582 6.83917 8.97748 6.82666C8.97582 6.83922 8.97346 6.75772 8.97748 6.82666C8.97346 6.75772 8.97101 6.7054 8.96708 6.65313C8.96554 6.63189 8.9605 6.61103 8.95735 6.58994Z" fill="#D1D1D1"/>
<rect width="0.651307" height="0.0293862" fill="black" fill-opacity="0" transform="translate(8.32812 6.79852)"/>
<path d="M8.97875 6.82658C8.97479 6.75761 8.97709 6.83909 8.97875 6.82658V6.82658Z" fill="white"/>
<path d="M8.35924 6.80262C8.36066 6.80252 8.36201 6.80179 8.36337 6.80164C8.35955 6.80164 8.35368 6.80173 8.34766 6.80195C8.35157 6.80205 8.35513 6.80265 8.35924 6.80262Z" fill="white"/>
<path d="M8.35814 6.80274C8.35438 6.8028 8.35106 6.80224 8.34745 6.80212C8.32936 6.80262 8.31069 6.80359 8.35814 6.80274Z" fill="white"/>
<path d="M8.36019 6.80115C8.35857 6.80133 8.35702 6.80216 8.35547 6.80227C8.36759 6.80144 8.36654 6.80115 8.36019 6.80115Z" fill="white"/>
<path d="M8.17849 6.07965L8 6.23879C8.00984 6.2448 8.01949 6.25107 8.02884 6.25789C8.11499 6.32103 8.16943 6.41648 8.19454 6.51951C8.2073 6.57184 8.21202 6.62627 8.21804 6.68006C8.22629 6.75368 8.26785 6.79895 8.34434 6.80158C8.3499 6.80144 8.35538 6.80132 8.35885 6.80129C8.39566 6.79719 8.43257 6.77123 8.44436 6.72002C8.4515 6.68906 8.44824 6.65481 8.44541 6.62243C8.42322 6.36594 8.32681 6.18995 8.17849 6.07965Z" fill="#D1D1D1"/>
</svg>
