<svg width="15" height="15" viewBox="0 0 15 15" fill="none" xmlns="http://www.w3.org/2000/svg">
<rect width="14.913" height="15.0002" fill="black" fill-opacity="0" transform="translate(0.0859375)"/>
<path d="M7.54246 15C11.6606 15 14.999 11.6421 14.999 7.5C14.999 3.35786 11.6606 0 7.54246 0C3.42434 0 0.0859375 3.35786 0.0859375 7.5C0.0859375 11.6421 3.42434 15 7.54246 15Z" fill="#75B73B"/>
<path d="M10.5773 4.44819C10.1449 4.33944 9.50915 3.96385 9.09761 3.8133C7.49082 3.30825 5.33169 3.71228 4.72914 5.58098C4.67892 5.63149 4.57849 5.63149 4.52828 5.63149C3.32318 7.04562 4.12659 8.7628 4.02616 10.3285C3.99188 10.8804 3.70334 11.3684 3.33203 11.7812L6.45684 14.921C6.81085 14.9728 7.17272 15.0002 7.54103 15.0002C11.2237 15.0002 14.2825 12.3147 14.8882 8.78451L10.5773 4.44819Z" fill="#52891D"/>
<rect width="8.5361" height="8.65576" fill="black" fill-opacity="0" transform="translate(3.27344 3.17242)"/>
<path d="M7.33286 3.17743C5.06011 3.28618 3.26661 5.19001 3.27346 7.47854C3.27555 8.17557 3.44286 8.83349 3.73803 9.41491L3.2849 11.6272C3.26041 11.7469 3.36771 11.8517 3.48591 11.8236L5.64116 11.31C6.1949 11.5875 6.81685 11.7476 7.47506 11.7578C9.79803 11.7935 11.7349 9.93827 11.8074 7.60261C11.885 5.09896 9.83062 3.05775 7.33286 3.17743ZM9.90458 9.84215C9.27342 10.477 8.43416 10.8266 7.5415 10.8266C7.01884 10.8266 6.51838 10.7087 6.0541 10.4761L5.75403 10.3257L4.43254 10.6405L4.71067 9.28243L4.56285 8.99113C4.3218 8.51635 4.19958 8.00301 4.19958 7.46524C4.19958 6.56734 4.54721 5.72327 5.17836 5.08838C5.8039 4.45914 6.65682 4.10389 7.54156 4.10389C8.43413 4.10389 9.27339 4.45355 9.90455 5.08838C10.5357 5.72321 10.8833 6.56737 10.8833 7.46515C10.8834 8.35507 10.5301 9.21294 9.90458 9.84215Z" fill="white"/>
<path d="M9.61236 8.39613L8.78562 8.15739C8.67701 8.12607 8.55992 8.15709 8.48072 8.23825L8.27852 8.44538C8.19329 8.5328 8.06397 8.56083 7.95113 8.51493C7.56004 8.35573 6.73735 7.61997 6.52737 7.25206C6.46667 7.14588 6.47672 7.01323 6.55117 6.91625L6.72762 6.6866C6.79677 6.59666 6.81133 6.47575 6.76563 6.37174L6.41782 5.58049C6.33452 5.391 6.09376 5.33581 5.93644 5.46963C5.70573 5.66595 5.43196 5.96416 5.39873 6.29463C5.34004 6.87726 5.58849 7.61165 6.52775 8.49351C7.61294 9.5124 8.482 9.6469 9.04791 9.50906C9.36886 9.43092 9.62535 9.1175 9.78712 8.86083C9.89754 8.68573 9.81028 8.45334 9.61236 8.39613Z" fill="white"/>
<rect width="8.51978" height="7.50046" fill="black" fill-opacity="0" transform="translate(3.28906 4.32758)"/>
<path d="M10.4536 4.32758L9.80632 4.9949C9.83927 5.02552 9.87206 5.05631 9.90393 5.08839C10.5351 5.72322 10.8827 6.56738 10.8827 7.46515C10.8827 8.35505 10.5295 9.21289 9.90393 9.84213C9.27278 10.477 8.43351 10.8266 7.54085 10.8266C7.0182 10.8266 6.51777 10.7086 6.05345 10.4761L5.75338 10.3256L4.43189 10.6405L4.45921 10.5071L3.28906 11.7133C3.31487 11.7913 3.39698 11.8444 3.4852 11.8234L5.64046 11.3098C6.19419 11.5873 6.81614 11.7475 7.47436 11.7576C9.79732 11.7933 11.7343 9.93813 11.8067 7.60247C11.8468 6.30948 11.3182 5.13989 10.4536 4.32758Z" fill="#D1D1D1"/>
<path d="M9.61304 8.39584L8.7863 8.1571C8.67769 8.12579 8.5606 8.15681 8.4814 8.23796L8.2792 8.44509C8.19397 8.53251 8.06465 8.56055 7.95181 8.51464C7.7259 8.42268 7.35613 8.13833 7.04348 7.84363L6.46875 8.43616C6.48847 8.45514 6.50813 8.4741 6.52846 8.49323C7.61365 9.51211 8.48271 9.64662 9.04862 9.50877C9.36957 9.43064 9.62606 9.11722 9.78783 8.86055C9.89823 8.68544 9.81096 8.45306 9.61304 8.39584Z" fill="#D1D1D1"/>
</svg>
