<?xml version="1.0" encoding="UTF-8"?>
<!DOCTYPE svg PUBLIC "-//W3C//DTD SVG 1.1//EN" "http://www.w3.org/Graphics/SVG/1.1/DTD/svg11.dtd">
<!-- Creator: CorelDRAW 2018 (64-Bit) -->
<svg xmlns="http://www.w3.org/2000/svg" xml:space="preserve" width="150mm" height="150mm" version="1.1" style="shape-rendering:geometricPrecision; text-rendering:geometricPrecision; image-rendering:optimizeQuality; fill-rule:evenodd; clip-rule:evenodd"
viewBox="0 0 3520.56 3520.55"
 xmlns:xlink="http://www.w3.org/1999/xlink">
 <defs>
  <style type="text/css">
   <![CDATA[
    .fil0 {fill:black}
   ]]>
  </style>
 </defs>
 <g id="Layer_x0020_1">
  <metadata id="CorelCorpID_0Corel-Layer"/>
  <path class="fil0" d="M498.48 0l2523.6 0c274.16,0 498.48,224.31 498.48,498.47l0 2523.61c0,274.16 -224.31,498.47 -498.48,498.47l-2523.6 0c-274.16,0 -498.48,-224.31 -498.48,-498.47l0 -2523.61c0,-274.16 224.32,-498.47 498.48,-498.47zm1026.24 825.9l0.17 37.05c17.33,2.42 35.05,2.42 52.2,0.46l-4.29 -15.78c-17.34,-2.91 -33.81,-10.72 -48.09,-21.74zm0.25 53.78l0.06 12.16c81.27,-20.77 162.85,-30.59 244.48,-29.72l-0.03 -6.43 -0.61 0.25 -6.83 2.76 1.49 2.11 -3.39 -1.34 -3.39 1.37 1.47 -2.12 -6.84 -2.7c-17.17,-6.75 -31.04,-16.84 -45.78,-27.6 -6.81,-4.97 -19.89,-15.19 -28.8,-14.13 -3.31,0.38 -6.02,2.14 -8.33,4.41 -8.24,23.34 -20.61,36.48 -42.6,47.49l0.65 2.48c-4.55,0.69 -9.11,1.39 -13.66,2.11l-12.18 -44.79 -18.2 4.96 11.81 43.04c-9.88,1.85 -19.76,3.79 -29.58,5.91l-0.28 0.06 -0.26 0.02c-13.78,0.98 -26.76,0.99 -39.19,-0.31zm0.15 32.3l0.51 110.74c77.45,-8.95 156.12,-14.74 234.83,-14.85 3.24,-0 6.48,0 9.72,0.02l-0.59 -127.16c-81.64,-0.13 -163.27,10.36 -244.47,31.25zm244.29 -69.18l-0.36 -77.41c-4.44,-8.54 -7.37,-17.99 -9.51,-27.57 -4.16,19.51 -11.58,38.47 -28.38,50.45 -2.69,4.72 -4.57,9.8 -4.06,15.32 0.63,6.84 4.86,13.58 8.68,19.09 6.44,9.31 13.65,18.18 20.22,27.47l4.12 5.83 4.08 -5.88c1.71,-2.46 3.45,-4.89 5.23,-7.31zm-0.5 -108.16l-0.01 -1.7 -0.65 0 0.66 1.7zm-0.07 -15.05l-0.08 -17.14 -51.01 0.23 0.08 17.15 51.01 -0.24zm-0.35 -74.65l-0.32 -69.69c-30,4.73 -63.98,-12.86 -64.17,-52.96 -0.19,-40.16 33.63,-58.09 63.67,-53.64l-0.24 -51.98c-3.19,-4.59 -6.34,-9.2 -9.43,-13.86l0 0c-8.68,13.34 -17.8,26.34 -27.14,39.23 -8.67,12 -17.57,23.9 -25.97,36.1 -11.27,16.41 -24.59,37.14 -25.25,57.68 -0.38,11.82 3.36,22.64 9.3,32.7 7.34,4.98 14.45,10.29 21.1,16.19 30.34,26.93 42.97,60.79 49.25,99.41 2.1,-13.67 5,-26.77 9.19,-39.18zm-0.43 -93.54l-0.27 -58.82c-2.95,-0.92 -6.08,-1.41 -9.33,-1.39l0 0c-17.03,0.08 -30.79,13.96 -30.71,30.99 0.08,17.03 13.97,30.77 31,30.7 3.25,-0.02 6.38,-0.53 9.32,-1.48zm-141.07 -14.55c14.94,-0.07 27.13,12 27.2,26.94 0.07,14.95 -12,27.13 -26.95,27.2 -14.95,0.07 -27.11,-12.01 -27.18,-26.95 -0.07,-14.95 11.98,-27.12 26.93,-27.19l0 -0zm-7.62 305.41c3.98,-7.86 6.86,-16.38 7.87,-25.14 2.43,-19.66 -5,-40.08 -21.13,-50.64 16.76,-0.89 34.24,3.13 43,18.76 6.42,11.43 5.75,25.47 1.37,37.47 -5.11,13.97 -15.08,25.68 -27.16,34.2l-3.96 -14.65zm-54.87 -185.89c2.88,-22.42 9.48,-45.79 23.02,-63.45 9.23,12.58 23.95,20.15 39.82,20.08 22.34,-0.11 41.59,-15.26 47.21,-36.41 17.59,9.34 32.28,24.13 43.29,40.54 14.45,21.54 23.23,46.57 27.31,72.1l-14.89 0.07c-27.99,-59.63 -123.28,-87.14 -165.75,-32.92l0 -0zm186.27 76.64c-17.28,47.67 -73.15,59.97 -85.14,7.5 13.62,11.56 33.69,13.02 50.7,5.98 7.64,-3.16 14.61,-7.84 20.68,-13.41l13.76 -0.06zm-469.39 -29.53l0.04 9.13c16.43,-7.31 34.68,-9.05 52.64,-2.42 -10.29,-13.07 -22.7,-25.25 -37.02,-33.17 -2.28,10.51 -7.91,19.69 -15.67,26.46zm0.64 137.44l0.11 24.26c2.52,-1.33 4.87,-2.99 6.96,-5.03 10.14,-9.86 10.08,-23.87 6.3,-36.61 -2.7,6.97 -7.42,12.87 -13.37,17.38zm0.34 72.53l0.21 46.2 3.63 6.23 0 0c0.4,-13.35 0.35,-27.12 -1.41,-40.04 -0.54,-3.99 -1.3,-8.22 -2.44,-12.38zm243.27 109.27l-0.51 -110.74c-72.62,18.68 -144.91,45.66 -216.57,80.84l23.71 57.88c63.08,-10.56 127.79,-20.4 193.37,-27.97zm-0.61 -130.88l-0.06 -12.16c-25.39,-2.65 -48.52,-10.72 -71.57,-26.92 -8.78,5.71 -18.96,8.75 -29.49,8.8 -12.33,0.06 -24.17,-4.02 -33.82,-11.55l0 0c-14.97,12.94 -28.19,34.78 -38.55,51.01 -17.48,27.36 -34.66,53.41 -56.23,77.86l-0.48 0.55 -0.48 0.25 0.18 0.31 -0.06 0.06 0.35 0.58c76.3,-39.56 153.11,-69.09 230.19,-88.79zm-0.13 -28.89l-0.17 -37.05c-43.05,-33.2 -66.14,-95.47 -32.63,-139.86l0 0c-30.67,12.85 -62.82,34.13 -72.06,66.47 1.12,-0.08 2.26,-0.11 3.38,-0.12 30.15,-0.14 54.7,24.19 54.84,54.32 0.06,13.22 -4.61,25.85 -13.14,35.78 18.18,10.97 38.69,17.51 59.79,20.45zm-101.38 -86.82c17.05,-0.08 30.92,13.66 30.99,30.7 0.08,17.03 -13.66,30.92 -30.71,30.99 -17.02,0.08 -30.91,-13.67 -30.99,-30.71 -0.08,-17.03 13.69,-30.9 30.71,-30.98l0 -0zm-140.94 183.51l-0.21 -46.2c-2.15,-7.86 -5.62,-15.49 -11.5,-20.75 -1.36,-1.23 -2.85,-2.32 -4.43,-3.26 -12.99,-1.15 -23.97,-7.02 -33.56,-14.99l49.7 85.2zm-0.44 -94.46l-0.11 -24.26c-6.55,4.98 -14.59,8.27 -23.05,9.47 -7.31,1.03 -14.85,0.61 -22.05,-0.91l-10.06 5.85 0 0c9.31,7.55 20.6,12.81 32.61,13.87 7.7,0.69 15.81,-0.43 22.65,-4.03zm-0.71 -152.57l-0.04 -9.13c-8.61,7.51 -19.85,12.05 -32.05,12.1 -13.59,0.06 -26.4,-5.45 -35.65,-15.12 -9.04,15.06 -13.5,32.87 -14.5,50.27 -1.33,23 3.23,46.12 11.58,67.52l10.86 -6.35 0 0c-3.66,-40.28 23.69,-83.24 59.8,-99.29zm-32.44 -73.17c14.95,-0.07 27.13,11.99 27.2,26.95 0.07,14.94 -12,27.12 -26.95,27.19 -14.94,0.07 -27.13,-11.99 -27.2,-26.93 -0.07,-14.96 12,-27.13 26.95,-27.2l0 -0zm-124.47 27.9c17.04,-0.08 30.92,13.67 30.99,30.7 0.08,17.03 -13.66,30.91 -30.7,30.99 -17.03,0.08 -30.92,-13.67 -30.99,-30.71 -0.08,-17.03 13.68,-30.9 30.71,-30.98l-0 -0zm113.21 149.98l7.31 12.59 -28.5 16.62 -7.29 -12.59 28.48 -16.62zm-47.91 -16.61l-33.76 -57.87c14.54,-10.23 23.28,-26.92 23.19,-44.91 -0.14,-30.15 -24.71,-54.47 -54.84,-54.32 -8.05,0.04 -15.94,1.83 -23.17,5.27l-24.53 -42.04c10.57,5.12 21.27,9.95 32.04,14.67 12.17,5.33 24.47,10.48 36.5,16.1 16.12,7.52 35.81,17.47 45.63,32.95 5.65,8.9 7.66,18.85 7.67,29.25 -3.38,7.18 -6.45,14.5 -8.87,22.04 -8.89,27.43 -7.25,53.13 0.14,78.87l0 0zm806.05 23.2l0.17 37.05c-17.31,2.58 -35.03,2.75 -52.19,0.95l4.14 -15.82c17.31,-3.07 33.71,-11.04 47.88,-22.18zm0.25 53.78l0.06 12.16c-81.46,-20.01 -163.13,-29.08 -244.74,-27.45l-0.03 -6.43 0.62 0.24 6.86 2.7 -1.47 2.12 3.38 -1.37 3.4 1.34 -1.49 -2.11 6.81 -2.76c17.11,-6.91 30.89,-17.13 45.52,-28.02 6.77,-5.04 19.75,-15.37 28.67,-14.4 3.32,0.35 6.04,2.09 8.37,4.34 8.46,23.27 20.95,36.29 43.04,47.09l-0.63 2.48c4.56,0.65 9.12,1.31 13.68,1.99l11.76 -44.91 18.25 4.79 -11.41 43.15c9.9,1.76 19.8,3.6 29.64,5.63l0.28 0.06 0.26 0.02c13.79,0.86 26.77,0.74 39.19,-0.68zm0.15 32.3l0.51 110.74c-77.53,-8.23 -156.26,-13.3 -234.96,-12.67 -3.24,0.03 -6.48,0.07 -9.71,0.11l-0.59 -127.15c81.64,-0.88 163.36,8.84 244.75,28.98zm-244.92 -66.92l-0.36 -77.41c4.36,-8.58 7.21,-18.05 9.26,-27.66 4.34,19.47 11.93,38.36 28.85,50.19 2.74,4.69 4.66,9.76 4.21,15.29 -0.57,6.85 -4.73,13.62 -8.5,19.17 -6.35,9.37 -13.48,18.3 -19.96,27.65l-4.07 5.87 -4.13 -5.84c-1.73,-2.44 -3.5,-4.86 -5.29,-7.26zm-0.5 -108.16l-0.01 -1.7 0.65 -0 -0.64 1.7zm-0.07 -15.05l-0.08 -17.14 51.01 -0.24 0.08 17.15 -51.01 0.24zm-0.35 -74.65l-0.32 -69.69c30.04,4.45 63.86,-13.45 63.67,-53.55 -0.19,-40.16 -34.16,-57.78 -64.16,-53.04l-0.24 -51.98c3.15,-4.62 6.25,-9.26 9.3,-13.95l0 0c8.8,13.26 18.05,26.17 27.5,38.97 8.79,11.92 17.79,23.74 26.3,35.86 11.42,16.3 24.93,36.92 25.78,57.45 0.49,11.81 -3.15,22.67 -9,32.79 -7.29,5.05 -14.36,10.43 -20.94,16.38 -30.08,27.2 -42.41,61.19 -48.33,99.86 -2.22,-13.66 -5.24,-26.72 -9.55,-39.1zm-0.43 -93.54l-0.27 -58.82c2.94,-0.95 6.07,-1.46 9.32,-1.48l0 0c17.03,-0.08 30.92,13.67 30.99,30.71 0.08,17.03 -13.68,30.9 -30.71,30.98 -3.25,0.02 -6.39,-0.47 -9.33,-1.39zm140.93 -15.85c-14.94,0.07 -27.02,12.25 -26.95,27.19 0.07,14.95 12.25,27.02 27.2,26.95 14.95,-0.07 27,-12.26 26.93,-27.2 -0.07,-14.95 -12.23,-27 -27.18,-26.93l0 -0zm10.45 305.33c-4.05,-7.82 -7.01,-16.32 -8.11,-25.07 -2.61,-19.64 4.63,-40.12 20.66,-50.83 -16.76,-0.73 -34.21,3.45 -42.83,19.16 -6.32,11.48 -5.52,25.52 -1.02,37.48 5.24,13.92 15.32,25.53 27.47,33.95l3.83 -14.69zm53.14 -186.39c-3.08,-22.39 -9.9,-45.7 -23.61,-63.24 -9.11,12.67 -23.76,20.37 -39.63,20.45 -22.34,0.1 -41.73,-14.87 -47.54,-35.97 -17.5,9.5 -32.06,24.42 -42.91,40.94 -14.24,21.67 -22.8,46.78 -26.64,72.35l14.89 -0.07c27.44,-59.89 122.47,-88.27 165.44,-34.45l0 -0zm-185.55 78.37c17.72,47.51 73.7,59.29 85.2,6.71 -13.51,11.69 -33.56,13.33 -50.64,6.45 -7.67,-3.08 -14.68,-7.7 -20.8,-13.22l-13.76 0.06zm469.09 -33.88l0.04 9.13c-16.5,-7.16 -34.76,-8.72 -52.67,-1.93 10.17,-13.16 22.46,-25.46 36.71,-33.51 2.38,10.48 8.09,19.61 15.92,26.31zm0.64 137.44l0.11 24.26c-2.53,-1.3 -4.9,-2.95 -7,-4.96 -10.24,-9.77 -10.3,-23.78 -6.64,-36.56 2.76,6.94 7.54,12.8 13.53,17.26zm0.34 72.53l0.21 46.2 -3.57 6.26 0 0c-0.52,-13.35 -0.6,-27.11 1.04,-40.06 0.5,-3.99 1.23,-8.23 2.33,-12.4zm-242.25 111.52l-0.51 -110.74c72.8,18.01 145.33,44.32 217.31,78.83l-23.17 58.09c-63.18,-9.97 -127.97,-19.22 -193.62,-26.18zm-0.61 -130.88l-0.06 -12.16c25.36,-2.89 48.41,-11.17 71.31,-27.58 8.84,5.63 19.04,8.57 29.57,8.53 12.33,-0.06 24.14,-4.24 33.71,-11.87l0 0c15.09,12.81 28.51,34.52 39.02,50.65 17.73,27.2 35.15,53.09 56.95,77.34l0.48 0.55 0.48 0.25 -0.18 0.31 0.06 0.06 -0.34 0.58c-76.66,-38.86 -153.74,-67.67 -231.01,-86.66zm-0.13 -28.89l-0.17 -37.05c42.74,-33.6 65.25,-96.08 31.33,-140.15l0 0c30.79,12.57 63.13,33.54 72.67,65.8 -1.12,-0.06 -2.26,-0.09 -3.38,-0.08 -30.15,0.14 -54.47,24.7 -54.33,54.83 0.06,13.22 4.85,25.81 13.47,35.65 -18.07,11.14 -38.53,17.87 -59.6,21.01zm100.57 -87.75c-17.04,0.08 -30.79,13.95 -30.71,30.98 0.08,17.03 13.95,30.79 30.99,30.71 17.02,-0.08 30.78,-13.96 30.71,-30.99 -0.08,-17.03 -13.97,-30.77 -30.99,-30.69l0 -0zm142.63 182.2l-0.21 -46.2c2.07,-7.88 5.48,-15.54 11.31,-20.86 1.35,-1.24 2.83,-2.35 4.4,-3.3 12.98,-1.27 23.9,-7.24 33.42,-15.3l-48.91 85.65zm-0.44 -94.46l-0.11 -24.26c6.6,4.91 14.67,8.14 23.13,9.26 7.32,0.96 14.85,0.47 22.04,-1.11l10.12 5.76 -0 0c-9.24,7.63 -20.48,13 -32.48,14.17 -7.69,0.76 -15.82,-0.28 -22.69,-3.82zm-0.71 -152.57l-0.04 -9.13c8.68,7.43 19.96,11.86 32.15,11.81 13.59,-0.06 26.35,-5.7 35.51,-15.45 9.18,14.97 13.8,32.74 14.96,50.13 1.54,22.99 -2.81,46.15 -10.96,67.63l-10.91 -6.25 -0 0c3.29,-40.31 -24.46,-83.01 -60.71,-98.74zm31.76 -73.47c-14.95,0.07 -27.02,12.24 -26.95,27.2 0.07,14.94 12.25,27 27.2,26.94 14.95,-0.07 27.02,-12.24 26.95,-27.19 -0.07,-14.96 -12.25,-27.02 -27.2,-26.95l0 -0zm124.73 26.74c-17.04,0.08 -30.79,13.95 -30.71,30.99 0.08,17.03 13.95,30.78 30.99,30.71 17.02,-0.08 30.79,-13.96 30.71,-30.99 -0.08,-17.03 -13.97,-30.77 -30.99,-30.7l0 -0zm-111.81 151.02l-7.2 12.66 28.65 16.36 7.17 -12.66 -28.63 -16.36zm47.76 -17.05l33.22 -58.18c-14.63,-10.09 -23.52,-26.71 -23.61,-44.7 -0.14,-30.14 24.2,-54.69 54.33,-54.83 8.05,-0.04 15.96,1.69 23.22,5.06l24.14 -42.26c-10.53,5.21 -21.17,10.15 -31.9,14.96 -12.12,5.44 -24.37,10.7 -36.35,16.43 -16.05,7.67 -35.64,17.8 -45.32,33.37 -5.57,8.95 -7.48,18.91 -7.4,29.31 3.45,7.15 6.58,14.44 9.07,21.96 9.14,27.34 7.74,53.06 0.59,78.87l0 0zm-270.95 1733.04c-5.22,-5.21 -10.17,-10.68 -14.87,-16.41 -4.69,-5.77 -9.9,-12.53 -15.62,-20.37 -5.74,-7.79 -12.79,-17.74 -21.11,-29.71 -8.36,-12.01 -18.26,-26.88 -29.75,-44.62 -17.74,-27.09 -36.51,-57.36 -56.33,-90.73 -19.81,-33.37 -40.14,-66.75 -61.02,-100.12 -12.5,-19.81 -27.39,-43.28 -44.57,-70.42 -17.23,-27.12 -36,-53.73 -56.33,-79.79 -20.36,-26.08 -41.99,-49.56 -64.93,-70.41 -22.96,-20.87 -45.91,-35.48 -68.86,-43.83l0 -15.64c32.34,-11.45 67.56,-35.7 105.63,-72.74 38.07,-37.03 74.04,-79.02 107.96,-125.96 33.9,-46.94 62.83,-94.92 86.82,-143.96 23.98,-49.01 37.55,-91.25 40.69,-126.74l137.68 0c-6.25,14.6 -11.98,27.91 -17.22,39.91 -5.22,11.98 -10.68,23.73 -16.41,35.19 -5.72,11.5 -12.01,23.73 -18.77,36.78 -6.76,13.04 -14.85,27.9 -24.24,44.61 -15.64,27.09 -32.08,55 -49.31,83.68 -17.18,28.68 -35.44,56.07 -54.74,82.16 -19.29,26.06 -39.14,50.34 -59.47,72.74 -20.33,22.44 -40.43,40.95 -60.24,55.55l0 4.69c23.99,16.72 45.65,35.49 64.94,56.33 19.29,20.88 39.1,45.65 59.47,74.33 20.33,28.69 42.24,62.06 65.71,100.13 23.47,38.07 51.89,82.17 85.26,132.21 35.45,53.22 66.24,98.57 92.3,136.12 26.08,37.55 51.11,69.89 75.1,97.02l-187.75 0zm-611.76 0l0 -644.61c0,-68.86 -1.81,-136.9 -5.48,-204.21 -3.65,-67.27 -11.2,-134.79 -22.69,-202.61l176.82 0c-2.11,91.81 -4.43,182.29 -7.06,271.47 -2.59,89.18 -3.88,179.66 -3.88,271.47 0,84.49 1.29,169.24 3.88,254.25 2.63,85 9.65,169.76 21.14,254.25l-162.73 0zm-464.71 -999.23c6.78,-16 17.28,-33.97 25.49,-49.84 41.93,-80.95 84.7,-166.63 127.12,-246.35 7.07,-13.29 7.32,-18.8 15.6,-22.16 9.29,-3.76 18.11,-6.89 27.67,-10.16 342.07,-117.14 756.71,-122.56 1101.36,-12.83 9.99,3.18 78.41,23.78 83.07,30.21l121.86 213.89c9.17,16.53 17.92,31.22 26.98,47.16 4.49,7.9 9.01,16.02 13.66,24.09 3.84,6.66 10.48,16.91 12.78,23.43 -19.07,14.74 -22.69,18.69 -38.15,38.24 -104.45,132.17 -69.97,277.37 -31.19,429.08 46.51,181.98 82.63,337.32 -3.88,512.05 -65.09,131.45 -184.09,231.73 -300.81,312.7 -85.26,59.14 -195.81,119.4 -293.38,166.43l-78.17 36.45c-38.43,18 -21.72,15.58 -79.67,-10.21 -76.47,-34.03 -181.42,-89.73 -252.33,-131.99 -152.16,-90.68 -310.71,-209.73 -395.13,-369.43 -149.6,-283.01 50.16,-550.92 22.02,-779.94 -9.02,-73.39 -39,-131 -84.83,-183.33 -6.59,-7.52 -15.54,-11.7 -20.07,-17.48zm-106.7 -11.25l0 1.84c6.18,2.92 18.74,14.47 22.57,19.21 47.15,58.4 80.65,109.39 96.9,190.23 37.55,186.88 -69.65,368.16 -64.76,576.6 3.82,162.44 83.31,284.1 185.31,391.03l41.7 40.51c20.46,19.53 67.72,57.73 89.52,75.01 112.1,88.84 276.83,183.14 407.68,250.32l109.65 54.83 3.07 0 55.26 -28.01c110.7,-54.3 273.62,-136.53 372.49,-203.28 53.4,-36.06 95.03,-63.75 143.77,-104.33l85.87 -78.63c103.75,-109.94 181.51,-233.58 175.72,-401.49 -1.7,-49.31 -12.48,-95.82 -22.74,-142.04 -45.54,-205.1 -112.06,-422.37 24.86,-601.35 12.81,-16.75 23,-30 40.92,-41.7l0 -1.96c-3.69,-3.72 -51.39,-90.46 -58.11,-102.71 -18.84,-34.36 -38.09,-68.3 -57.54,-102.92 -19.36,-34.45 -37.83,-68.56 -57.52,-102.94l-21.67 -38.99c-3.38,-6.42 -3.24,-7.63 -10.04,-10.18 -19.33,-7.26 -38.94,-13.91 -59.01,-20.56 -82.24,-27.26 -167.23,-48.82 -256.17,-64.67 -70.75,-12.61 -141.33,-21.2 -213.47,-26.01 -13.31,-0.89 -68.99,-1.88 -76,-4.64l-110.69 0c-8.56,2.39 -65.53,2.71 -80.13,3.54 -25.15,1.44 -50.59,3.36 -75.71,5.66 -147.48,13.46 -347.54,50.06 -482.56,98.88 -19.47,7.04 -16.45,2.51 -24.38,17.38l-184.8 351.4z"/>
 </g>
</svg>
