<?xml version="1.0" encoding="UTF-8"?>
<!DOCTYPE svg PUBLIC "-//W3C//DTD SVG 1.1//EN" "http://www.w3.org/Graphics/SVG/1.1/DTD/svg11.dtd">
<!-- Creator: CorelDRAW 2018 (64-Bit) -->
<svg xmlns="http://www.w3.org/2000/svg" xml:space="preserve" width="150mm" height="150mm" version="1.1" style="shape-rendering:geometricPrecision; text-rendering:geometricPrecision; image-rendering:optimizeQuality; fill-rule:evenodd; clip-rule:evenodd"
viewBox="0 0 33155.37 33155.35"
 xmlns:xlink="http://www.w3.org/1999/xlink">
 <defs>
  <style type="text/css">
   <![CDATA[
    .fil0 {fill:black}
   ]]>
  </style>
 </defs>
 <g id="Layer_x0020_1">
  <metadata id="CorelCorpID_0Corel-Layer"/>
  <path class="fil0" d="M4694.49 0l23766.42 0c2581.96,0 4694.47,2112.46 4694.47,4694.42l0 23766.51c0,2581.94 -2112.5,4694.42 -4694.47,4694.42l-23766.42 0c-2581.96,0 -4694.49,-2112.48 -4694.49,-4694.42l0 -23766.51c0,-2581.96 2112.53,-4694.42 4694.49,-4694.42zm12264.89 12107.96l-1393.7 0 -274.77 757.51 -618.81 0 1264.17 -3245.49 651.88 0 1299.71 3245.49 -637.42 0 -291.06 -757.51zm2658.62 0l-975.34 0 -12.27 -13 -44.76 0 -2.01 1332.62 -533.89 0 0 -1319.63 -341.59 0 -189.36 -473.13 530.95 0 0 -567.18 2.56 -2.14 0 -425.01 1727.59 0 0 452.26 -1194.26 0 0 542.07 1032.37 0 0 473.13zm-5113.04 869.95l1239.7 0 0 449.67 -1772.44 0 0 -2779.41 532.74 0 0 2329.74zm2271.69 -1343.08l-523.15 -1408.68 -512.56 1408.68 1035.71 0zm4332.79 9279.96c205.59,-272.91 435.02,-55.99 712.55,-628.09 103.14,-212.92 382.52,-731.98 597.28,-787.73 -54.11,631.65 -636.01,1401.32 -1309.84,1415.82zm-3169.83 -4153.39c65.82,-213.1 259.12,-444.66 259.12,-613.11 0,-47.17 0,-94.38 0,-141.57 0,-143.36 -84.13,-160.1 -194.14,-188.63 33.88,-116.46 89.98,-129.17 121.72,-178.99 48.19,-75.62 28.29,-152.78 -54.64,-189.65 -66.4,-29.53 -159.1,-44.05 -212.61,-56.1 152.16,-293.58 141.22,-347.34 -135.01,-537.56 14.92,-87.4 38.06,-90.07 38.06,-217.61 0,-162.73 -358.54,-196.48 -470.25,-203.82 -118.43,-7.8 -236.86,-15.61 -355.29,-23.39 26.66,66.22 15.16,129.53 83.31,188.34 123.78,106.83 170.84,386.35 160.1,401.98 41.73,67.15 85.47,127.12 109.79,201.63 49.2,150.41 132.69,183.86 132.69,284.74 0,31.45 0,62.88 0,94.32 4.04,205.21 8.09,410.4 12.13,615.61 50.66,230.54 -360.04,375.47 -642.64,375.47 -145.53,0 -100.37,5.02 -245.9,5.02 12.38,11.43 -165.95,17.86 -153.58,29.31 -259.14,267.03 -518.28,534.07 -777.43,801.1 -2.96,-24 -5.95,-48.01 -8.93,-72.01 -67,-43.92 -133.99,-87.86 -201.01,-131.78 -19.47,23.43 -38.95,46.84 -58.44,70.25 100.55,89.03 201.08,178.07 301.63,267.1 187.17,-55.59 374.35,-111.18 561.52,-166.77 64.63,-62.86 129.26,-125.75 193.89,-188.63 40.25,-54.09 80.52,-108.2 120.77,-162.31 -7.87,54.11 -15.72,108.22 -23.61,162.31 -80.9,94.4 -161.8,188.79 -242.72,283.17 -69.89,255.27 -840.42,888.72 -1079.25,1120.83 -186.11,181.05 -394.44,350.28 -532.87,566.98 -121.92,190.64 -183.11,615.61 -328.19,719.07 21.31,-929.32 1164.28,-1613.36 1164.28,-1887.82 0,-57.29 -217.72,-188.85 -291.06,-188.85 -98.32,0 -284.43,381.26 -368.09,491.63 -107.49,142.26 -274.33,335.55 -395.34,464.88 -329.59,352.04 -449.21,1016.26 -594.98,1120.16 6.19,-271.59 243.4,-915.26 354.78,-1117.93 137.51,-250.61 132.47,-142.26 234.23,-480.05 46.06,-152.27 74.27,-442.36 138.68,-573.01 -264.27,-149.6 -537.01,572.79 -610.81,868.89 -112.31,451.27 -407.97,497.42 -407.97,1113.25 0,94.38 0,188.76 0,283.15 -209.23,-73.56 -109.08,-194.4 -234.92,-290.51 -151.48,-115.71 -147.59,38.13 -298.62,-181.49 -5.13,-15.23 -10.26,-30.46 -15.36,-45.71 131.16,-41.84 262.35,-83.68 393.51,-125.53 63.95,-166.99 349.52,-538.46 349.52,-819.82 0,-31.43 0,-62.88 0,-94.32 0,-682.27 -584.44,-1746.03 -1261.25,-1746.03 -16.18,0 -32.38,0 -48.58,0 -239.71,0 -436.59,191.31 -436.59,424.52 0,91.42 242.48,377.26 242.48,755.17 17.88,157.27 35.76,314.53 53.62,471.8 3.45,235.45 437.76,334.43 577.1,519.28 -127.89,61.76 39.87,47.26 -145.53,47.26 -16.2,0 -32.4,0 -48.58,0 -32.32,0 -64.63,0 -96.95,0 -49.05,-78.34 -98.1,-156.67 -147.14,-235.01 -80.28,31.14 -160.58,62.29 -240.88,93.43 -117.57,344.48 -195.97,-584.18 -194.36,-754.95 3.45,-347.6 -85.25,-755.39 -387.78,-755.39 -48.52,0 -97.01,0 -145.53,0 -148.98,0 -291.08,43.7 -291.08,188.83 0,146.5 144.4,217.83 193.89,424.74 -98.1,-50.37 -285.8,-188.83 -388.03,-188.83 -68.06,0 -96.95,64.43 -96.95,141.57 0,15.76 0,31.52 0,47.26 0,546.49 633.71,1203.34 679.11,1368.54 -252.11,-65.32 -571.38,-505 -718.06,-717.26 -221.88,-320.83 -397.64,-526.42 -397.64,-1028.74 -343.11,-176.59 -291.08,-65.12 -291.08,330.21 -47.37,-18.66 -94.74,-37.31 -142.1,-55.97 -21.46,112.44 -42.93,224.9 -64.39,337.34 -34.61,-139.94 -69.23,-279.9 -103.82,-419.84 -71.06,-39.54 -142.1,-79.09 -213.17,-118.63 -10.3,1151.4 424.23,1103.68 571.84,1720.17 32.38,0 64.79,0 97.17,0 19.25,-188.41 38.5,-376.8 57.76,-565.21 29.27,-0.38 58.53,-0.75 87.8,-1.13 129.33,267.41 258.68,534.82 388.01,802.23 132.78,138.32 265.55,276.63 398.35,414.93 -99.93,-14.79 -199.86,-29.57 -299.79,-44.36 -0.53,49.56 -1.06,99.13 -1.61,148.71 0,220.28 187.48,471.78 436.61,471.78 48.52,0 97.03,0 145.55,0 16.95,-10.32 33.91,-20.64 50.88,-30.99 -95.82,-148.18 -191.62,-296.39 -287.41,-444.57 111.23,79.88 222.47,159.79 333.7,239.67 349.52,141.13 699.03,282.28 1048.55,423.42 20.56,-22.3 41.09,-44.6 61.65,-66.91 -100.37,-194.93 -200.77,-389.88 -301.16,-584.82 103.14,49.27 100.86,86.73 209.72,86.73 124.91,0 145.53,-232.11 145.53,-377.48 73.58,175.39 147.14,350.81 220.73,526.2 105.04,8.02 210.09,16.05 315.13,24.07 -57.31,216.28 -99.25,98.56 -99.25,251.96 0,31.43 0,62.86 0,94.32 0,403.1 457.92,660.85 776.03,660.85 357.55,0 1164.28,-354.52 1164.28,-613.59 0,-157.33 0,-314.67 0,-472 142.94,-52.63 285.89,-105.24 428.83,-157.86 2.59,52.63 5.19,105.24 7.78,157.86 0,91.18 15.36,84.04 48.61,141.57 13.75,11.74 27.5,23.5 41.25,35.23 128.51,-142.26 257,-284.49 385.51,-426.75 -12.91,-11.07 -25.82,-22.15 -38.75,-33.22 -32.32,0 -64.63,0 -96.95,0 18.12,-62.29 36.21,-124.55 54.31,-186.84 -85.78,-42.37 -171.57,-84.72 -257.37,-127.1 338.3,-23.41 736.62,-363.43 736.62,-582.61 0,-15.74 0,-31.5 0,-47.26 0,-135.12 -194.14,-222.52 -194.14,-472 0,-62.88 0,-125.75 0,-188.63 0,-177.93 252.82,-355.18 388.27,-424.74 -92.13,215.47 -184.28,430.91 -276.41,646.37 108.26,4.75 216.5,9.5 324.75,14.26 297.96,0 339.67,-385.29 339.67,-707.91 295.28,-302.44 782.75,-689.48 905.19,-1085.86zm16.62 206.78c0,72.81 0,145.64 0,218.45 567,244.97 1151.31,394.75 1746.2,566.34 9.64,-410.71 298.42,-642.35 475.8,-905.91 106.56,-158.5 159.52,-232.09 319.73,-349.59 194.11,-142.92 384.58,-175.02 477.64,-243.47 68.99,-50.62 152.18,-280.05 266.33,-401.33 121.46,-129.11 235.82,-228.09 364.62,-353.17 199.18,-193.98 496.45,-530.88 861.09,-530.88 77.69,0 727.67,745.6 860.38,861.97 329.56,288.74 692.15,479.36 692.15,1072.88 0,173.03 0,346.05 0,519.06 0,888.74 -762.99,1709.25 -1173.46,2256.62 -528.05,703.87 -980.25,1224.05 -1925.2,1524.81 -1246.35,396.43 -1419.16,766.99 -2419.81,-206.45 -323.15,-314.38 -540.19,-534.44 -816.37,-904.57 -29.55,-39.45 -838.83,-872.67 -845.02,-877.14 -60.28,43.04 -438.45,637.91 -523.94,764.54 -187.24,276.91 -445.08,428.54 -699.03,641.47 -277.78,232.77 -137.51,377.24 -676.1,616.27 -241.35,107 -689.19,431.88 -914.49,431.88 -48.5,0 -97.01,0 -145.53,0 -130.17,0 -1280.7,-494.99 -1597.23,-569.9 -417.14,-98.56 -1184,-436.79 -1517.01,-647.94 -446.47,-282.93 -611.94,-798.18 -833.35,-1313.02 -84.33,-195.97 -284.65,-327.53 -419.64,-629.86 -91.91,-206.01 -144.4,-638.11 -144.4,-945.13 0,-220.22 0,-440.44 0,-660.65 0,-235.89 490.72,-1082.7 620.89,-1283.8 212.92,-328.44 572.5,-887.17 1076.97,-887.17 48.52,0 97.03,0 145.53,0 124.44,0 704.06,661.54 836.77,790.62 550.29,535.33 283.5,562.98 618.59,1049.94 1002.02,0 1116.16,603.54 1457.64,1230.06 144.78,-95.42 289.56,-190.84 434.34,-286.29 348.6,-197.45 697.19,-394.92 1045.79,-592.4 -73.72,-54.18 -147.43,-108.37 -221.17,-162.55 -8.49,-375.92 -242.5,-410.46 -242.5,-566.32 0,-15.76 0,-31.52 0,-47.28 0,-394.19 -81.81,-690.49 126.3,-1009.78 296.12,-417.62 71.17,-594.65 795.53,-594.65 48.5,0 97.01,0 145.53,0 0,-116.57 -2.63,-93.7 116.02,-134.52 90.01,-30.99 219.95,-75.66 344.02,-118.3 377.71,-129.75 385,-165.42 744.18,-16.09 146.97,61.12 300.94,129.08 325.39,149.18 41.38,34.28 124.64,194.64 136.84,363.65 90.45,97.06 161.11,192.85 170.99,233.97 7.8,105.24 3.4,170.66 42.7,221.96 142.81,186.44 116.13,281.6 183.53,499.81 80.63,261.07 96.88,290.49 -20.14,536.14 -76.9,161.49 -153.82,322.98 -230.74,484.44 -34.08,71.59 -66.38,145.71 -66.38,204.08zm-1261.47 -536.72c52.5,-191.09 145.99,-230.76 388.25,-235.89 -20.4,238.12 -132.93,235.89 -388.25,235.89zm436.61 -1321.28c0,47.21 0,94.4 0,141.6 -48.5,15.67 -97.01,31.36 -145.53,47.04 -442.4,123.23 -884.83,246.45 -1327.23,369.68 5.79,18.35 11.6,36.71 17.42,55.06 156.85,-44.78 172.34,-47.04 339.64,-47.04 223.44,0 208.02,269.2 58.22,339.8 10.23,15.16 20.47,30.33 30.7,45.49 35.08,-18.37 70.13,-36.71 105.21,-55.08 116.2,-59.75 921.56,-345.81 921.56,-47.04 0,188.17 -512.69,235.89 -776.03,235.89 -57.98,106.34 -130.19,283.15 -291.06,283.15 -25.91,0 -106.58,-67.99 -145.55,-94.29 9.64,113.92 95.35,283.15 -48.58,283.15 -240.88,0 -533.56,-421.38 -533.56,-660.85 0,-127.94 43.81,-199.53 102.27,-319.66 108.31,-222.54 277.86,-529.82 382.7,-529.82 16.2,0 32.38,0 48.58,0 234.7,0 12.6,116.62 291.06,188.85 6.21,-266.66 124.91,-283.17 388.03,-283.17 92.83,0 33.24,94.32 194.14,94.32 131.1,0 133.84,-22.52 242.48,-47.06 48.52,0 97.03,0 145.53,0zm88.48 307.26c2.9,70.6 5.79,141.2 8.71,211.8 -147.83,33.46 -921.81,348.51 -921.81,47.28 0,-109.55 176.74,-136.84 354.87,-146.24 159.34,-8.4 265.13,-8.51 414.18,-61.56 48.01,-17.09 96.02,-34.19 144.05,-51.28zm-1204.18 -543.37c77.01,-156.07 77.08,-253.06 271.43,-253.06 157,0 254.1,57.31 359.32,111.49 108.62,-24.53 111.38,-47.06 242.48,-47.06 68.06,0 96.95,64.23 96.95,141.6 0,213.14 -1234.42,235.89 -1503.73,235.89 -13.44,-10.76 -26.88,-21.55 -40.34,-32.34 148.43,-174.91 219.84,-432.85 426.4,-271.63 49.18,38.37 98.34,76.74 147.5,115.12zm485.2 -377.46c64.65,0 129.26,0 193.89,0 138.68,0 88.7,14.92 145.55,94.32 -151.56,0 -339.44,75.35 -339.44,-94.32zm2331.48 3089.61c304.06,126.45 618.72,299.66 722.72,457.26 -360.53,-86.4 -721.08,-172.83 -1081.59,-259.25 -71.88,-17.2 -130.76,-4.16 -137.02,-64.96 -5.24,-50.73 -55.75,-8.66 -40.78,33.71 -1.39,1.33 641.27,437.89 710.25,488.71 189.54,139.58 302.07,643.92 550.98,643.92 80.9,0 161.8,0 242.72,0 11.45,-133.33 -1.15,-188.85 145.53,-188.85 186.8,0 234.45,265.33 484.97,330.43 -59.37,-216.92 -145.55,-119.27 -145.55,-283.15 0,-127.54 23.39,-130.21 48.58,-236.11 258.77,0 517.53,0 776.28,0 -258.06,-374.81 -727.67,-99 -727.67,-377.48 0,-108.79 33.69,-141.57 145.53,-141.57 48.52,0 97.03,0 145.53,0 168.45,0 74.05,94.29 242.5,94.29 177.85,0 355.69,0 533.54,0 184.74,0 421.27,-424.72 533.8,-424.72 111.62,0 145.53,32.98 145.53,141.57 0,31.52 0,63.04 0,94.54 0,302.77 -485.2,762.75 -485.2,1085.37 0,125.84 0,251.65 0,377.48 0,153.4 41.95,35.68 71.75,203.11 -225.52,148.71 -451.05,297.45 -676.57,446.14 56.08,-122.01 112.13,-244.07 168.21,-366.1 -545.94,123.76 -239.27,388.18 -714.39,768.1 -259.67,207.82 -557.63,503.45 -853.26,667.77 85.94,56.28 171.9,112.53 257.84,168.8 -28.65,119.93 -40.58,235.89 -194.14,235.89 -113.13,0 -226.27,0 -339.42,0 -204.9,0 -145.55,-183.06 -145.55,-377.48 -126.96,-184.61 -727.67,-573.68 -727.67,-755.17 0,-31.43 0,-62.88 0,-94.32 0,-127.32 129.04,-188.85 242.48,-188.85 197.34,0 153.58,472.02 921.81,472.02 195.51,-165.45 317.21,-180.83 484.29,-430.31 -145.31,17.62 -290.62,35.23 -435.93,52.83 -32.32,0 -64.63,0 -96.95,0 -11.69,0 -523.24,-181.27 -339.42,-330.43 113.13,-235.96 226.27,-471.93 339.42,-707.89 -150.35,107.22 -201.45,472 -436.61,472 -32.32,0 -64.63,0 -96.95,0 -108.86,0 -106.58,-37.47 -194.11,-94.54 -83.66,2.98 -167.32,5.95 -250.96,8.93 -76.85,-63.48 -153.71,-126.94 -230.56,-190.42 -82.05,29.07 -164.1,58.13 -246.17,87.18 -24.76,-90.29 -94.65,-235.89 -193.89,-235.89 -120.77,0 -182.42,117.94 -317.65,190.18 -7.34,-173.54 -14.68,-347.07 -22.02,-520.61 -78.84,-51.28 -388.01,-200.24 -388.01,-283.17 0,-185.05 10.08,-472.02 193.89,-472.02 64.7,0 129.42,0 194.11,0 86.87,317.05 240.42,462.21 544.32,556.08 342.89,105.68 322.49,345.15 668.57,435 -253.02,-367.21 -539.28,-694.52 -909.89,-944.24 -20.16,-283.01 -40.34,-566.03 -60.5,-849.04 310.58,0 687.71,186.51 973.29,305.27zm-9171.68 -635.48c174.88,45.27 129.73,4.24 145.53,188.63 -48.5,0 -97.01,0 -145.53,0 0,-62.88 0,-125.75 0,-188.63zm11982.32 235.89c9.39,110.83 111.84,330.21 -48.58,330.21 -60.5,0 -158.62,-184.39 -193.89,-235.89 -278.24,22.52 -121.02,113.72 -291.08,94.32 -193.67,-18.72 -387.32,-37.47 -580.99,-56.19 43.61,115.34 87.24,230.69 130.88,346.03 -73.8,109.26 -266.57,229.44 -471.69,229.44 -67.84,0 -96.95,-64.43 -96.95,-141.57 0,-47.19 0,-94.38 0,-141.6 0,-254.61 321.32,-762.53 472.82,-908.57 372.91,-359.4 696.06,-216.26 788.43,-601.55 16.18,-15.76 32.38,-31.52 48.58,-47.28 48.05,-17.97 96.11,-35.96 144.16,-53.95 -15.74,80.94 -31.48,161.89 -47.21,242.81 -18.66,93.81 -37.29,187.59 -55.92,281.38 50.95,0.6 101.9,1.19 152.87,1.79 327.73,0 582.14,277.13 582.14,613.37 0,15.74 0,31.5 0,47.26 0,127.32 -23.14,129.99 -48.36,235.89 -9.02,14.06 -18.04,28.12 -27.03,42.15 -152.74,-92.68 -305.45,-185.36 -458.16,-278.04zm194.11 -1415.8c0,-127.54 23.16,-130.21 48.36,-235.89 242.56,0 485.13,0 727.69,0 236.97,0 1212.87,1002.66 1212.87,1415.8 0,125.84 0,251.65 0,377.48 0,399.99 -176.7,392.18 -261.04,595.51 -127.67,307.02 13.53,286.29 -224.15,631.43 -129.35,0 -258.68,0 -388.03,0 -81.58,118.61 -259.65,413.16 -377.93,481.81 -76.77,44.6 -640.8,223.86 -640.8,37.24 0,-32.34 474.19,-488.51 543.39,-556.72 192.08,-189.1 463.45,-271.14 776.28,-342.27 -19.47,-77.87 -38.97,-155.76 -58.44,-233.66 70.36,-102.12 145.53,-156.96 145.53,-330.21 0,-173.07 0,-346.19 0,-519.28 0,-251.05 -44.01,-459.29 -193.89,-566.09 0,251.27 17.66,605.57 -177.85,653.96 -70.6,-157.78 -141.2,-315.57 -211.77,-473.37 -128.89,18.43 -257.77,36.87 -386.64,55.3 -123.78,20.29 -267.94,-362.54 -287.41,-475.36 -37.82,-216.95 -246.17,-512.58 -246.17,-515.7zm-10478.59 -47.28c-16.11,15.76 -32.23,31.52 -48.36,47.28 -48.5,0 -97.01,0 -145.53,0 -170.06,246.81 -404.76,357.64 -458.14,592.64 -72.9,320.61 -160.91,524.85 -221.17,775.9 -32.32,0 -64.63,0 -96.95,0 -19.03,-345.97 -38.06,-691.93 -57.07,-1037.9 -115.98,233.37 -231.95,466.74 -347.93,700.11 -26.72,2.52 -53.47,5.06 -80.21,7.58 -40.34,-169 -96.95,-221.85 -96.95,-424.74 0,-3.36 305.76,-551.4 339.67,-613.59 464.11,37.44 88.02,-9.15 327.29,-294.97 47.43,-56.41 373.57,-271.34 448.75,-271.34 80.92,0 161.82,0 242.72,0 147.83,0 195.73,45.25 291.08,94.29 16.11,15.76 32.23,31.52 48.36,47.28 16.18,15.76 32.38,31.52 48.58,47.26 80.83,78.64 161.64,157.27 242.48,235.89 16.2,15.76 32.38,31.52 48.58,47.28 16.2,15.67 32.4,31.36 48.61,47.04 16.11,15.76 32.23,31.52 48.34,47.28 16.2,15.76 32.4,31.5 48.61,47.26 0,47.21 0,94.4 0,141.6 0,47.19 0,94.38 0,141.57 -32.32,0 -64.63,0 -96.95,0 -32.4,-110.14 -64.81,-220.28 -97.19,-330.43 -16.11,-15.76 -32.23,-31.52 -48.36,-47.28 -80.21,-19.23 -160.43,-38.48 -240.64,-57.73 -0.69,-75.15 1.19,-90.25 0.51,-165.38 0,-60.59 -1.55,-173.69 -69.05,-58.29 -44.23,75.55 -60.61,218.71 -79.06,281.4zm-3469.8 6378.54l-272.65 -427.62 106.69 -68.01 191.13 299.75 524.58 -334.45 81.52 127.85 -631.28 402.48zm328.68 -903.51l-661.71 350.21 -113.41 -214.25c-42.95,-81.16 -67.68,-135.69 -74.09,-163.85 -10.06,-43.19 -5.28,-86.34 14.46,-129.53 19.74,-43.17 55.94,-78.69 108.62,-106.58 40.67,-21.51 78.62,-32.14 114.08,-32.18 35.56,0.11 67.15,7.25 94.98,21.51 27.72,14.32 50.42,31.87 67.9,52.61 23.19,28.54 50.79,72.88 82.76,133.26l45.98 86.87 249.51 -132.07 70.95 134.01zm-620.82 157.02l188.52 -99.78 -38.55 -72.85c-27.81,-52.54 -49.84,-85.61 -66.16,-99.66 -16.31,-14.04 -34.44,-22.19 -54.66,-24.31 -20.09,-2.17 -39.87,1.79 -59.59,12.22 -24.18,12.8 -40.29,30.41 -48.61,52.74 -8.2,22.48 -8.69,45.42 -1.19,69.25 5.48,17.42 20.8,50.11 46.24,98.16l34 64.23zm-17.82 -583.05c-69.56,31.41 -132.73,47.32 -189.45,47.9 -41.75,0.31 -82.65,-6.85 -122.41,-21.2 -39.76,-14.37 -73.52,-34.5 -101.43,-60.32 -37.18,-34.46 -68.41,-79.44 -93.52,-135.03 -45.47,-100.68 -50.48,-195.17 -15.41,-283.9 35.32,-88.61 108.57,-158.02 219.91,-208.33 110.39,-49.84 210.34,-58.86 299.64,-27.1 89.48,31.67 156.82,97.83 202.09,198.03 45.84,101.5 51.37,196.32 16.33,284.25 -34.9,87.86 -106.78,156.47 -215.75,205.7zm-68.72 -139.92c77.34,-34.95 127.82,-79.35 151.72,-133.17 23.72,-53.73 23.21,-108.2 -1.61,-163.15 -24.89,-55.13 -65.12,-91.27 -120.66,-108.82 -55.61,-17.31 -122.98,-8.11 -202.25,27.67 -78.29,35.39 -129,78.93 -151.85,130.74 -23.1,51.74 -21.73,106.01 4.02,163.01 25.68,56.87 65.96,93.94 120.57,111.16 54.77,17.13 121.44,8.05 200.06,-27.45zm73.03 -786.42l-711.89 231.73 -70.29 -215.91 443.99 -285.67 -526.6 31.96 -70.44 -216.44 711.91 -231.73 43.37 133.24 -560.28 182.93 606.12 -42.06 45.11 138.52 -514.97 322.14 560.61 -181.93 43.35 133.22zm-413.6 -1490.05l36.27 159.21 -151.81 100.9 66.69 292.76 180.01 22.79 35.61 156.34 -794.53 -117.13 -35.59 -156.16 663.35 -458.72zm-227.98 336.11l-247.07 163.01 292.63 37 -45.56 -200.02zm-545.21 -413.43l-69.27 -511.87 616.53 -83.46 -8.84 -65.27 287.01 -38.86 16.98 125.37 -161.64 21.88 62.97 465.26 161.64 -21.88 16.98 125.37 -287.04 38.86 -8.55 -63.22c-67.55,-22.15 -143.87,-32.58 -228.79,-31.1 -85.08,1.48 -191.59,10.99 -319.57,28.31l-78.4 10.61zm106.03 -159.96c224.51,-30.39 391.03,-31.83 499.56,-4.31l-38 -280.83 -491.16 66.49 29.6 218.65zm232.91 -1075.14l33.75 -149.38c83.91,16.18 147.72,48.92 191.66,98.01 43.74,49.11 68.74,113.63 74.82,193.74 7.52,99.25 -20.18,183.3 -83.11,252.4 -62.93,68.9 -153.11,107.91 -270.77,116.84 -124.24,9.42 -223.29,-15.38 -296.98,-74.29 -73.67,-58.91 -114.5,-140.76 -122.43,-245.35 -6.94,-91.42 14.54,-167.68 64.28,-228.77 29.38,-36.49 73.34,-65.34 131.98,-86.91l46.77 146.39c-37.91,11.8 -67.08,32.54 -87.4,62.22 -20.27,29.86 -28.8,64.76 -25.77,104.73 4.2,55.41 27.43,98.94 69.85,130.32 42.24,31.56 107.82,43.9 196.81,37.16 94.18,-7.16 160.14,-29.29 197.54,-66.2 37.55,-37.11 54.18,-82.78 50.06,-137.15 -3.05,-40.14 -18.37,-73.76 -46.11,-100.68 -27.72,-26.9 -69.27,-44.72 -124.95,-53.07zm-485.9 -312.96l2.59 -151.59 299.02 5.11 3.45 -201.96c1.61,-95.13 25.09,-163.59 70.42,-205.52 45.33,-41.93 99.2,-62.29 161.58,-61.23 51.04,0.88 94.23,14.52 129.5,41.09 35.45,26.39 59.17,56.25 71.33,89.76 12.13,33.31 17.77,81.34 16.71,143.89l-6.01 353.21 -748.58 -12.78zm624.65 -140.98l2.52 -146.9c0.82,-47.57 -0.91,-80.7 -5.13,-99.09 -4.2,-18.37 -14.37,-35.1 -30.35,-49.84 -15.96,-14.74 -35.7,-22.21 -59.39,-22.61 -34.15,-0.6 -59.28,11.36 -75.55,35.65 -16.27,24.47 -25,66.33 -26.04,125.92l-2.61 153.51 196.54 3.36zm-607.96 -653.29l11.47 -151.19 318 24.14c-0.93,-33.82 -7.71,-57.23 -20.89,-70.11 -13.02,-12.86 -50.37,-34.24 -112.09,-63.72 -78.45,-37.24 -126.45,-72.52 -143.7,-105.46 -17.26,-32.76 -23.36,-83.75 -18.08,-153.27 0.27,-3.47 0.62,-10.79 1.13,-21.93l111.56 8.47 -2.14 21.35c-2.34,30.92 -0.22,53.8 6.32,68.63 6.56,14.83 17.35,27.19 32.32,37.22 14.96,10.04 46.13,25.53 93.48,46.42 25.2,11.18 46,22.72 62.55,34.81 16.58,11.91 31.48,32.09 44.72,60.36 11.91,-32.82 33.31,-58.99 63.81,-78.71 30.5,-19.69 72.99,-40.58 127.63,-62.66l212.06 -86.14 -13.44 177.25 -199 74.89c-2.87,1.19 -8.31,3.76 -16.47,7.49 -2.74,1.55 -15.03,6.9 -36.54,16.11 -38.28,16.31 -62.4,30.22 -72.54,41.69 -10.12,11.63 -16.25,29.86 -18.5,55.04l326.34 24.76 -11.45 151.19 -746.55 -56.63zm895.61 -1244.87l-21.88 161.82 -177.58 41.2 -40.27 297.58 160.54 84.5 -21.51 158.88 -702.92 -388.47 21.48 -158.7 782.13 -196.81zm-331.44 234.76l-288.54 65.93 261.04 137.33 27.5 -203.26zm48.01 -666.09c-73.58,-20.31 -132.33,-48.45 -176.32,-84.28 -32.29,-26.46 -59.17,-58.11 -80.57,-94.56 -21.4,-36.45 -34.48,-73.52 -39.43,-111.23 -6.56,-50.26 -1.81,-104.82 14.41,-163.61 29.4,-106.52 85.96,-182.38 169.67,-228.15 83.79,-45.56 184.5,-52.12 302.27,-19.61 116.75,32.23 199.37,89.21 247.74,170.73 48.54,81.56 58.04,175.48 28.78,281.47 -29.62,107.36 -85.98,183.81 -169.16,229.02 -83,45.25 -182.16,52.05 -297.38,20.22zm36.58 -151.52c81.81,22.59 149.04,20.71 201.81,-5.39 52.61,-26.17 87.02,-68.37 103.07,-126.5 16.09,-58.29 8.27,-111.78 -23.21,-160.8 -31.72,-48.87 -89.39,-84.88 -173.2,-108.02 -82.82,-22.86 -149.64,-21.77 -200.37,3.45 -50.84,25.02 -84.48,67.61 -101.12,127.94 -16.6,60.14 -9.33,114.39 21.66,162.53 31.17,48.21 88.22,83.84 171.37,106.8zm553.69 -561.47l-706.01 -249.11 80.66 -228.62c30.57,-86.6 53.91,-141.75 70.25,-165.56 24.95,-36.67 59.9,-62.4 105.04,-77.14 45.11,-14.74 95.77,-12.22 151.98,7.63 43.39,15.3 76.92,36.01 100.99,62.04 24.03,26.21 40.18,54.29 48.58,84.41 8.24,30.06 10.72,58.66 7.32,85.56 -5.26,36.38 -19.14,86.76 -41.89,151.17l-32.69 92.68 266.24 93.96 -50.46 142.97zm-536.23 -349.99l201.14 70.97 27.43 -77.74c19.76,-56.03 29.15,-94.67 28.43,-116.2 -0.73,-21.51 -7.01,-40.34 -19.19,-56.65 -12,-16.25 -28.34,-28.12 -49.36,-35.52 -25.82,-9.11 -49.69,-9.04 -71.73,0 -22.08,9.22 -39.28,24.4 -51.72,46.06 -9.11,15.83 -22.74,49.27 -40.85,100.53l-24.16 68.54zm94.14 -625.29l211.27 -461.04 115.03 52.72 -148.09 323.2 565.61 259.16 -63.17 137.84 -680.64 -311.88zm1200.38 -762.75l-73.83 145.64 -181.25 -19.36 -135.76 267.83 123.91 132.53 -72.48 143.03 -536.39 -597.75 72.39 -142.86 803.4 70.93zm-390.15 112.91l-294.2 -32.45 201.47 215.42 92.72 -182.97zm436.35 -179.83l-632.89 -399.94 80.99 -128.18 249.26 157.51 157.53 -249.26 -249.28 -157.51 81.01 -128.18 632.89 399.94 -80.99 128.18 -276.67 -174.84 -157.53 249.26 276.67 174.84 -80.99 128.18zm403.21 -632.18l-614.26 -428.01 86.67 -124.4 614.26 428.01 -86.67 124.4zm-194.51 -670l-119.07 93.54c-75.42,-100.97 -66.75,-209.43 26.02,-325.36 54.88,-68.57 111.49,-108.33 169.69,-119.12 58.18,-10.79 107.62,0.22 148.45,32.89 27.89,22.32 46.64,50.48 56.5,84.48 9.7,33.88 10.26,73.63 1.92,119.18 44.27,-27.96 86.34,-42.06 126.17,-41.89 39.94,0.29 77.63,14.57 113.39,43.23 51.43,41.13 77.92,93.14 79.44,156.21 1.66,62.91 -27.52,132 -87.51,206.96 -48.89,61.09 -97.76,101.23 -146.48,120.27 -48.72,19.05 -108.2,14.96 -178.51,-12.07l51.13 -135.85c44.19,17.04 79.02,20.38 104.15,10.15 25.31,-10.12 48.76,-28.85 70.55,-56.05 29.82,-37.29 43.57,-70.93 41.11,-101.01 -2.59,-29.97 -14.23,-53.36 -35.19,-70.13 -23.94,-19.16 -51.13,-25.07 -81.3,-17.51 -30.04,7.43 -60.67,30.66 -91.73,69.43l-21.44 26.81 -88.17 -70.55 10.76 -13.48c28.87,-36.05 42.81,-70.2 41.86,-102.21 -0.84,-32.14 -14.83,-58.97 -41.64,-80.43 -21.37,-17.11 -45.53,-23.72 -72.63,-19.96 -26.99,3.85 -52.08,20.14 -75.17,48.98 -39.52,49.4 -40.29,100.57 -2.3,153.51zm1211.43 -596.07l-106.65 123.67 -171.3 -62.38 -196.12 227.36 88.41 158.44 -104.73 121.39 -377.02 -709.13 104.62 -121.26 762.79 261.91zm-405.84 15.85l-277.78 -102.21 143.78 257.53 133.99 -155.32zm-40.34 -609.73l110.14 -104.2 427.51 452.04 211.95 -200.46 -427.51 -452.02 110.16 -104.2 427.51 452.02 45.58 -43.1 199.02 210.45 -91.93 86.93 -112.07 -118.52 -385.95 365 -514.42 -543.95zm1068.4 28.82l-499.47 -557.7 112.95 -101.15 499.47 557.7 -112.95 101.15zm575.58 -469.74l-192.81 -246.1 -24.14 18.92c-37.73,29.55 -59.79,55.92 -66.49,79.33 -6.79,23.25 -6.81,77.5 -0.51,162.66l15.49 195.53 -142.28 111.47 -18.17 -171.28c-7.52,-67.81 -9.95,-117.52 -7.49,-148.89 2.48,-31.59 10.7,-64.61 24.65,-98.78 -61.51,34.24 -115.93,46.13 -163.46,35.52 -47.48,-10.61 -87.42,-36.45 -119.78,-77.74 -28.16,-35.94 -44.03,-74.86 -47.63,-116.77 -3.6,-41.89 5.64,-79.24 27.87,-111.91 22.19,-32.69 62.75,-72.21 121.75,-118.43l250.63 -196.37 461.72 589.35 -119.36 93.5zm-383.7 -489.73l-92.86 72.76c-47.19,36.96 -77.34,62.35 -90.54,76.01 -13.11,13.79 -20.31,31.19 -21.33,51.9 -1.04,20.73 6.19,40.98 21.77,60.87 16.25,20.71 34.35,33.09 54.2,37.24 19.87,4.13 38.95,1.37 57.2,-8.09 18.19,-9.57 51.88,-33.53 100.86,-71.9l88.06 -69.01 -117.37 -149.8zm753.53 -290.2l-121.11 76.52 -54.84 -86.78c-22.24,-35.19 -36.67,-64.85 -43.21,-88.94 -6.68,-24.25 -6.87,-49.67 -0.38,-76.26 6.41,-26.72 19.76,-52.89 39.76,-78.31l55.41 35.5c-18.9,23.28 -28.89,45.27 -30.33,66.16 -1.33,21.04 5.3,43.65 19.8,67.88l58.35 -36.87 76.52 121.11zm202.4 -127.91l-121.08 76.52 -54.84 -86.78c-22.35,-35.34 -36.85,-65.16 -43.41,-89.23 -6.56,-24.09 -6.52,-49.49 0.11,-76.15 6.56,-26.83 19.78,-52.89 39.5,-78.14l55.39 35.48c-18.88,23.3 -28.91,45.29 -30.33,66.18 -1.35,21.06 5.3,43.65 19.8,67.88l58.33 -36.87 76.52 121.11zm61.78 -388.74l463.49 -245.31 350.21 661.69 -133.99 70.93 -291.04 -549.87 -198.71 105.17 149.53 282.48c42.79,80.85 69.94,138.85 81.43,173.6 11.56,34.88 11.76,66.93 0.27,95.86 -11.49,28.96 -39.43,55.17 -83.93,78.73 -15.72,8.31 -44.87,21.77 -87.71,40.71l-54.86 -103.67 30.13 -15.36c27.89,-14.74 44.87,-28.47 50.42,-41.07 5.72,-12.69 0.71,-33.71 -14.88,-63.13l-60.63 -113.44 -199.73 -377.35zm647.44 -336.5l138.17 -62.42 123.09 272.54 184.08 -83.15c86.71,-39.17 158.64,-47.17 215.91,-24.09 57.29,23.1 98.69,63.08 124.35,119.96 21.02,46.53 27.14,91.4 18.19,134.63 -8.73,43.32 -25.6,77.54 -50.71,102.83 -24.93,25.22 -65.96,50.84 -122.96,76.59l-321.94 145.42 -308.19 -682.29zm394.28 504.58l133.88 -60.48c43.37,-19.61 72.59,-35.3 87.42,-46.95 14.81,-11.67 25.6,-28.01 32.09,-48.74 6.52,-20.71 4.84,-41.78 -4.91,-63.37 -14.06,-31.12 -35.61,-48.74 -64.52,-53.09 -29.09,-4.24 -70.67,5.72 -124.97,30.26l-139.92 63.22 80.92 179.15zm360.62 -828.04l283.54 -96.17c56.28,-19.08 98.8,-30.92 127.94,-35.65 29.35,-4.62 57.25,-3.23 84.02,4.07 26.83,7.47 51.63,20.95 74.51,40.6 22.86,19.67 39.52,44.94 49.89,75.46 11.18,33.02 12.64,66.58 4.16,100.17 -8.42,33.77 -25.68,62.64 -51.52,86.84 47.39,-1.9 87.68,8.36 121.24,30.83 33.42,22.52 57.07,54.26 71,95.35 10.99,32.36 14.19,66.22 9.53,101.85 -4.66,35.61 -16.84,67 -36.71,94.16 -19.74,26.92 -47.96,49.03 -84.61,66.24 -22.94,10.52 -79.97,31.72 -171.02,63.33l-241.46 81.89 -240.49 -708.99zm183.57 69.14l55.41 163.39 93.74 -31.81c55.61,-18.85 89.98,-31.43 102.96,-37.66 23.47,-11.1 39.94,-26.06 49.2,-44.85 9.28,-18.79 9.99,-39.45 2.28,-62.24 -7.45,-21.95 -19.56,-37.53 -36.25,-47.15 -16.69,-9.62 -37.49,-11.76 -62.2,-6.5 -14.74,3.16 -55.79,16.16 -122.96,38.95l-82.18 27.87zm95.38 281.22l64.5 190.13 132.69 -45.02c51.48,-17.46 83.82,-30.08 96.73,-37.6 19.96,-11.18 34.08,-26.46 42.37,-46.02 8.22,-19.72 8.22,-41.97 -0.35,-67.24 -7.29,-21.44 -18.5,-37.69 -33.93,-49.03 -15.27,-11.38 -34,-17.17 -55.77,-17.33 -21.77,-0.18 -65.36,10.76 -130.54,32.87l-115.69 39.23zm674.03 125.24l-205.59 -719.89 145.77 -41.64 205.61 719.89 -145.8 41.64zm115.71 -811.91l291.72 -67.33c57.89,-13.37 101.41,-20.91 130.88,-22.7 29.66,-1.66 57.27,2.52 83.18,12.47 25.95,10.1 49.29,25.99 70.07,47.85 20.78,21.86 34.84,48.65 42.09,80.06 7.85,33.97 5.92,67.5 -5.86,100.08 -11.78,32.78 -31.83,59.77 -59.97,81.27 47.35,2.83 86.4,17.09 117.55,42.79 30.99,25.75 51.35,59.7 61.12,101.99 7.67,33.27 7.49,67.31 -0.73,102.27 -8.2,34.99 -23.45,64.98 -45.93,90.03 -22.35,24.82 -52.63,43.96 -90.82,57.45 -23.87,8.2 -82.76,23.56 -176.5,45.93l-248.42 57.31 -168.36 -729.48zm175.7 87.13l38.81 168.12 96.44 -22.26c57.23,-13.2 92.7,-22.28 106.23,-27.21 24.47,-8.66 42.33,-21.93 53.42,-39.7 11.1,-17.75 13.9,-38.26 8.49,-61.69 -5.22,-22.57 -15.69,-39.3 -31.34,-50.53 -15.65,-11.23 -36.12,-15.45 -61.23,-12.71 -15.01,1.68 -57.14,10.52 -126.26,26.46l-84.57 19.52zm66.8 289.36l45.16 195.64 136.51 -31.52c52.98,-12.22 86.42,-21.57 100.02,-27.74 20.95,-9.13 36.56,-22.92 46.75,-41.55 10.15,-18.79 12.38,-40.94 6.37,-66.93 -5.08,-22.08 -14.63,-39.37 -28.85,-52.19 -14.06,-12.84 -32.09,-20.49 -53.73,-22.83 -21.66,-2.32 -66.13,4.18 -133.2,19.65l-119.03 27.47zm1061.5 -141.57l151.1 24.93c-11.21,84.7 -40.14,150.35 -86.58,197.08 -46.44,46.55 -109.39,75.31 -189.01,86.07 -98.6,13.35 -184.14,-9.37 -256.82,-68.1 -72.5,-58.8 -116.73,-146.52 -132.56,-263.45 -16.71,-123.47 2.23,-223.82 56.7,-300.83 54.46,-77.01 133.77,-122.56 237.75,-136.64 90.85,-12.29 168.23,4.66 232.13,50.71 38.15,27.19 69.54,69.38 94.51,126.68l-143.39 55.28c-13.99,-37.16 -36.43,-65.07 -67.24,-83.57 -30.99,-18.5 -66.35,-24.98 -106.08,-19.61 -55.08,7.47 -97.15,33.2 -125.99,77.38 -29.02,44.03 -37.47,110.25 -25.51,198.67 12.67,93.59 38.64,158.13 77.69,193.3 39.23,35.32 85.81,49.25 139.85,41.93 39.9,-5.39 72.57,-22.68 97.79,-51.92 25.24,-29.29 40.58,-71.81 45.64,-127.89zm257.33 -509.35l151.19 -11.47 22.63 298.22 201.39 -15.3c94.89,-7.21 165.22,9.84 211.16,51.08 45.95,41.27 71.22,92.99 75.95,155.21 3.85,50.9 -5.72,95.16 -28.91,132.73 -23.01,37.75 -50.53,64.14 -82.76,79.35 -32.07,15.19 -79.35,25.24 -141.75,29.97l-352.24 26.75 -56.65 -746.55zm198.27 608.91l146.48 -11.12c47.46,-3.6 80.28,-8.38 98.21,-14.26 17.9,-5.92 33.62,-17.59 46.82,-34.86 13.2,-17.24 18.81,-37.6 17.02,-61.23 -2.59,-34.06 -16.82,-57.98 -42.51,-71.93 -25.88,-13.95 -68.37,-18.77 -127.8,-14.26l-153.09 11.63 14.88 196.01zm620.34 -658.58l151.59 2.59 -5.44 318.87c33.71,-2.92 56.67,-11.05 68.76,-24.98 12.09,-13.73 31.21,-52.27 57.05,-115.62 32.56,-80.5 64.96,-130.5 96.84,-149.64 31.7,-19.16 82.23,-28.23 151.92,-27.03 3.49,0.04 10.81,0 21.97,-0.15l-1.9 111.84 -21.42 -0.86c-31.01,-0.53 -53.73,2.92 -68.17,10.32 -14.41,7.43 -26.1,18.92 -35.26,34.44 -9.15,15.54 -22.79,47.54 -40.85,96.04 -9.7,25.82 -19.98,47.26 -31.1,64.48 -10.92,17.24 -30.19,33.31 -57.62,48.19 33.46,9.97 60.83,29.8 82.29,59.08 21.46,29.31 44.83,70.49 70.07,123.74l98.43 206.65 -177.73 -3.03 -86.45 -194.25c-1.35,-2.81 -4.22,-8.09 -8.44,-16 -1.7,-2.65 -7.76,-14.61 -18.21,-35.52 -18.54,-37.27 -33.82,-60.52 -45.86,-69.98 -12.22,-9.44 -30.79,-14.46 -56.05,-15.23l-5.57 327.22 -151.59 -2.59 12.75 -748.56zm1295.98 805.92l-162.84 -12.36 -51.57 -174.84 -299.41 -22.72 -74.93 165.25 -159.88 -12.13 346.52 -724.53 159.68 12.11 242.43 769.23zm-253.84 -317.05l-82.78 -284.19 -121.75 268.65 204.52 15.54zm651.97 3.38c12.8,-75.26 34.86,-136.56 66.07,-183.95 23.05,-34.79 51.83,-64.72 85.94,-89.7 34.11,-24.95 69.65,-41.73 106.67,-50.46 49.34,-11.6 104.11,-12.4 164.23,-2.19 108.93,18.5 190.11,67.11 244.11,145.75 53.8,78.78 70.49,178.31 50.02,298.75 -20.27,119.4 -68.61,207.35 -144.82,263.72 -76.24,56.52 -168.72,75.46 -277.13,57.05 -109.79,-18.63 -191.55,-67 -244.91,-145.15 -53.4,-78 -70.18,-175.97 -50.18,-293.82zm154.46 21.09c-14.21,83.68 -5.57,150.37 25.75,200.24 31.32,49.69 76.79,79.68 136.25,89.76 59.61,10.12 112.07,-3.07 157.62,-39.32 45.44,-36.49 75.42,-97.5 89.98,-183.24 14.39,-84.7 6.56,-151.08 -23.65,-199 -30.02,-48.05 -75.82,-77.21 -137.48,-87.68 -61.51,-10.43 -114.76,2.25 -159.52,37.95 -44.8,35.9 -74.51,96.26 -88.94,181.29zm828.71 -222.72l536.81 157.47 -35.61 121.41 -391.32 -114.78 -48.85 166.55 193.8 56.85c53.36,15.65 95.93,35.21 127.23,58.55 31.43,23.41 54.49,56.32 69.05,98.91 14.61,42.42 15.05,87.4 1.17,134.72 -14.23,48.5 -38.99,86.47 -74.4,113.66 -35.19,27.1 -70.75,42.46 -106.76,45.71 -35.83,3.29 -83.51,-3.8 -142.88,-21.22l-338.96 -99.42 210.71 -718.41zm-29.62 639.68l140.98 41.36c44.98,13.2 77.38,20.34 96.88,21.33 19.52,0.99 38.46,-4.16 56.56,-15.74 18.06,-11.41 30.35,-28.51 36.98,-51.08 9.66,-32.93 4.8,-60.34 -14.37,-82.29 -19.38,-21.86 -57.47,-41.2 -114.67,-58l-147.32 -43.19 -55.04 187.62zm802.25 -405.03l496.62 168.43 -240.49 709.02 -143.58 -48.72 199.84 -589.17 -212.9 -72.21 -102.67 302.66c-29.38,86.65 -52.89,146.22 -70.25,178.42 -17.44,32.36 -40.58,54.51 -69.52,66.05 -28.93,11.52 -67.17,9.24 -114.87,-6.94 -16.82,-5.72 -46.64,-17.66 -89.81,-35.81l37.66 -111.07 31.85 11.36c29.86,10.15 51.52,13.06 64.5,8.44 13.13,-4.58 24.95,-22.63 35.65,-54.15l40.83 -121.97 137.13 -404.34zm1013.4 1217.6l-148.45 -68.01 12.22 -181.89 -272.98 -125.08 -127.56 129.04 -145.75 -66.8 576.13 -559.53 145.6 66.71 -39.21 805.56zm-128.2 -385.38l20.84 -295.26 -207.31 209.81 186.47 85.45zm732.09 404.32l104.82 111.65c-60.41,60.43 -123.29,94.98 -188.57,103.84 -65.18,8.73 -132.64,-6.72 -202.4,-46.57 -86.4,-49.36 -140.51,-119.4 -162.51,-210.23 -21.82,-90.74 -3.58,-187.31 54.93,-289.76 61.8,-108.2 137.86,-176.34 227.93,-204.37 90.07,-28.03 180.72,-15.98 271.83,36.05 79.59,45.47 130.72,105.99 153.47,181.4 13.77,44.78 13.04,97.34 -1.97,158.04l-147.45 -43.3c11.47,-38 10.63,-73.8 -2.59,-107.25 -13.35,-33.51 -37.49,-60.14 -72.28,-80.01 -48.27,-27.59 -97.32,-32.71 -147.08,-15.19 -49.82,17.31 -96.79,64.74 -141.04,142.21 -46.86,82.03 -65.47,149.04 -55.86,200.72 9.7,51.9 38.19,91.24 85.56,118.3 34.95,19.98 71.37,26.13 109.21,18.24 37.82,-7.91 75.86,-32.34 113.99,-73.78zm102.98 376.62l404.43 -630.06 127.6 81.92 -159.3 248.16 248.16 159.28 159.28 -248.16 127.58 81.92 -404.43 630.04 -127.58 -81.92 176.78 -275.41 -248.13 -159.28 -176.78 275.41 -127.6 -81.89zm1159.53 833.88l-127.49 -102.05 56.01 -173.47 -234.43 -187.62 -155.06 94.21 -125.19 -100.2 694.76 -402.88 125.04 100.06 -233.63 771.94zm-30.79 -405l91.93 -281.33 -252.07 153.18 160.14 128.16zm698.03 885.71l-60.39 63.79 -107.82 -102.07 60.39 -63.79c-83.95,-85.47 -124.84,-164.98 -123.16,-238.5 1.81,-73.65 30.94,-140.14 87.38,-199.75 59.41,-62.77 125.73,-95.29 199,-97.9 73.38,-2.52 153.42,34.13 240.07,110.16l51.04 -53.93 107.82 102.1 -51.04 53.91c83.44,84.99 124.44,164.12 123.25,237.64 -1.06,73.38 -30.3,140.25 -87.35,200.48 -56.65,59.88 -121.59,92.46 -194.8,98.03 -73.21,5.35 -154.7,-31.25 -244.38,-110.16zm86.98 -91.88c28.73,27.21 58.09,45.89 87.95,55.92 29.73,9.9 56.63,10.9 80.83,2.83 24.07,-7.94 50.88,-27.65 80.59,-59.02 74.18,-78.36 67.53,-159.04 -20.05,-241.95l-229.32 242.21zm-107.82 -102.07l229.32 -242.21c-46.44,-43.99 -89.56,-65.36 -129.73,-64.26 -40.16,1.08 -79.88,22.52 -119.29,64.14 -74.4,78.6 -67.88,159.41 19.69,242.32zm269.18 582.38l562.03 -494.61 366.12 416.03 -95 83.57 -265.95 -302.2 -124.8 109.83 247.29 281.02 -94.98 83.57 -247.29 -281 -152.29 134.01 275.63 313.19 -94.98 83.6 -375.78 -427.02zm1108.74 136.58l299.86 420.61 -506.59 361.15 38.24 53.65 -235.85 168.14 -73.45 -103.02 132.82 -94.69 -272.54 -382.28 -132.82 94.69 -73.45 -103.02 235.85 -168.14 37.02 51.94c70.09,-11.87 142.48,-38.22 216.92,-79.11 74.6,-40.98 164.41,-99 269.55,-173.98l64.43 -45.93zm-19.27 190.95c-184.45,131.52 -331.13,210.38 -439.97,236.62l164.49 230.74 403.57 -287.7 -128.09 -179.66zm-192.92 800.61l628.45 -406.9 301.21 465.19 -106.23 68.76 -218.78 -337.92 -139.56 90.36 203.46 314.22 -106.23 68.76 -203.44 -314.22 -170.26 110.25 226.74 350.21 -106.21 68.76 -309.14 -477.48zm367.41 592.46l651.92 -368.13 119.2 211.07c45.14,79.97 71.35,133.84 78.53,161.8 11.23,42.9 7.63,86.14 -10.92,129.86 -18.57,43.7 -53.78,80.19 -105.68,109.5 -40.07,22.63 -77.72,34.28 -113.17,35.3 -35.54,0.84 -67.31,-5.44 -95.53,-18.92 -28.09,-13.55 -51.26,-30.48 -69.29,-50.73 -23.96,-27.89 -52.76,-71.48 -86.36,-130.96l-48.32 -85.59 -245.84 138.83 -74.56 -132.02zm616.29 -173.89l-185.74 104.88 40.54 71.77c29.22,51.74 52.16,84.21 68.85,97.81 16.69,13.59 35.01,21.26 55.3,22.81 20.14,1.64 39.81,-2.87 59.24,-13.84 23.81,-13.46 39.45,-31.48 47.12,-54.04 7.6,-22.7 7.47,-45.62 -0.69,-69.25 -5.95,-17.26 -22.17,-49.53 -48.89,-96.88l-35.74 -63.26zm-47.59 1319.54l-66.42 -149.18 129.39 -128.4 -122.17 -274.31 -181.01 12.51 -65.23 -146.46 802.18 -39.06 65.14 146.3 -561.89 578.58zm158.55 -373.95l210.8 -207.77 -294.26 20.4 83.46 187.37zm587.23 208.39l48.72 143.58 -589.19 199.84 93.7 276.27 589.19 -199.84 48.72 143.58 -589.19 199.84 20.14 59.41 -274.28 93.03 -40.65 -119.82 154.48 -52.39 -170.62 -503.03 708.99 -240.49zm-466.72 957.15l719.16 -208.15 42.15 145.64 -719.18 208.13 -42.13 -145.62zm191.42 717.9l304.61 -70.29 -6.87 -29.91c-10.79,-46.68 -25.31,-77.85 -43.68,-93.83 -18.17,-16 -67.31,-39.01 -147.1,-69.43l-183.68 -68.85 -40.63 -176.1 162.84 56.14c64.61,21.93 110.65,40.83 138.01,56.32 27.56,15.65 54,37.09 79.02,64.21 -4.93,-70.22 7.38,-124.58 37.13,-163.1 29.73,-38.5 70.05,-63.72 121.17,-75.53 44.49,-10.28 86.47,-8.16 125.95,6.34 39.48,14.5 69.38,38.7 89.56,72.68 20.18,34 38.79,87.46 55.66,160.47l71.59 310.25 -729.51 168.36 -34.08 -147.74zm606.19 -139.92l-26.52 -114.94c-13.48,-58.42 -23.7,-96.48 -30.48,-114.23 -6.94,-17.73 -19.63,-31.61 -37.97,-41.33 -18.32,-9.7 -39.72,-11.74 -64.34,-6.06 -25.64,5.9 -44.54,17.06 -56.72,33.29 -12.18,16.22 -17.75,34.68 -16.93,55.24 0.97,20.53 8.4,61.2 22.39,121.83l25.15 109.01 185.43 -42.81zm-403.3 1392.04l-21.9 -161.84 160.23 -86.93 -40.27 -297.56 -177.25 -38.79 -21.51 -158.88 780.9 187.66 21.48 158.68 -701.68 397.67zm257.11 -314.42l260.65 -140.27 -288.16 -63.02 27.52 203.29zm-258.28 395.63l746.53 -56.65 18.35 241.7c6.94,91.58 7.82,151.45 2.45,179.83 -8.05,43.61 -29.66,81.25 -65.01,112.95 -35.34,31.7 -82.73,49.8 -142.17,54.31 -45.86,3.47 -84.9,-1.95 -117.44,-16.07 -32.56,-14.32 -58.64,-33.49 -78.49,-57.67 -19.65,-24.2 -33.46,-49.38 -41.2,-75.35 -9.84,-35.43 -17.44,-87.11 -22.61,-155.23l-7.43 -98.01 -281.51 21.37 -11.47 -151.19zm631.83 104.11l-212.68 16.14 6.23 82.2c4.49,59.26 11.49,98.38 20.82,117.79 9.33,19.38 22.68,34.11 40.38,44.12 17.55,10.01 37.27,14.3 59.52,12.6 27.28,-2.06 49.09,-11.76 65.6,-28.91 16.51,-17.33 26.13,-38.17 28.78,-63.02 1.95,-18.15 0.95,-54.24 -3.16,-108.46l-5.5 -72.46zm-600.31 576.59l748.56 12.75 -3.87 227.05 -512.82 125.46 508.29 141.31 -3.89 227.56 -748.56 -12.73 2.39 -140.09 589.3 9.5 -586.78 -157.64 2.48 -145.64 591.8 -136.87 -589.3 -10.57 2.41 -140.09zm190.42 1385.12l-64.19 139.05c-78.67,-33.35 -134.26,-78.69 -166.97,-135.87 -32.54,-57.16 -43.52,-125.48 -32.74,-205.1 13.35,-98.6 57.98,-175.04 133.95,-229.46 75.93,-54.26 172.28,-73.6 289.18,-57.78 123.47,16.73 215.18,61.67 274.95,134.65 59.75,72.99 82.6,161.53 68.52,265.51 -12.29,90.82 -49.22,160.94 -110.61,210.32 -36.34,29.53 -85.34,48.58 -147.23,57.43l-15.16 -152.91c39.52,-3.62 72.41,-17.84 98.45,-42.62 26.06,-24.95 41.69,-57.31 47.06,-97.03 7.47,-55.08 -6.17,-102.47 -41.09,-142.04 -34.72,-39.7 -96.31,-65.45 -184.72,-77.41 -93.61,-12.67 -162.73,-4.8 -207,23.5 -44.49,28.45 -70.27,69.65 -77.58,123.69 -5.42,39.9 2.54,75.97 24.05,108.06 21.51,32.12 58.42,58.22 111.14,78zm425.07 363.78l-99.6 586.56 -738.1 -125.33 25.37 -149.49 613.37 104.15 48.85 -287.61 -613.37 -104.15 25.37 -149.46 738.1 125.33zm-510.28 684.66c73.32,21.22 131.72,50.11 175.26,86.47 31.96,26.83 58.44,58.82 79.4,95.53 20.93,36.74 33.55,73.96 38.06,111.71 5.92,50.35 0.49,104.84 -16.47,163.43 -30.7,106.12 -88.19,181.29 -172.45,226.03 -84.37,44.52 -185.14,49.82 -302.49,15.87 -116.35,-33.69 -198.25,-91.66 -245.61,-173.78 -47.52,-82.16 -55.88,-176.19 -25.31,-281.82 30.97,-106.98 88.28,-182.73 171.99,-226.89 83.55,-44.21 182.77,-49.8 297.62,-16.56zm-38.46 151.06c-81.54,-23.58 -148.78,-22.55 -201.87,2.92 -52.92,25.51 -87.86,67.26 -104.64,125.19 -16.8,58.09 -9.64,111.67 21.24,161.09 31.1,49.27 88.33,85.96 171.86,110.14 82.53,23.87 149.38,23.63 200.39,-0.97 51.15,-24.38 85.3,-66.58 102.69,-126.65 17.35,-59.94 10.76,-114.28 -19.65,-162.79 -30.55,-48.58 -87.18,-84.94 -170.02,-108.93zm-560.24 554.84l709.02 240.49 -77.87 229.57c-29.49,86.96 -52.16,142.39 -68.23,166.4 -24.49,36.96 -59.13,63.11 -104.06,78.42 -44.94,15.3 -95.64,13.39 -152.07,-5.77 -43.57,-14.77 -77.36,-35.06 -101.74,-60.81 -24.34,-25.93 -40.83,-53.78 -49.6,-83.82 -8.62,-29.97 -11.43,-58.53 -8.38,-85.45 4.82,-36.47 18.1,-87 40.03,-151.7l31.59 -93.08 -267.36 -90.67 48.69 -143.58zm540.48 343.42l-201.98 -68.52 -26.48 78.07c-19.1,56.28 -28.01,95.02 -27.01,116.53 0.97,21.48 7.49,40.25 19.87,56.41 12.2,16.11 28.67,27.76 49.8,34.92 25.91,8.8 49.78,8.42 71.7,-0.88 21.97,-9.46 38.99,-24.87 51.17,-46.68 8.89,-15.94 22.13,-49.53 39.59,-101.04l23.34 -68.81zm-845.11 451.77l565.59 259.16 92.35 -201.52 115.03 52.72 -247.41 539.92 -115.03 -52.72 91.91 -200.57 -565.61 -259.16 63.17 -137.84zm497.68 702.83l-78.73 150.99 -424.23 -24.71 274.66 311.51 -72.92 139.83 -387.43 -487.63c-41.97,-52.94 -70.55,-99.49 -85.92,-139.74 -15.38,-40.25 -12.6,-80.28 8.36,-120.44 20.62,-39.57 39.37,-69.1 56.08,-88.68l99.82 52.05c-11.14,18.37 -20.71,35.19 -28.69,50.48 -16.11,30.9 -21.99,56.14 -17.73,75.46 4.49,19.25 22.3,45.05 53.47,76.83l603.27 4.04zm-493.93 890.11l-76.52 121.11 -87.09 -55.04c-35.06,-22.15 -60.65,-42.66 -76.92,-61.6 -16.14,-18.85 -27.12,-41.86 -32.82,-68.76 -5.59,-27.03 -5,-56.34 1.97,-87.62l65.38 8.13c-7.16,29.29 -6.85,53.6 0.82,73.07 7.74,19.74 23.54,37.16 47.21,52.52l36.87 -58.33 121.11 76.52zm128.47 -203.31l-76.52 121.11 -87.07 -55.02c-35.08,-22.17 -60.74,-42.53 -77.12,-61.32 -16.2,-18.7 -27.23,-41.73 -32.8,-68.76 -5.61,-27.03 -4.91,-56.5 2.23,-88.06l65.29 8.27c-7.27,29.44 -6.96,53.76 0.8,73.07 8.02,19.3 23.74,36.85 47.24,52.54l36.85 -58.35 121.11 76.52zm-16405.86 2100.17l414.42 -756.14 83.11 78.8 -285.51 482.79c-29.53,50.9 -59.92,100.46 -91.2,148.38 77.1,-49.42 121.66,-77.8 133.68,-85.12l502.06 -300.45 96.48 91.46 -203.71 388.62c-50.84,96.24 -102.78,182.62 -155.81,258.85 44.23,-30.57 96.04,-64.63 155.45,-102.18l463.38 -299.41 80.41 76.26 -739.36 448.04 -77.89 -73.85 310.2 -581.35c25.88,-48.74 41.84,-78.53 47.72,-89.54 -33.09,21.06 -61.71,38.84 -85.63,53.34l-564.15 340.84 -83.66 -79.33zm806.78 746.53l341.83 -791.62 90.12 70.67 -239.05 507.39c-24.67,53.45 -50.26,105.63 -76.92,156.27 72.1,-56.41 113.81,-88.83 125.11,-97.26l471.73 -346.12 104.62 82.05 -166.42 405.98c-41.62,100.57 -85.25,191.42 -130.9,272.29 41.16,-34.57 89.56,-73.32 145.2,-116.29l433.32 -341.48 87.2 68.41 -694.18 515.28 -84.46 -66.24 254.43 -607.8c21.22,-50.97 34.3,-82.14 39.12,-93.63 -30.94,24.05 -57.8,44.45 -80.26,61.12l-529.76 392.14 -90.74 -71.15zm881.36 656.12l262.33 -821.39 96.61 61.47 -187.99 528.43c-19.27,55.61 -39.63,110.05 -61.18,163.08 66.22,-63.24 104.55,-99.62 114.94,-109.1l435.42 -390.84 112.18 71.37 -125.7 420.39c-31.52,104.15 -66,198.87 -103.47,283.83 37.55,-38.44 81.92,-81.78 133.04,-129.99l397.64 -382.44 93.52 59.48 -640.16 581.06 -90.56 -57.62 193.43 -629.89c16.09,-52.81 26.06,-85.1 29.73,-97.01 -28.45,26.99 -53.16,49.91 -73.85,68.72l-488.64 442.34 -97.28 -61.89zm775.44 470.96l53.27 -103.58 103.56 53.25 -53.25 103.58 -103.58 -53.25zm185.05 113.04l634.26 -628.76 110.61 49.87 -33.18 899.7 -114.47 -51.61 15.91 -270.04 -320.13 -144.29 -186.31 193.23 -106.69 -48.1zm359.4 -213.56l259.08 116.77 15.72 -246.48c4.97,-74.84 10.79,-135.87 17.04,-183.3 -32.78,44.85 -68.7,87.2 -107.89,127.45l-183.95 185.56zm435.55 568.15l302.95 -776.87 344.31 134.26c69.27,27.01 119.14,54.57 149.71,82.53 30.55,27.96 49.71,63.77 57.47,107.42 7.78,43.65 3.21,86.87 -13.42,129.55 -21.53,55.15 -57.54,94.65 -107.91,118.56 -50.35,23.89 -114.63,26.33 -193.16,7.58 22.21,23.67 37.75,44.74 46.95,62.88 19.27,39.21 34.22,84.81 44.65,136.58l51.83 263.98 -128.38 -50.06 -39.68 -201.74c-11.58,-58.46 -22.46,-103.75 -32.14,-136.05 -9.88,-32.4 -20.53,-56.36 -32.03,-72.3 -11.38,-15.69 -24.42,-28.69 -38.79,-38.88 -10.65,-6.85 -29.15,-15.52 -55.75,-25.88l-118.98 -46.42 -134.54 345.04 -103.09 -40.18zm272.34 -393.82l220.62 86.03c47.01,18.32 85.45,27.7 115.67,28.23 30.13,0.71 56.28,-7.01 78.22,-23.23 22.06,-15.98 37.95,-36.45 47.77,-61.6 14.3,-36.69 12.95,-72.23 -4.38,-106.27 -17.35,-34.06 -54.73,-62.18 -112.04,-84.52l-245.59 -95.77 -100.26 257.15zm511.76 684.92l228.68 -801.87 159.01 45.33 27.78 621.73c2.48,57.82 3.89,101.01 4.42,129.62 17.44,-26.5 44.05,-65.34 79.59,-116.35l352.07 -502.7 142.04 40.52 -228.68 801.87 -101.92 -29.07 191.33 -670.84 -425.38 604.09 -95.58 -27.25 -36.63 -749.18 -194.84 683.18 -101.9 -29.07zm1379.26 -1.3l16.8 -96.37 347.62 60.54 -53.03 304.43c-60.74,33.16 -121.41,55.68 -181.93,67.22 -60.52,11.52 -120.71,12.07 -180.37,1.68 -80.7,-14.06 -150.92,-44.03 -210.87,-90.14 -59.79,-45.86 -100.97,-104.66 -123.07,-175.7 -22.26,-71.26 -26.37,-147.25 -12.36,-227.76 13.93,-79.93 43.54,-151.59 89.12,-215.18 45.51,-63.39 102.47,-106.47 171.02,-129.02 68.59,-22.72 143.78,-26.97 225.63,-12.71 59.28,10.34 111.36,29.27 155.98,56.94 44.63,27.67 77.65,61.01 98.83,99.95 21.37,39.19 34.17,87.73 38.7,145.46l-102.76 9.66c-5.17,-43.83 -14.74,-79.4 -28.71,-106.65 -14.19,-27.1 -36.87,-50.75 -68.41,-71.04 -31.34,-20.22 -67.75,-34.06 -109.24,-41.29 -49.51,-8.62 -93.7,-8.42 -132.67,0.33 -38.77,8.82 -71.28,23.65 -97.99,44.6 -26.5,20.8 -48.43,44.96 -65.8,72.28 -29.73,47.43 -49.84,100.66 -60.21,160.14 -12.8,73.43 -10.85,137 5.57,190.89 16.64,53.73 46.97,96.86 90.8,129.11 44.01,32.29 92.97,53.25 147.1,62.66 47.04,8.2 94.51,7.03 142.44,-3.36 47.94,-10.57 85.17,-23.98 111.93,-40.78l26.81 -153.93 -240.95 -41.97zm454.71 411.92l63.02 -831.47 600.38 45.49 -7.38 97.54 -490.06 -37.13 -19.36 255.5 458.72 34.75 -7.4 97.54 -458.69 -34.75 -21.48 283.35 509.8 38.64 -7.38 97.54 -620.14 -46.99zm771.15 57.36l18.59 -833.64 113.32 2.52 422.8 664.1 14.61 -654.35 105.94 2.37 -18.59 833.66 -113.32 -2.54 -422.82 -664.1 -14.59 654.35 -105.94 -2.37zm844.8 13.33l-63.02 -831.47 600.38 -45.49 7.4 97.54 -490.06 37.13 19.36 255.5 458.69 -34.77 7.4 97.54 -458.72 34.77 21.46 283.35 509.8 -38.64 7.4 97.54 -620.12 46.99zm774.13 -62.75l-107.22 -826.94 366.5 -47.52c73.72,-9.57 130.7,-9.33 170.93,0.53 40.23,9.86 74.25,32.07 102.01,66.62 27.78,34.57 44.54,74.67 50.42,120.11 7.6,58.71 -5.04,110.63 -37.73,155.79 -32.71,45.16 -87.93,78.16 -165.82,99.4 30.88,10.1 54.62,21.11 71.37,32.65 35.74,25.11 70.73,57.96 104.75,98.36l172.21 206.67 -136.64 17.73 -131.65 -157.91c-38.24,-45.75 -69.52,-80.24 -93.52,-103.93 -24.23,-23.67 -45.07,-39.59 -62.82,-48.03 -17.51,-8.31 -35.19,-13.44 -52.67,-15.49 -12.67,-0.91 -33.04,0.38 -61.34,4.04l-126.65 16.42 47.63 367.27 -109.74 14.23zm49.82 -476.2l234.85 -30.46c50.04,-6.5 88.24,-16.73 115,-30.77 26.77,-13.86 46,-33.18 57.47,-57.96 11.67,-24.6 15.78,-50.2 12.31,-76.94 -5.06,-39.08 -23.3,-69.6 -54.86,-91.16 -31.56,-21.53 -77.85,-28.27 -138.88,-20.34l-261.4 33.88 35.5 273.73zm691.2 376.38l125.59 -884.23 118.25 -27.08 517.11 736.98 -122.41 28.05 -150.46 -224.79 -342.27 78.42 -31.72 266.52 -114.1 26.13zm157.4 -387.32l276.98 -63.46 -136.38 -205.89c-41.22,-62.66 -73.49,-114.81 -97.15,-156.38 0.97,55.55 -2.06,111 -9,166.75l-34.46 258.99zm807.35 150.11l-202.73 -707.54 -264.23 75.7 -26.94 -94.05 634.79 -181.89 26.92 94.05 -264.2 75.7 202.76 707.56 -106.36 30.46zm493.84 -156.16l-265.68 -790.4 104.88 -35.23 265.66 790.38 -104.86 35.26zm107.53 -468.09c-50.42,-128.69 -55.24,-243.12 -14.59,-343.07 40.69,-99.95 115.73,-171.26 225.24,-214.18 71.75,-28.12 143.01,-36.23 214.03,-24.67 70.86,11.65 133.46,42.13 187.66,91.58 54.13,49.25 96.5,112.68 126.87,190.22 30.81,78.62 42.53,155.32 35.01,229.79 -7.45,74.62 -34.02,139.25 -79.75,193.85 -45.84,54.86 -102.49,95.42 -169.91,121.83 -73.18,28.69 -145.35,36.54 -216.84,23.89 -71.26,-12.71 -133.84,-43.65 -187.42,-93.12 -53.51,-49.27 -93.61,-108 -120.31,-176.12zm106.98 -39.83c36.6,93.41 90.56,157.13 161.82,191.11 71.28,34 144.91,36.21 220.79,6.45 77.36,-30.33 130.15,-82.27 158.97,-156.12 28.65,-73.76 23.41,-160.52 -15.69,-260.27 -24.71,-63.08 -56.98,-114.01 -96.73,-152.63 -39.72,-38.66 -85.3,-62.91 -136.45,-72.65 -51.32,-9.7 -102.52,-4.66 -153.66,15.38 -72.65,28.47 -125.39,77.92 -158.26,148.34 -32.85,70.42 -26.48,163.81 19.21,280.38zm903.97 49.56l-381.29 -741.57 100.81 -51.83 688.37 382.04 -299.28 -582.08 94.25 -48.47 381.29 741.57 -100.81 51.83 -688.37 -382.02 299.28 582.08 -94.25 48.45zm755.35 -407.61l-57.67 -101.17 101.19 -57.67 57.67 101.19 -101.19 57.65zm583.71 -734.32l106.52 -40.98c33.4,87.38 39.19,167.61 17.62,241.06 -21.6,73.43 -67.75,135.25 -138.63,185.27 -73.27,51.72 -143.43,78.91 -210.56,81.39 -67.02,2.65 -132.47,-16.03 -196.37,-55.72 -64.03,-39.87 -118.94,-92.11 -164.83,-157.11 -50.04,-70.89 -80.21,-142.26 -90.36,-214.18 -10.17,-71.95 0.04,-139.27 30.64,-201.96 30.59,-62.69 75.99,-115.18 135.94,-157.49 68.19,-48.12 137.64,-71.24 208.44,-69.21 70.97,1.92 137.71,27.78 200.26,77.72l-73.72 83.37c-50.62,-38.39 -99.11,-58.31 -145,-59.68 -45.98,-1.53 -91.66,13.86 -137.17,45.98 -52.16,36.85 -87.09,80.26 -104.46,130.06 -17.35,49.78 -18.26,101.04 -2.59,153.16 15.61,52.43 39.26,101.06 70.93,145.95 40.85,57.89 84.97,102.52 132.22,133.79 47.37,31.43 96.24,45.16 146.88,41.49 50.62,-3.67 96.5,-20.14 137.88,-49.36 50.44,-35.59 82.65,-80.17 97.03,-133.79 14.3,-53.82 7.49,-113.63 -20.67,-179.75zm91.46 -205.36c-85.19,-108.79 -122.63,-217.06 -112.31,-324.48 10.3,-107.42 61.76,-197.23 154.37,-269.75 60.67,-47.5 126.61,-75.7 197.98,-84.99 71.2,-9.17 139.94,2.1 206.03,33.93 65.98,31.67 124.75,80.3 176.08,145.86 52.05,66.49 85.28,136.62 99.42,210.12 14.26,73.63 7.32,143.14 -20.84,208.59 -28.18,65.69 -70.84,120.77 -127.85,165.4 -61.89,48.47 -128.78,76.7 -200.88,85.05 -71.93,8.24 -140.73,-3.45 -206.25,-35.48 -65.38,-31.87 -120.64,-76.63 -165.75,-134.26zm91.07 -68.81c61.87,79 131.8,124.58 209.83,136.69 78.03,12.13 149.2,-6.85 213.39,-57.12 65.4,-51.21 101.08,-116.13 107.53,-195.13 6.28,-78.87 -23.61,-160.49 -89.65,-244.86 -41.75,-53.34 -87.26,-92.88 -136.42,-118.48 -49.14,-25.64 -99.75,-35.81 -151.54,-30.5 -51.97,5.44 -99.55,24.93 -142.81,58.8 -61.43,48.12 -97.79,110.61 -109.1,187.48 -11.27,76.88 21.6,164.54 98.78,263.12zm882.02 -207.82l-575.8 -603.14 119.62 -114.21 550.22 290.77c51.13,27.14 89.08,47.79 114.01,61.8 -14.01,-28.47 -34.04,-71.06 -60.06,-127.54l-255.3 -558.09 106.83 -102.01 575.8 603.14 -76.66 73.18 -481.7 -504.58 305.65 672.66 -71.88 68.63 -664.65 -347.67 490.57 513.86 -76.66 73.18z"/>
 </g>
</svg>
