<?xml version="1.0" encoding="UTF-8"?>
<!DOCTYPE svg PUBLIC "-//W3C//DTD SVG 1.1//EN" "http://www.w3.org/Graphics/SVG/1.1/DTD/svg11.dtd">
<!-- Creator: CorelDRAW 2018 (64-Bit) -->
<svg xmlns="http://www.w3.org/2000/svg" xml:space="preserve" width="150mm" height="150mm" version="1.1" style="shape-rendering:geometricPrecision; text-rendering:geometricPrecision; image-rendering:optimizeQuality; fill-rule:evenodd; clip-rule:evenodd"
viewBox="0 0 5148.64 5148.64"
 xmlns:xlink="http://www.w3.org/1999/xlink">
 <defs>
  <style type="text/css">
   <![CDATA[
    .fil0 {fill:black}
   ]]>
  </style>
 </defs>
 <g id="Layer_x0020_1">
  <metadata id="CorelCorpID_0Corel-Layer"/>
  <path class="fil0" d="M729 0l3690.65 0c400.95,0 729,328.04 729,728.99l0 3690.66c0,400.95 -328.05,728.99 -729,728.99l-3690.65 0c-400.95,0 -729,-328.04 -729,-728.99l0 -3690.66c0,-400.95 328.05,-728.99 729,-728.99zm13.81 2225.83l191.46 0 0 313.98 209.66 0 0 -313.98 192.33 0 0 899.24 -192.33 0 0 -364.21 -209.66 0 0 364.21 -191.46 0 0 -899.24zm1102.44 751.04l-217.17 0 -31.19 148.2 -195.66 0 233.48 -899.24 209.81 0 232.47 899.24 -200.71 0 -31.04 -148.2zm-40.58 -194.67l-67.72 -323.19 -68.01 323.19 135.73 0zm1167.99 342.87l-834.3 0 0 -899.24 191.46 0 0 678.2 129.09 0 0 -678.2 191.46 0 0 678.2 130.82 0 0 -678.2 191.47 0 0 899.24zm126.34 -899.24l512.88 0 0 192.16 -320.55 0 0 143.18 297.16 0 0 183.36 -297.16 0 0 177.08 330.08 0 0 203.46 -522.41 0 0 -899.24zm438.96 539.84l236.73 0c21.87,-93.57 49,-186.76 82.16,-279.52 14.43,-40.39 51.1,-68.58 92.98,-59.33l0 0c41.89,9.25 73.47,52.47 59.33,92.98 -28.29,81.05 -52.64,163.02 -73.18,245.86l233.2 0c36.63,0 66.6,29.96 66.6,66.59l0 0c0,36.64 -29.97,66.6 -66.6,66.6l-262.78 0c-17.14,87.09 -30.22,175.12 -39.34,264.06 -4.37,42.68 -51.1,68.58 -92.98,59.33l-0 0c-41.89,-9.25 -63.64,-50.31 -59.33,-92.98 7.77,-77.02 18.42,-153.82 32.32,-230.41l-209.11 0c-36.63,0 -66.6,-29.96 -66.6,-66.6l0 0c0,-36.63 29.96,-66.59 66.6,-66.59zm-39.87 -838.25l182.42 0 0 170.84 -182.42 0 0 -170.84zm725.32 1.45l182.42 0 0 170.83 -173.73 0 0 167.95 -182.42 0 0 -170.84 173.73 0 0 -167.94zm-360.48 -4.34l182.42 0 0 170.84 -182.42 0 0 -170.84zm-179.53 173.73l182.42 0 0 170.84 -182.42 0 0 -170.84z"/>
 </g>
</svg>
