<?xml version="1.0" encoding="UTF-8"?>
<!DOCTYPE svg PUBLIC "-//W3C//DTD SVG 1.1//EN" "http://www.w3.org/Graphics/SVG/1.1/DTD/svg11.dtd">
<!-- Creator: CorelDRAW 2018 (64-Bit) -->
<svg xmlns="http://www.w3.org/2000/svg" xml:space="preserve" width="150mm" height="150mm" version="1.1" style="shape-rendering:geometricPrecision; text-rendering:geometricPrecision; image-rendering:optimizeQuality; fill-rule:evenodd; clip-rule:evenodd"
viewBox="0 0 7536.81 7536.8"
 xmlns:xlink="http://www.w3.org/1999/xlink">
 <defs>
  <style type="text/css">
   <![CDATA[
    .fil0 {fill:black}
   ]]>
  </style>
 </defs>
 <g id="Layer_x0020_1">
  <metadata id="CorelCorpID_0Corel-Layer"/>
  <path class="fil0" d="M1067.14 0l5402.53 0c586.93,0 1067.14,480.2 1067.14,1067.13l0 5402.55c0,586.92 -480.21,1067.13 -1067.14,1067.13l-5402.53 0c-586.93,0 -1067.14,-480.2 -1067.14,-1067.13l0 -5402.55c0,-586.93 480.22,-1067.13 1067.14,-1067.13zm212.06 2559.7c0,239.86 -10.77,938.56 7.1,1128.84 219.55,39.33 176.86,38.54 176.86,-396.17 0,-151.31 -12.68,-370.07 4.44,-513.21 93.06,150.82 172.6,326.68 260.36,489.12 133.9,247.88 170.26,432.44 327.07,432.37 100.97,-0.05 122.23,-15.35 122.23,-118.27l0 -1053.2c0,-82.47 -8.79,-92.06 -91.72,-92.19 -118.12,-0.18 -96.81,43.13 -95.44,152.89l-1.56 761.67c-68.82,-83.85 -194.07,-357.36 -260.28,-480.34 -47.03,-87.35 -83.24,-161.96 -130.83,-249.72 -72.23,-133.22 -48.06,-184.51 -213.67,-184.51 -99.71,0 -104.57,27.7 -104.57,122.71zm1463.48 56.09c261.58,-71.61 340.93,135.07 342.78,371.26 1.71,217.94 20.34,490.25 -192.52,536.24 -280.43,60.6 -344.63,-152.17 -344.2,-383.49 0.47,-251.79 -29.86,-462.75 193.93,-524.02zm-63.6 -169.52c-335.74,87.75 -334.59,404.15 -326.02,770.25 7.85,335.86 234.49,568.56 604.6,474.75 316.57,-80.24 336.62,-397.38 322.63,-765.68 -12.97,-341.13 -231.13,-576.03 -601.21,-479.32zm1943.44 675.31c2.09,-73.7 112.13,-472.4 146.56,-513.33 26.23,68.6 134.82,443.2 136.09,513.49l-282.66 -0.17zm-340.91 567.39l174.87 9.15 114.58 -401.62 382.59 1.45c23.25,47.85 44.17,138.31 59.53,193.01 49.19,175.23 31.4,244.59 233.14,199.02 13.54,-99.82 -215.57,-842.61 -269.64,-1034.03 -35.67,-126.31 -54.5,-232.28 -221.56,-226.84 -154,5.01 -169.52,103.62 -204.56,230.67 -52.82,191.52 -293.12,948.33 -268.95,1029.18zm1187.87 -13.83c39.63,33.34 94.57,36.51 155.43,13.74 49.91,-71.17 21.38,-392.85 25.79,-506.54 31.86,19.34 5.49,-1.66 38.03,30.51l365.37 443.84c45.03,53.1 156.74,63.85 235.91,26.96 3.52,-73.37 -176.29,-259.06 -231.2,-321.85 -45.67,-52.21 -227.86,-260.36 -250.8,-313.67 37.53,-60.73 82.44,-92.28 126.62,-147.94l257.05 -292.38c38.45,-47.23 122.37,-98.45 85.71,-151.37 -58.04,-47.26 -176.95,-20.07 -214.98,22.31 -91.59,102.06 -335.54,414.05 -413.43,456.36 -0.08,-67.49 10.25,-434.58 -9,-468.02 -23.92,-41.55 -155.37,-51.42 -177.83,5.27 -7.61,19.19 -26.62,1126.32 7.35,1202.79zm-1217.6 -1238.1l-76.5 2.72c-83.24,122.77 -248.48,985.56 -320.15,1078.25 -29.1,-43.31 -234.65,-823.63 -280.63,-998.28 -22.45,-85.3 -21.6,-82.73 -116.03,-82.68 -104.83,0.05 -104.24,28.93 -77.39,121l254.47 890.94c40.67,142.35 52.07,256.85 219.57,258.23 165.99,1.36 180.06,-102.43 218.69,-242.28 34.31,-124.26 67.79,-237.09 101.08,-357.25l152.27 -535.48c28.2,-94.95 46.94,-140.72 -75.37,-135.16zm-1139.2 1995.09l7.87 378.36c-188.69,18.76 -224.96,-7.95 -224.89,-190.2 0.06,-172.7 42.36,-210.35 217.02,-188.15zm8.4 -109.07c-256.63,-9.91 -342.96,35.13 -342.96,297.23 0,125.08 22.01,225.34 113.25,277.27 73.53,41.86 255.76,38.67 337.82,-2.52 33.19,-75.79 12.09,-423.11 12.14,-534.23 0.03,-63.08 27.26,-215.68 -33.27,-238.56 -118.29,-44.71 -86.98,121.33 -86.98,200.82zm-1759.67 488.03c-5.21,-93.65 -4.42,-205.01 -3.37,-299.52 0.7,-62.34 -5.26,-78.31 56.62,-85.59 53.22,-6.26 105.04,3.26 132.34,30.74 17.37,17.5 169.38,432.61 -185.58,354.37zm-111.55 293.69l102.98 7.64 7.76 -184.25c195.22,-30.06 307.36,13.82 339.18,-204.84 48.26,-331.61 -111.27,-459.64 -393.44,-391.6 -93.82,22.62 -62.92,100.73 -62.57,212.24 0.49,156.57 -15.52,417.13 6.08,560.82zm1049.8 -484.5c0,-277.19 249.14,-252.84 249.14,-15.26l0 30.53c0,242.16 -249.14,252.81 -249.14,0l0 -15.27zm-116.39 0c-0.1,187.02 49.57,303.47 237.95,304.43 185.26,0.95 244.78,-129.7 244.52,-304.43 -0.26,-173.51 -54.94,-296.28 -229.86,-302.83 -190.4,-7.13 -252.52,114.92 -252.61,302.83zm3145.31 91.59c-58.85,-363.46 212.37,-335.83 237.39,-183.07 60.39,368.89 -212.68,335.7 -237.39,183.07zm53.35 -385.63c-160.41,42.45 -190.18,180.18 -172.94,370.54 14.16,156.35 131.16,268.06 315.3,218.75 268.22,-71.83 230.84,-688.08 -142.36,-589.29zm-1541.97 581.72c25.27,-55.56 19.45,-490.79 6.14,-568.98 -136.33,-53.67 -114.25,38.45 -112.92,143.67 1.16,91.5 0.29,183.47 0.29,275.01 -35.8,64.51 -155.5,82.59 -203.66,16.95 -54.43,-105.92 10.45,-326.62 -26.8,-442.29l-100.78 -2.96c-21.54,100.01 -20.8,432.03 20.28,509.12 32.62,61.23 98.83,92.84 187.3,85.03 47.45,-4.19 74.04,-22.57 107.16,-21.6 56.71,1.66 29.76,29.99 122.99,6.05zm2000.39 -576.36c-18.69,138.48 -13.39,431.52 -4.65,579.3l106.23 1.78 6.36 -445.05c315.23,-183.48 202.46,235.39 228.78,438.94l105 9.39c19.33,-156.3 52.6,-538.76 -116.99,-589.49 -65.76,-19.67 -98.71,-8.24 -159,7.74 -110.05,29.16 -37.28,-24.44 -165.72,-2.61zm-1259.66 -7.75c-59.46,1.15 -113.86,-15.98 -109.76,49.79 3.19,50.97 62.51,46.22 111.25,51.56 11.12,107.28 -11.93,331.35 14.53,414.7 35.56,111.98 286.01,134.28 234.88,-4.84l-119.4 -18.68 0.32 -389.98c62.31,-0.83 74.61,10.44 119.8,-19.81l2.67 -61.06c-49.06,-32.09 -57.61,-20.67 -119.17,-21.6 -12.22,-58.85 1.23,-71.26 -21.53,-121.03l-95.34 1.4 -18.26 119.54zm-591.95 296.43c-0.25,126.42 28.34,219.14 101.24,268.74 73.66,50.12 234.29,52.25 292.73,0.98l-0.21 -63.4c-153.84,-74.08 -278.52,103.84 -278.52,-221.58 0,-272.7 149.83,-130.78 277.38,-189.35 5.71,-77.61 -10.96,-88.43 -84.99,-96.26 -209.05,-22.11 -307.19,66.81 -307.65,300.86zm-2140.94 -284.24c-17.13,127.94 -13.46,434.21 -3.4,569.05 185.85,71.83 90.43,-113.12 119.38,-437.45 59.69,-46.47 91.9,-30.5 156.7,-52.77l-7.11 -92.57c-89.51,-11.2 -72.55,8.62 -126.54,15.81 -73.58,9.8 -38.79,-32.4 -139.03,-2.08zm3119.69 -12.04l-21.5 18.11 -1.13 31.68 1.13 519.45 22.64 13.58 54.32 3.39 28.29 -14.71 10.18 -35.08 -3.4 -521.71 -9.05 -20.37 -67.9 -1.14 -13.58 6.79zm-7.92 -211.62l-21.5 20.37 0 40.74 -7.92 65.64 23.76 19.24 61.11 4.52c0,0 24.89,-3.4 33.95,-7.92 9.05,-4.53 20.37,-12.45 20.37,-20.37 0,-7.92 -2.26,-93.93 -2.26,-93.93l-22.64 -27.16c0,0 -16.97,-5.66 -28.29,-7.92 -11.32,-2.26 -56.59,6.79 -56.59,6.79z"/>
 </g>
</svg>
